<?xml version="1.0" encoding="utf-8"?>
<!-- Generator: Adobe Illustrator 21.0.0, SVG Export Plug-In . SVG Version: 6.00 Build 0)  -->
<svg version="1.1" id="Layer_1" xmlns="http://www.w3.org/2000/svg" xmlns:xlink="http://www.w3.org/1999/xlink" x="0px" y="0px"
	 viewBox="0 0 699 133.9" style="enable-background:new 0 0 699 133.9;" xml:space="preserve">
<style type="text/css">
	.st0{fill:#FF0000;}
	.st1{fill:#FFFFFF;}
	.st2{fill:#FFFFFF;stroke:#FFFFFF;stroke-linejoin:round;stroke-miterlimit:10;}
</style>
<polygon class="st0" points="3.7,13.8 3.7,41 22.4,41 22.4,30.4 33,30.4 33,13.8 "/>
<path class="st1" d="M45.3,13.8h-6.2v16.6h4.7c2.1,0,4,0.3,5.7,0.9c1.6,0.6,3.2,1.6,4.6,3.1c1.4,1.5,2.6,3.4,3.5,5.9
	c0.9,2.5,1.6,5.6,2.1,9.4c0.5,3.8,0.8,8.3,0.8,13.4c0,21.3-5.6,32-16.7,32H22.4V47.1H3.7v64.6h41.6c5.8,0,10.9-1.2,15.3-3.5
	c4.4-2.3,8-5.7,10.6-10c2.7-4.4,4.7-9.5,6-15.3c1.3-5.8,2-12.4,2-19.7C79.3,30.3,68,13.8,45.3,13.8z"/>
<g>
	<path class="st1" d="M137.2,44.6c-4.5-3.4-10.8-5.2-19-5.2c-13.6,0.1-24.4,1.7-32.4,4.8v11.5c14.1-1,24-1.5,29.9-1.5
		c1.6,0,2.9,0.1,4,0.3c1.1,0.2,2.1,0.6,2.9,1.2c0.9,0.6,1.6,1.5,1.9,2.7c0.4,1.2,0.6,2.7,0.6,4.6c0.1,0.1,0.1,1.6,0,4.5
		c-3.6,0.1-7.1,0.1-10.5,0.1c-3.4,0-6.9-0.1-10.4-0.1c-3.7,0-7,0.5-9.7,1.6c-2.7,1-4.9,2.5-6.5,4.4c-1.6,1.9-2.8,3.9-3.5,6.2
		c-0.8,2.2-1.1,4.7-1.1,7.5v6.7c0,5,1.7,9.3,5.2,13.1c3.5,3.7,8.4,5.6,14.9,5.8c3.3,0.1,6.7-0.5,10.2-1.8c3.5-1.3,6.2-2.6,8.1-3.9
		c1.9-1.3,3.1-2.2,3.4-2.9l3.9,7.8h14.9V62.3C143.9,53.9,141.7,48,137.2,44.6z M125.2,92c-0.7,0.5-1.4,0.8-1.9,1.1
		c-0.6,0.3-1.3,0.7-2.1,1.1c-0.8,0.4-1.7,0.8-2.7,1.2c-1,0.4-2,0.8-3,1.1c-1,0.3-2.1,0.6-3.3,0.8c-1.2,0.2-2.3,0.3-3.4,0.3
		c-2.1,0-3.8-0.4-5-1.3c-1.2-0.8-1.7-2.6-1.7-5.3v-3.5c0-0.9,0.1-1.7,0.2-2.4c0.1-0.7,0.4-1.4,0.8-2.1c0.4-0.7,1-1.3,1.8-1.8
		c0.8-0.5,1.8-0.8,2.9-0.9l17.3-1.3V92z"/>
</g>
<g>
	<path class="st1" d="M234.9,39.7c-8.7,0-17.2,3.1-25.6,9.2c-3.1-6.2-9.3-9.2-18.5-9.2c-2.4,0-4.6,0.2-6.5,0.6
		c-2,0.4-3.9,1.1-5.7,1.9c-1.8,0.9-3.3,1.7-4.3,2.3c-1,0.7-2.5,1.7-4.5,3c-0.4,0.4-0.8,0.6-1.1,0.8l-3.7-7.6h-15v71h18.7v-51
		c2-1.4,3.7-2.6,5.2-3.4c1.5-0.9,3.2-1.5,5.1-1.9c1.9-0.4,4-0.7,6.4-0.7c1.2,0,2.2,0.2,3.2,0.6s1.8,1,2.5,1.7c0.7,0.8,1.2,1.8,1.6,3
		c0.3,1.2,0.5,2.7,0.5,4.3v47.4h18.7V62.4c0-0.4,0-0.9-0.1-1.3c0-0.4-0.1-0.6-0.1-0.7c0.9-0.7,1.8-1.4,2.6-1.9
		c0.9-0.6,1.7-1.1,2.6-1.5c0.9-0.4,1.8-0.7,2.8-1c0.9-0.3,1.9-0.5,2.9-0.7c1-0.2,2.1-0.3,3.1-0.4c1.1-0.1,2.2-0.1,3.3-0.1
		c2.5,0,4.4,0.8,5.8,2.4c1.4,1.6,2.1,4,2.1,7.2v47.4h18.7V64.7C256.1,48,249,39.7,234.9,39.7z"/>
</g>
<path class="st1" d="M465.3,96.9v11.6c3.2,2.1,12.6,3.4,28.2,3.7V96.9H465.3z"/>
<path class="st1" d="M521.3,79.3c-0.7-2.2-1.8-4.1-3.3-5.8c-1.5-1.7-3.4-3-5.9-3.9c-2.5-0.9-5.3-1.4-8.6-1.4h-16.9
	c-1.9,0-3.3-0.3-4.1-0.7c-0.9-0.5-1.3-1.8-1.3-3.8v-3.2c0-1,0.1-1.7,0.2-2.3c0.1-0.5,0.4-1,0.7-1.5c0.4-0.4,0.9-0.8,1.7-0.9
	c0.8-0.2,1.7-0.3,2.9-0.3h32.2V43.7c-4.2-2.4-16.8-3.6-38-3.6c-12.3,0-18.5,6.4-18.5,19.1v6.2c0,6.7,1.7,11.5,5.1,14.6
	c3.4,3,8.4,4.6,14.9,4.6h16.6c1.2,0,2.2,0.2,2.9,0.5c0.7,0.4,1.2,0.9,1.4,1.5c0.1,0.2,0.1,0.5,0.2,0.7h18.9v-0.7
	C522.3,83.9,522,81.5,521.3,79.3z"/>
<path class="st0" d="M503.5,93.3c-0.3,2.2-1.6,3.4-4,3.6v15.5c1.7,0,3.5,0,5.4,0c1.3,0,2.6-0.1,3.9-0.3c9-1.5,13.5-7.6,13.5-18.3
	v-0.5H503.5z"/>
<path class="st1" d="M382.2,48.1c-4.7-5.3-13.1-8-25.4-8c-6.2,0-11.2,0.6-15.2,1.7c-4,1.2-7.3,3.2-10,6c-2.7,2.9-4.5,6.6-5.6,11.4
	c-1.1,4.7-1.6,10.8-1.6,18.1c0,5.2,0.3,9.6,1,13.4c0.7,3.8,1.8,7.1,3.3,9.9c1.5,2.8,3.5,5.1,6.1,6.8c2.5,1.7,5.6,3,9.2,3.8
	c3.6,0.9,7.9,1.3,12.8,1.3c12.4,0,20.9-2.5,25.5-7.6c4.6-5.1,6.9-14.3,6.9-27.6C389.2,63.2,386.9,53.4,382.2,48.1z M370.1,86.6
	c-0.3,2.4-0.7,4.3-1.3,5.8c-0.6,1.5-1.5,2.6-2.7,3.3c-1.2,0.7-2.5,1.2-3.7,1.3c-1.3,0.2-3.1,0.3-5.6,0.3c-2.8,0-4.9-0.2-6.4-0.5
	c-1.5-0.4-2.9-1.2-4.1-2.6c-1.2-1.4-2-3.4-2.5-6.1c-0.5-2.7-0.7-6.3-0.7-10.8c0-3.4,0.1-6.2,0.2-8.6c0.1-2.3,0.4-4.3,0.9-6
	c0.4-1.7,1-3,1.5-4c0.6-0.9,1.5-1.7,2.6-2.3c1.2-0.6,2.4-1,3.6-1.1c1.2-0.2,2.8-0.3,4.8-0.3c2.4,0,4.3,0.2,5.8,0.5
	c1.4,0.3,2.7,0.9,3.9,1.6c1.2,0.8,2,2,2.5,3.7c0.5,1.7,0.9,3.9,1.1,6.4c0.2,2.5,0.3,5.9,0.3,10C370.5,81.1,370.3,84.2,370.1,86.6z"
	/>
<path class="st1" d="M436.8,39.5c-2.6,0-4.9,0.2-7,0.6c-2.1,0.4-4.2,1.2-6.2,2.3c-2.1,1.1-3.5,2-4.5,2.5c-0.9,0.6-2.5,1.7-4.8,3.4
	l-3.7-7.6h-15v71h18.7V60.7c2-1.4,3.7-2.6,5.3-3.4c1.6-0.8,3.3-1.5,5.2-2c1.9-0.5,4.1-0.7,6.6-0.7s4.4,0.8,5.8,2.3
	c1.4,1.5,2.1,4,2.1,7.4v47.6h18.7V64.4C458.1,47.8,451,39.5,436.8,39.5z"/>
<path class="st1" d="M319.1,79.3c-0.7-2.2-1.8-4.1-3.3-5.8c-1.5-1.7-3.4-3-5.9-3.9c-2.5-0.9-5.3-1.4-8.6-1.4h-16.8
	c-1.9,0-3.3-0.3-4.2-0.7c-0.9-0.5-1.3-1.8-1.3-3.8v-3.2c0-1,0.1-1.7,0.2-2.3c0.1-0.5,0.4-1,0.7-1.5c0.4-0.4,0.9-0.8,1.7-0.9
	c0.8-0.2,1.7-0.3,2.9-0.3h32.2V43.7c-4.2-2.4-16.9-3.6-38-3.6c-12.3,0-18.5,6.4-18.5,19.1v6.2c0,6.7,1.7,11.5,5.1,14.6
	c3.4,3,8.3,4.6,14.9,4.6h16.6c1.2,0,2.2,0.2,2.9,0.5c0.7,0.4,1.2,0.9,1.4,1.5c0.2,0.6,0.3,1.5,0.3,2.5v3.4c0,3-1.6,4.5-4.7,4.5
	h-33.6v11.6c3.9,2.6,17.1,3.9,39.6,3.9c1.3,0,2.6-0.1,3.9-0.3c9-1.5,13.5-7.6,13.5-18.3v-7.4C320.2,83.9,319.9,81.5,319.1,79.3z"/>
<path class="st1" d="M584.2,48.1c-4.7-5.3-13.1-8-25.4-8c-6.2,0-11.2,0.6-15.2,1.7c-4,1.2-7.3,3.2-10,6c-2.7,2.9-4.6,6.6-5.6,11.4
	c-1.1,4.7-1.6,10.8-1.6,18.1c0,5.2,0.3,9.6,1,13.4c0.7,3.8,1.8,7.1,3.3,9.9c1.5,2.8,3.5,5.1,6.1,6.8c2.5,1.7,5.6,3,9.2,3.8
	c3.6,0.9,7.9,1.3,12.8,1.3c12.4,0,20.9-2.5,25.5-7.6c4.6-5.1,6.9-14.3,6.9-27.6C591.3,63.2,588.9,53.4,584.2,48.1z M572.1,86.6
	c-0.3,2.4-0.7,4.3-1.3,5.8c-0.6,1.5-1.5,2.6-2.7,3.3c-1.2,0.7-2.5,1.2-3.7,1.3c-1.3,0.2-3.1,0.3-5.6,0.3c-2.8,0-4.9-0.2-6.4-0.5
	c-1.5-0.4-2.9-1.2-4.1-2.6c-1.2-1.4-2-3.4-2.5-6.1c-0.5-2.7-0.7-6.3-0.7-10.8c0-3.4,0.1-6.2,0.2-8.6c0.1-2.3,0.4-4.3,0.9-6
	c0.4-1.7,1-3,1.5-4c0.6-0.9,1.5-1.7,2.6-2.3c1.2-0.6,2.4-1,3.6-1.1c1.2-0.2,2.8-0.3,4.8-0.3c2.4,0,4.3,0.2,5.8,0.5
	c1.4,0.3,2.7,0.9,3.9,1.6c1.2,0.8,2,2,2.5,3.7c0.5,1.7,0.9,3.9,1.1,6.4c0.2,2.5,0.3,5.9,0.3,10C572.5,81.1,572.4,84.2,572.1,86.6z"
	/>
<polygon class="st1" points="623.5,40.7 623.5,32.4 604.8,32.4 604.8,40.7 593.7,43 593.7,55.1 604.8,55.1 604.8,111.8 623.5,111.8 
	623.5,55.1 639.7,55.1 639.7,40.7 "/>
<path class="st1" d="M631.9,6.9v13.9l11.8,0.1V9.8C640.1,8.4,636.2,7.4,631.9,6.9z"/>
<path class="st0" d="M615.7,8.1c-2.8,1-4.9,2.5-6.5,4.4c-1.6,1.9-2.7,4.1-3.4,6.5c-0.6,2.1-1,4.5-1.1,7.2h19
	c0.1-0.4,0.1-0.9,0.2-1.4c0.2-1.2,0.6-2,1.1-2.4c0.2-0.2,0.5-0.3,0.7-0.5V6.6h0C621.8,6.6,618.5,7.1,615.7,8.1z"/>
<path class="st1" d="M688.9,54.9V40.6H673V20.8h-15.7l-3.1,19.8l-11.5,3.9v10.4h11.5v31.4c0,9,1.5,15.5,4.5,19.5
	c3,4,7.3,5.9,12.8,5.9H688v-11.5c-0.6,0-3.6-0.9-9-2.8c-1.3-0.5-2.4-1.2-3.2-1.9c-0.8-0.7-1.5-2.1-2-4.1c-0.5-2-0.8-4.7-0.8-8V54.9
	H688.9z"/>
<g>
	<path class="st2" d="M92.5,120.3v0.2h-4.4v12h-0.2v-12h-4.4v-0.2H92.5z"/>
	<path class="st2" d="M111.8,132.4h-0.2v-6.1h-8.2v6.1h-0.2v-12.1h0.2v5.9h8.2v-5.9h0.2V132.4z"/>
	<path class="st2" d="M131,120.3v0.2h-6.6v5.7h5.6v0.2h-5.6v5.9h6.7l0,0.2h-6.8v-12.1H131z"/>
	<path class="st2" d="M154.7,127.2v5.2h-0.2v-12.1h2.6c1.3,0,2.3,0.3,2.9,0.9c0.7,0.6,1,1.4,1,2.6c0,0.5-0.1,1-0.3,1.4
		c-0.2,0.4-0.5,0.8-0.8,1.1c-0.4,0.3-0.8,0.5-1.3,0.7c-0.5,0.2-1,0.3-1.6,0.3H154.7z M154.7,127h2.4c0.6,0,1.1-0.1,1.6-0.3
		c0.5-0.2,0.9-0.4,1.2-0.7c0.3-0.3,0.6-0.6,0.8-1c0.2-0.4,0.3-0.8,0.3-1.3c0-1.1-0.3-1.9-0.9-2.5c-0.6-0.6-1.6-0.8-2.8-0.8h-2.4V127
		z"/>
	<path class="st2" d="M182.2,126.3c0,1-0.1,1.8-0.4,2.6c-0.3,0.8-0.6,1.4-1.1,1.9c-0.5,0.5-1,0.9-1.7,1.2c-0.7,0.3-1.4,0.4-2.2,0.4
		c-0.8,0-1.5-0.1-2.2-0.4c-0.7-0.3-1.2-0.7-1.7-1.2c-0.5-0.5-0.8-1.2-1.1-1.9c-0.3-0.8-0.4-1.6-0.4-2.6c0-1,0.1-1.8,0.4-2.6
		c0.3-0.8,0.6-1.4,1.1-2s1-1,1.7-1.2s1.4-0.4,2.2-0.4c0.8,0,1.5,0.1,2.2,0.4c0.7,0.3,1.2,0.7,1.7,1.2c0.5,0.5,0.8,1.2,1.1,2
		C182.1,124.5,182.2,125.4,182.2,126.3z M182,126.3c0-0.9-0.1-1.8-0.4-2.5c-0.3-0.7-0.6-1.4-1.1-1.9c-0.5-0.5-1-0.9-1.6-1.2
		c-0.6-0.3-1.3-0.4-2.1-0.4c-0.8,0-1.5,0.1-2.1,0.4c-0.6,0.3-1.2,0.7-1.6,1.2c-0.5,0.5-0.8,1.2-1.1,1.9c-0.3,0.7-0.4,1.6-0.4,2.5
		c0,0.9,0.1,1.8,0.4,2.5c0.3,0.7,0.6,1.4,1.1,1.9c0.5,0.5,1,0.9,1.6,1.2c0.6,0.3,1.3,0.4,2.1,0.4c0.8,0,1.5-0.1,2.1-0.4
		c0.6-0.3,1.2-0.7,1.6-1.2c0.5-0.5,0.8-1.1,1.1-1.9C181.9,128.1,182,127.3,182,126.3z"/>
	<path class="st2" d="M192,120.3h0.2c0.1,0,0.1,0,0.1,0.1l3.4,11.3c0,0.1,0.1,0.2,0.1,0.2c0,0.1,0,0.1,0.1,0.2c0-0.1,0-0.2,0.1-0.2
		c0-0.1,0-0.1,0.1-0.2l3.8-11.3c0-0.1,0.1-0.1,0.1-0.1h0.1c0.1,0,0.1,0,0.1,0.1l3.8,11.3c0.1,0.2,0.1,0.3,0.1,0.5
		c0-0.2,0.1-0.3,0.1-0.5l3.4-11.3c0-0.1,0.1-0.1,0.1-0.1h0.1l-3.7,12.1h-0.2l-3.9-11.7c0-0.1-0.1-0.2-0.1-0.3c0,0.1,0,0.2-0.1,0.3
		l-3.9,11.7h-0.2L192,120.3z"/>
	<path class="st2" d="M225,120.3v0.2h-6.6v5.7h5.6v0.2h-5.6v5.9h6.7l0,0.2h-6.8v-12.1H225z"/>
	<path class="st2" d="M237.1,126.5v5.9h-0.2v-12.1h2.7c1.2,0,2.2,0.2,2.8,0.7c0.7,0.5,1,1.3,1,2.3c0,0.5-0.1,0.9-0.3,1.3
		c-0.2,0.4-0.4,0.7-0.8,1c-0.3,0.3-0.7,0.5-1.2,0.7c-0.5,0.2-1,0.2-1.5,0.3c0.1,0,0.1,0.1,0.2,0.1s0.1,0.1,0.1,0.1l4.6,5.6h-0.1
		c0,0-0.1,0-0.1,0c0,0-0.1,0-0.1-0.1l-4.4-5.4c-0.1-0.1-0.1-0.1-0.1-0.2c0,0-0.1-0.1-0.2-0.1c-0.1,0-0.1,0-0.2,0c-0.1,0-0.2,0-0.3,0
		H237.1z M237.1,126.4h2.4c0.6,0,1.1-0.1,1.5-0.2c0.5-0.1,0.9-0.3,1.2-0.6c0.3-0.3,0.6-0.6,0.8-1c0.2-0.4,0.3-0.8,0.3-1.3
		c0-1-0.3-1.7-0.9-2.2s-1.5-0.7-2.7-0.7h-2.5V126.4z"/>
	<path class="st2" d="M274.2,120.3v0.2h-4.4v12h-0.2v-12h-4.4v-0.2H274.2z"/>
	<path class="st2" d="M293.8,126.3c0,1-0.1,1.8-0.4,2.6c-0.3,0.8-0.6,1.4-1.1,1.9c-0.5,0.5-1,0.9-1.7,1.2c-0.7,0.3-1.4,0.4-2.2,0.4
		c-0.8,0-1.5-0.1-2.2-0.4c-0.7-0.3-1.2-0.7-1.7-1.2c-0.5-0.5-0.8-1.2-1.1-1.9c-0.3-0.8-0.4-1.6-0.4-2.6c0-1,0.1-1.8,0.4-2.6
		c0.3-0.8,0.6-1.4,1.1-2s1-1,1.7-1.2c0.7-0.3,1.4-0.4,2.2-0.4c0.8,0,1.5,0.1,2.2,0.4c0.7,0.3,1.2,0.7,1.7,1.2c0.5,0.5,0.8,1.2,1.1,2
		C293.7,124.5,293.8,125.4,293.8,126.3z M293.6,126.3c0-0.9-0.1-1.8-0.4-2.5c-0.3-0.7-0.6-1.4-1.1-1.9c-0.5-0.5-1-0.9-1.6-1.2
		c-0.6-0.3-1.3-0.4-2.1-0.4c-0.8,0-1.5,0.1-2.1,0.4c-0.6,0.3-1.2,0.7-1.6,1.2c-0.5,0.5-0.8,1.2-1.1,1.9c-0.3,0.7-0.4,1.6-0.4,2.5
		c0,0.9,0.1,1.8,0.4,2.5c0.3,0.7,0.6,1.4,1.1,1.9c0.5,0.5,1,0.9,1.6,1.2c0.6,0.3,1.3,0.4,2.1,0.4c0.8,0,1.5-0.1,2.1-0.4
		c0.6-0.3,1.2-0.7,1.6-1.2c0.5-0.5,0.8-1.1,1.1-1.9C293.5,128.1,293.6,127.3,293.6,126.3z"/>
	<path class="st2" d="M322.5,129.6C322.5,129.6,322.6,129.7,322.5,129.6c0.1,0.1,0.1,0.1,0.1,0.2c0,0,0-0.1,0-0.1c0,0,0-0.1,0-0.1
		l5.1-9.3c0,0,0.1-0.1,0.1-0.1h0.1v12.1h-0.2v-11.6c0,0,0-0.1,0-0.1c0,0,0-0.1,0-0.1l-5.1,9.3c0,0.1-0.1,0.1-0.1,0.1h-0.1
		c0,0-0.1,0-0.1-0.1l-5.3-9.3c0,0,0,0.1,0,0.1s0,0.1,0,0.1v11.6H317v-12.1h0.1c0.1,0,0.1,0,0.1,0.1L322.5,129.6z"/>
	<path class="st2" d="M348.5,132.4h-0.2c0,0-0.1,0-0.1-0.1l-1.6-4.1h-6.2l-1.6,4.1c0,0.1-0.1,0.1-0.1,0.1h-0.1l4.9-12.1h0.2
		L348.5,132.4z M340.5,128.1h6l-2.9-7.2c0-0.1-0.1-0.1-0.1-0.2c0-0.1,0-0.1-0.1-0.2c0,0.1,0,0.1-0.1,0.2c0,0.1,0,0.1-0.1,0.2
		L340.5,128.1z"/>
	<path class="st2" d="M359.5,126.1h0.8c0.1,0,0.2,0,0.3,0c0.1,0,0.1,0,0.2,0c0.1,0,0.1-0.1,0.2-0.1c0.1,0,0.1-0.1,0.2-0.2l5.4-5.4
		c0.1-0.1,0.1-0.1,0.2-0.1c0,0,0.1,0,0.2,0h0.1l-5.7,5.7c-0.1,0.1-0.2,0.2-0.2,0.2c-0.1,0-0.2,0.1-0.3,0.1c0.1,0,0.2,0,0.3,0.1
		c0.1,0,0.1,0.1,0.2,0.2l6,5.9h-0.1c-0.1,0-0.1,0-0.2,0c0,0-0.1,0-0.1-0.1l-5.7-5.6c-0.1-0.1-0.2-0.1-0.2-0.2
		c-0.1,0-0.1-0.1-0.2-0.1c-0.1,0-0.1,0-0.2,0c-0.1,0-0.2,0-0.3,0h-0.8v6.1h-0.2v-12.2h0.2V126.1z"/>
	<path class="st2" d="M384.9,120.3v0.2h-6.6v5.7h5.6v0.2h-5.6v5.9h6.7l0,0.2h-6.8v-12.1H384.9z"/>
	<path class="st2" d="M416.1,132.4H416c0,0-0.1,0-0.1-0.1l-1.6-4.1h-6.2l-1.6,4.1c0,0.1-0.1,0.1-0.1,0.1h-0.1l4.9-12.1h0.2
		L416.1,132.4z M408.2,128.1h6l-2.9-7.2c0-0.1-0.1-0.1-0.1-0.2c0-0.1,0-0.1-0.1-0.2c0,0.1,0,0.1-0.1,0.2c0,0.1,0,0.1-0.1,0.2
		L408.2,128.1z"/>
	<path class="st2" d="M443.1,132.4c0.5,0,0.9,0,1.3-0.1c0.4-0.1,0.7-0.1,1.1-0.2c0.3-0.1,0.7-0.2,0.9-0.4c0.3-0.2,0.6-0.3,0.9-0.5
		v-3.8h-2.6c-0.1,0-0.1,0-0.1-0.1v-0.1h2.9v4c-0.3,0.2-0.6,0.4-0.9,0.6c-0.3,0.2-0.6,0.3-1,0.4c-0.4,0.1-0.7,0.2-1.2,0.3
		c-0.4,0.1-0.9,0.1-1.4,0.1c-0.8,0-1.6-0.1-2.3-0.4c-0.7-0.3-1.3-0.7-1.8-1.2c-0.5-0.5-0.9-1.2-1.1-2c-0.3-0.8-0.4-1.6-0.4-2.6
		c0-1,0.1-1.8,0.4-2.6c0.3-0.8,0.7-1.4,1.2-2s1.1-1,1.8-1.2s1.5-0.4,2.4-0.4c0.4,0,0.8,0,1.2,0.1c0.4,0.1,0.7,0.1,1,0.3
		c0.3,0.1,0.6,0.3,0.9,0.4c0.3,0.2,0.5,0.4,0.8,0.6l0,0c0,0,0,0-0.1,0c0,0-0.1-0.1-0.3-0.2c-0.1-0.1-0.4-0.3-0.7-0.5
		c-0.3-0.2-0.7-0.3-1.1-0.5c-0.5-0.1-1-0.2-1.7-0.2c-0.8,0-1.6,0.1-2.3,0.4c-0.7,0.3-1.3,0.7-1.8,1.2c-0.5,0.5-0.9,1.2-1.1,1.9
		c-0.3,0.7-0.4,1.6-0.4,2.5c0,0.9,0.1,1.8,0.4,2.5c0.3,0.7,0.6,1.4,1.1,1.9c0.5,0.5,1,0.9,1.7,1.2
		C441.6,132.2,442.3,132.4,443.1,132.4z"/>
	<path class="st2" d="M459.9,126.5v5.9h-0.2v-12.1h2.7c1.2,0,2.2,0.2,2.8,0.7c0.7,0.5,1,1.3,1,2.3c0,0.5-0.1,0.9-0.3,1.3
		c-0.2,0.4-0.4,0.7-0.8,1c-0.3,0.3-0.7,0.5-1.2,0.7s-1,0.2-1.5,0.3c0.1,0,0.1,0.1,0.2,0.1c0,0,0.1,0.1,0.1,0.1l4.6,5.6h-0.1
		c0,0-0.1,0-0.1,0c0,0-0.1,0-0.1-0.1l-4.4-5.4c-0.1-0.1-0.1-0.1-0.1-0.2c0,0-0.1-0.1-0.2-0.1c-0.1,0-0.1,0-0.2,0c-0.1,0-0.2,0-0.3,0
		H459.9z M459.9,126.4h2.4c0.6,0,1.1-0.1,1.5-0.2c0.5-0.1,0.9-0.3,1.2-0.6c0.3-0.3,0.6-0.6,0.8-1c0.2-0.4,0.3-0.8,0.3-1.3
		c0-1-0.3-1.7-0.9-2.2s-1.5-0.7-2.7-0.7h-2.5V126.4z"/>
	<path class="st2" d="M484.9,120.3v0.2h-6.6v5.7h5.6v0.2h-5.6v5.9h6.7l0,0.2H478v-12.1H484.9z"/>
	<path class="st2" d="M504.5,132.4h-0.2c0,0-0.1,0-0.1-0.1l-1.6-4.1h-6.2l-1.6,4.1c0,0.1-0.1,0.1-0.1,0.1h-0.1l4.9-12.1h0.2
		L504.5,132.4z M496.5,128.1h6l-2.9-7.2c0-0.1-0.1-0.1-0.1-0.2c0-0.1,0-0.1-0.1-0.2c0,0.1,0,0.1-0.1,0.2c0,0.1,0,0.1-0.1,0.2
		L496.5,128.1z"/>
	<path class="st2" d="M521.6,120.3v0.2h-4.4v12H517v-12h-4.4v-0.2H521.6z"/>
	<path class="st2" d="M549.2,121.4C549.2,121.4,549.1,121.4,549.2,121.4c-0.1,0.1-0.2,0-0.3-0.1c-0.1-0.1-0.3-0.2-0.5-0.4
		c-0.2-0.1-0.5-0.3-0.8-0.4c-0.3-0.1-0.7-0.2-1.2-0.2c-0.5,0-0.9,0.1-1.3,0.2c-0.4,0.2-0.7,0.4-0.9,0.6c-0.3,0.3-0.4,0.5-0.6,0.9
		s-0.2,0.7-0.2,1.1c0,0.5,0.1,0.9,0.3,1.2c0.2,0.3,0.4,0.6,0.7,0.8c0.3,0.2,0.6,0.4,1,0.5c0.4,0.1,0.7,0.3,1.1,0.4
		c0.4,0.1,0.8,0.3,1.1,0.4c0.4,0.1,0.7,0.3,1,0.6c0.3,0.2,0.5,0.5,0.7,0.8c0.2,0.3,0.3,0.7,0.3,1.2c0,0.5-0.1,1-0.2,1.4
		c-0.2,0.4-0.4,0.8-0.7,1.1c-0.3,0.3-0.7,0.6-1.1,0.8c-0.4,0.2-1,0.3-1.5,0.3c-0.4,0-0.8,0-1.1-0.1c-0.3-0.1-0.6-0.2-0.9-0.3
		c-0.3-0.1-0.5-0.3-0.7-0.5c-0.2-0.2-0.4-0.4-0.6-0.7l0,0c0,0,0,0,0,0c0,0,0,0,0.1,0c0,0,0.1,0,0.1,0.1c0.1,0.1,0.2,0.2,0.3,0.3
		c0.1,0.1,0.2,0.2,0.4,0.4s0.3,0.2,0.6,0.4c0.2,0.1,0.5,0.2,0.8,0.3c0.3,0.1,0.6,0.1,1,0.1c0.5,0,1-0.1,1.4-0.3
		c0.4-0.2,0.8-0.4,1.1-0.7c0.3-0.3,0.5-0.7,0.7-1.1c0.2-0.4,0.2-0.8,0.2-1.3c0-0.4-0.1-0.7-0.2-1c-0.1-0.3-0.3-0.5-0.5-0.7
		c-0.2-0.2-0.4-0.4-0.7-0.5c-0.3-0.1-0.5-0.3-0.8-0.4c-0.3-0.1-0.6-0.2-0.9-0.3c-0.3-0.1-0.6-0.2-0.9-0.3c-0.3-0.1-0.6-0.2-0.8-0.4
		c-0.3-0.1-0.5-0.3-0.7-0.5c-0.2-0.2-0.3-0.5-0.5-0.8c-0.1-0.3-0.2-0.6-0.2-1c0-0.4,0.1-0.8,0.2-1.1c0.1-0.4,0.3-0.7,0.6-0.9
		c0.3-0.3,0.6-0.5,1-0.7c0.4-0.2,0.8-0.2,1.3-0.2c0.6,0,1.1,0.1,1.5,0.3C548.4,120.6,548.8,120.9,549.2,121.4L549.2,121.4z"/>
	<path class="st2" d="M570.9,126.3c0,1-0.1,1.8-0.4,2.6c-0.3,0.8-0.6,1.4-1.1,1.9c-0.5,0.5-1,0.9-1.7,1.2c-0.7,0.3-1.4,0.4-2.2,0.4
		c-0.8,0-1.5-0.1-2.2-0.4c-0.7-0.3-1.2-0.7-1.7-1.2c-0.5-0.5-0.8-1.2-1.1-1.9c-0.3-0.8-0.4-1.6-0.4-2.6c0-1,0.1-1.8,0.4-2.6
		c0.3-0.8,0.6-1.4,1.1-2c0.5-0.5,1-1,1.7-1.2c0.7-0.3,1.4-0.4,2.2-0.4c0.8,0,1.5,0.1,2.2,0.4c0.7,0.3,1.2,0.7,1.7,1.2s0.8,1.2,1.1,2
		C570.7,124.5,570.9,125.4,570.9,126.3z M570.7,126.3c0-0.9-0.1-1.8-0.4-2.5c-0.3-0.7-0.6-1.4-1.1-1.9c-0.5-0.5-1-0.9-1.6-1.2
		c-0.6-0.3-1.3-0.4-2.1-0.4c-0.8,0-1.5,0.1-2.1,0.4c-0.6,0.3-1.2,0.7-1.6,1.2c-0.5,0.5-0.8,1.2-1.1,1.9c-0.3,0.7-0.4,1.6-0.4,2.5
		c0,0.9,0.1,1.8,0.4,2.5c0.3,0.7,0.6,1.4,1.1,1.9c0.5,0.5,1,0.9,1.6,1.2c0.6,0.3,1.3,0.4,2.1,0.4c0.8,0,1.5-0.1,2.1-0.4
		c0.6-0.3,1.2-0.7,1.6-1.2c0.5-0.5,0.8-1.1,1.1-1.9C570.5,128.1,570.7,127.3,570.7,126.3z"/>
	<path class="st2" d="M589.3,120.3v0.2h-6.6v5.9h5.8v0.2h-5.8v5.9h-0.2v-12.1H589.3z"/>
	<path class="st2" d="M607.8,120.3v0.2h-4.4v12h-0.2v-12h-4.4v-0.2H607.8z"/>
	<path class="st2" d="M616.7,120.3h0.2c0.1,0,0.1,0,0.1,0.1l3.4,11.3c0,0.1,0.1,0.2,0.1,0.2c0,0.1,0,0.1,0.1,0.2
		c0-0.1,0-0.2,0.1-0.2c0-0.1,0-0.1,0.1-0.2l3.8-11.3c0-0.1,0.1-0.1,0.1-0.1h0.1c0.1,0,0.1,0,0.1,0.1l3.8,11.3
		c0.1,0.2,0.1,0.3,0.1,0.5c0-0.2,0.1-0.3,0.1-0.5l3.4-11.3c0-0.1,0.1-0.1,0.1-0.1h0.1l-3.7,12.1h-0.2l-3.9-11.7
		c0-0.1-0.1-0.2-0.1-0.3c0,0.1,0,0.2-0.1,0.3l-3.9,11.7h-0.2L616.7,120.3z"/>
	<path class="st2" d="M650.7,132.4h-0.2c0,0-0.1,0-0.1-0.1l-1.6-4.1h-6.2l-1.6,4.1c0,0.1-0.1,0.1-0.1,0.1h-0.1l4.9-12.1h0.2
		L650.7,132.4z M642.7,128.1h6l-2.9-7.2c0-0.1-0.1-0.1-0.1-0.2c0-0.1,0-0.1-0.1-0.2c0,0.1,0,0.1-0.1,0.2c0,0.1,0,0.1-0.1,0.2
		L642.7,128.1z"/>
	<path class="st2" d="M661.7,126.5v5.9h-0.2v-12.1h2.7c1.2,0,2.2,0.2,2.8,0.7c0.7,0.5,1,1.3,1,2.3c0,0.5-0.1,0.9-0.3,1.3
		s-0.4,0.7-0.8,1c-0.3,0.3-0.7,0.5-1.2,0.7c-0.5,0.2-1,0.2-1.5,0.3c0.1,0,0.1,0.1,0.2,0.1c0,0,0.1,0.1,0.1,0.1l4.6,5.6h-0.1
		c0,0-0.1,0-0.1,0c0,0-0.1,0-0.1-0.1l-4.4-5.4c-0.1-0.1-0.1-0.1-0.1-0.2c0,0-0.1-0.1-0.2-0.1c-0.1,0-0.1,0-0.2,0c-0.1,0-0.2,0-0.3,0
		H661.7z M661.7,126.4h2.4c0.6,0,1.1-0.1,1.5-0.2c0.5-0.1,0.9-0.3,1.2-0.6c0.3-0.3,0.6-0.6,0.8-1c0.2-0.4,0.3-0.8,0.3-1.3
		c0-1-0.3-1.7-0.9-2.2s-1.5-0.7-2.7-0.7h-2.5V126.4z"/>
	<path class="st2" d="M686.7,120.3v0.2h-6.6v5.7h5.6v0.2h-5.6v5.9h6.7l0,0.2h-6.8v-12.1H686.7z"/>
</g>
</svg>
