<?xml version="1.0" encoding="utf-8"?>
<!-- Generator: Adobe Illustrator 21.0.0, SVG Export Plug-In . SVG Version: 6.00 Build 0)  -->
<svg version="1.1" id="f921693e-33a8-40f4-b606-3710578972cc"
	 xmlns="http://www.w3.org/2000/svg" xmlns:xlink="http://www.w3.org/1999/xlink" x="0px" y="0px" viewBox="0 0 859.4 767.8"
	 style="enable-background:new 0 0 859.4 767.8;" xml:space="preserve">
<style type="text/css">
	.st0{opacity:0.2;fill:url(#SVGID_1_);}
	.st1{opacity:0.8;}
	.st2{fill:#94989B;}
	.st3{enable-background:new    ;}
	.st4{fill:url(#SVGID_2_);}
	.st5{fill:url(#SVGID_3_);}
	.st6{fill:url(#SVGID_4_);}
	.st7{opacity:0.6;fill:none;stroke:#FFFFFF;stroke-width:1.3562;stroke-miterlimit:10;}
	.st8{fill:#8D9391;}
	.st9{fill:#606060;}
	.st10{fill:#EBEBEB;}
	.st11{fill:#FFFFFF;}
	.st12{fill:#D5D4D3;}
	.st13{fill:#C3BFBE;}
	.st14{opacity:0.3;fill:url(#SVGID_5_);}
	.st15{opacity:0.3;fill:url(#SVGID_6_);}
	.st16{fill:#12B1ED;}
	.st17{fill:#D9D8D7;}
	.st18{fill:#18BCEF;}
	.st19{clip-path:url(#SVGID_8_);fill:url(#SVGID_9_);}
	.st20{clip-path:url(#SVGID_8_);fill:none;}
	.st21{fill:#602A26;}
	.st22{fill:#32292F;}
	.st23{fill:#6D332C;}
	.st24{fill:#414042;}
	.st25{fill:none;stroke:#271E23;stroke-width:3.4852;stroke-miterlimit:10;}
	.st26{opacity:0.3;fill:#271E23;}
	.st27{fill:#271E23;}
	.st28{fill:#E0E6F2;}
	.st29{fill:#7F3D30;}
	.st30{fill:#FFA969;}
	.st31{fill:#E2795D;}
	.st32{fill:#FFFFFF;stroke:#ED784A;stroke-width:1.2596;stroke-linecap:round;stroke-linejoin:round;stroke-miterlimit:10;}
	.st33{fill:#FF8A54;}
	.st34{fill:#692415;}
	.st35{fill:#AA5330;}
	.st36{fill:#D83C30;}
	.st37{opacity:0.3;fill:#32292F;}
	.st38{fill:#602925;}
	.st39{fill:#893F36;}
	.st40{fill:#CEEAE7;}
	.st41{opacity:0.7;fill:#8A91AA;}
	.st42{fill:#9DB6C1;}
	.st43{fill:#FF0000;}
	.st44{fill:#FFFFFF;stroke:#000000;stroke-width:0.5;stroke-miterlimit:10;}
	.st45{fill:url(#SVGID_10_);}
	.st46{fill:#231F20;}
	.st47{fill:#9998A0;}
	.st48{fill:#D9D9D9;}
	.st49{fill:url(#SVGID_11_);}
	.st50{fill:url(#SVGID_12_);}
	.st51{opacity:0.39;fill:#231F20;}
	.st52{opacity:0.5;fill:#4D8AF0;enable-background:new    ;}
	.st53{opacity:0.5;fill:#F55F44;enable-background:new    ;}
	.st54{opacity:0.5;fill:#47E6B1;enable-background:new    ;}
	.st55{opacity:0.5;}
	.st56{fill:#47E6B1;}
	.st57{opacity:0.1;enable-background:new    ;}
	.st58{opacity:0.7;}
	.st59{fill:url(#SVGID_13_);}
	.st60{fill:#3AD29F;}
	.st61{fill:#266AFB;}
	.st62{fill:#FFB9B9;}
	.st63{fill:#575A89;}
	.st64{fill:#063E66;}
	.st65{fill:#2F2E41;}
	.st66{font-family:'MyriadPro-Regular';}
	.st67{font-size:12px;}
</style>
<radialGradient id="SVGID_1_" cx="85.7824" cy="-363.6184" r="321.8735" gradientTransform="matrix(1.2898 0 0 1.2898 247.7092 1178.175)" gradientUnits="userSpaceOnUse">
	<stop  offset="0" style="stop-color:#231F20"/>
	<stop  offset="1" style="stop-color:#FFFFFF"/>
</radialGradient>
<polygon class="st0" points="179.6,735 62.3,691.7 4.1,636.6 430.3,555.2 579.5,647.3 "/>
<g>
	<g class="st1">
		<path class="st2" d="M179.8,735.9c-0.4,0-0.8-0.2-1-0.5L115.1,658c-0.3-0.4-0.4-0.9-0.2-1.4s0.7-0.8,1.2-0.8
			c0,0,462-10.2,462-10.2c0.7,0,1.2,0.5,1.3,1.2c0.1,0.7-0.4,1.3-1,1.4l-397.1,87.6c-0.1,0-0.2,0-0.3,0H179.8z"/>
		<path class="st2" d="M578.2,647l-397.1,87.6h-1.3l-63.6-77.4L578.2,647 M578.2,644.4C578.1,644.4,578.1,644.4,578.2,644.4
			l-462.1,10.2c-1,0-1.9,0.6-2.3,1.5c-0.4,0.9-0.3,2,0.4,2.8l63.6,77.4c0.5,0.6,1.2,1,2,1h1.3c0.2,0,0.4,0,0.6-0.1l397.1-87.6
			c1.3-0.3,2.2-1.5,2-2.9C580.6,645.4,579.5,644.4,578.2,644.4L578.2,644.4z"/>
	</g>
</g>
<g class="st3">
	<linearGradient id="SVGID_2_" gradientUnits="userSpaceOnUse" x1="77.9782" y1="4.0419" x2="211.2708" y2="729.7466">
		<stop  offset="0" style="stop-color:#D9D9D7"/>
		<stop  offset="1" style="stop-color:#C2BEBD"/>
	</linearGradient>
	<polygon class="st4" points="178,733.4 115.7,658.6 115.7,82.2 178,99.5 	"/>
</g>
<linearGradient id="SVGID_3_" gradientUnits="userSpaceOnUse" x1="366.0946" y1="-5.54" x2="326.7141" y2="173.6416">
	<stop  offset="0" style="stop-color:#EBECEE"/>
	<stop  offset="1" style="stop-color:#E4E5E9"/>
</linearGradient>
<polygon class="st5" points="478,68 212.8,77.7 116.2,81.3 181.1,97.2 445,85.7 578.2,79.9 "/>
<radialGradient id="SVGID_4_" cx="-143.1515" cy="-959.2996" r="961.2158" gradientTransform="matrix(1.2898 0 0 1.2898 247.7092 1178.175)" gradientUnits="userSpaceOnUse">
	<stop  offset="0.1586" style="stop-color:#F5F6F8"/>
	<stop  offset="1" style="stop-color:#EBECF0"/>
</radialGradient>
<polygon class="st6" points="445,85.7 181.1,97.2 181.1,734.6 578.2,647 578.2,79.9 "/>
<line class="st7" x1="181.4" y1="97.6" x2="578.2" y2="79.9"/>
<g>
	<polyline class="st8" points="181.7,99.6 181.7,734.6 177.8,733.4 177.8,100 	"/>
	<polygon class="st9" points="116.2,81.3 116.1,82.4 142.4,92 177.5,98.8 181.7,99.6 181.7,97.2 	"/>
</g>
<g>
	<polygon class="st10" points="176.7,127.6 176.7,719.9 179,720.1 179,127.3 	"/>
	<polyline class="st11" points="175.5,127.6 178,99.6 142.2,92 115.6,82.7 116,81.9 143.2,90.3 178.2,98.1 181.7,98.5 181.7,127.3 	
		"/>
</g>
<rect x="174.7" y="99.6" class="st12" width="7" height="37.3"/>
<polygon class="st13" points="175.4,730.2 179.4,735 181.6,734.4 181.6,696.1 177.8,695.9 173.7,691.3 "/>
<linearGradient id="SVGID_5_" gradientUnits="userSpaceOnUse" x1="172.8618" y1="118.2567" x2="183.7188" y2="118.2567">
	<stop  offset="9.417890e-02" style="stop-color:#FFFFFF"/>
	<stop  offset="0.1125" style="stop-color:#FFFFFF"/>
	<stop  offset="0.1971" style="stop-color:#F8F8F8"/>
	<stop  offset="0.3227" style="stop-color:#E4E4E4"/>
	<stop  offset="0.4739" style="stop-color:#C4C3C3"/>
	<stop  offset="0.6449" style="stop-color:#979595"/>
	<stop  offset="0.8301" style="stop-color:#5E5B5B"/>
	<stop  offset="1" style="stop-color:#231F20"/>
</linearGradient>
<rect x="174.7" y="99.6" class="st14" width="7" height="37.3"/>
<linearGradient id="SVGID_6_" gradientUnits="userSpaceOnUse" x1="174.8012" y1="713.1168" x2="182.5347" y2="713.1168">
	<stop  offset="0.1125" style="stop-color:#FFFFFF"/>
	<stop  offset="0.1939" style="stop-color:#F6F6F6"/>
	<stop  offset="0.3252" style="stop-color:#DFDEDF"/>
	<stop  offset="0.4901" style="stop-color:#B9B8B8"/>
	<stop  offset="0.682" style="stop-color:#848282"/>
	<stop  offset="0.8943" style="stop-color:#413E3F"/>
	<stop  offset="0.9837" style="stop-color:#231F20"/>
</linearGradient>
<polygon class="st15" points="175.4,730.2 179.4,735 181.6,734.4 181.6,696.1 177.8,695.9 173.7,691.3 "/>
<polygon class="st16" points="176.7,552.3 115.7,494.9 115.7,276.4 176.7,312.6 "/>
<g>
	<path class="st17" d="M150.5,327.7l5.8,3.7v1.7l-2.7,1.1c-0.6,0.3-1.4,0.6-2,0.7v0c0.9,0.4,1.7,0.9,2.7,1.5l2.1,1.4v1.6l-5.8-3.8
		V334l2.8-1.2c0.6-0.3,1.2-0.5,2-0.6v0c-0.8-0.4-1.5-0.8-2.8-1.6l-2-1.3V327.7z"/>
	<path class="st17" d="M152.5,343.1c-1.3-0.8-1.5,0.3-1.5,1.6c0,0.8,0.1,1.5,0.2,2l-0.5,0c-0.1-0.7-0.2-1.7-0.2-2.6
		c0-2.7,0.8-3.5,2.1-2.7c1.3,0.9,2.2,3,2.2,5.2c0,2.3-0.9,2.6-1.8,2c-0.2-0.1-0.3-0.2-0.4-0.3V343.1z M153,347
		c0.8,0.6,1.2,0,1.2-0.9c0-1.2-0.6-2.2-1.2-2.6V347z"/>
	<path class="st17" d="M154.7,355l-2-0.3c-0.4-0.1-0.9-0.1-1.3-0.3v0.1c0.4,0.5,0.9,1.1,1.3,1.6l2.1,2.7v1.4l-2-0.1
		c-0.5,0-0.9-0.1-1.4-0.2v0.1c0.4,0.4,0.9,0.9,1.3,1.5l2,2.5v1.8l-4.1-5.7v-1.5l2,0.1c0.4,0,0.8,0.1,1.2,0.2v0
		c-0.5-0.5-0.9-1-1.3-1.5l-2-2.7V353l4.1,0.1V355z"/>
	<path class="st17" d="M151.3,373c-0.1,0.4-0.2,1.3-0.2,2.1c0,1.6,0.4,2.9,1,3.3c0.5,0.4,0.9-0.2,1.2-1.2c0.3-1,0.9-2.3,1.6-1.8
		c0.9,0.6,1.5,2.7,1.5,5.2c0,1-0.1,1.8-0.2,2.1l-0.6-0.9c0.1-0.3,0.2-0.9,0.2-1.7c0-1.5-0.4-2.6-0.8-2.9c-0.6-0.4-0.8,0.2-1.2,1.5
		c-0.5,1.5-1,2-1.7,1.5c-1-0.7-1.6-3.1-1.6-5.5c0-1.1,0.1-2.1,0.2-2.5L151.3,373z"/>
	<path class="st17" d="M152.6,391.8c-1.6-1.2-2.1-3.6-2.1-5.3c0-2,0.7-3.1,2.1-2.1c1.5,1.1,2.2,3.4,2.2,5.3
		C154.7,391.8,154,392.9,152.6,391.8z M152.6,386.3c-0.7-0.5-1.6-0.8-1.6,0.8c0,1.5,1,2.5,1.6,3c0.6,0.5,1.6,0.9,1.6-0.7
		C154.2,387.7,153.2,386.7,152.6,386.3z"/>
	<path class="st17" d="M150.5,395l3.6,2.7v-1.4l0.5,0.4v1.4l0.2,0.2c0.4,0.3,0.9,0.9,1.3,1.9c0.3,0.9,0.4,1.8,0.4,2.5
		c0,0.6,0,1-0.1,1.3l-0.5-0.7c0-0.2,0.1-0.5,0.1-0.9c0-1.3-0.5-2-1.1-2.4l-0.3-0.2v2l-0.5-0.4v-2l-3.6-2.7V395z"/>
	<path class="st17" d="M155.8,408.5l-1.1-0.8v2.2l-0.5-0.4v-2.2l-2.5-1.9c-0.5-0.4-0.7,0-0.7,0.7c0,0.3,0,0.5,0,0.7l-0.5-0.3
		c0-0.4-0.1-0.8-0.1-1.4c0-0.7,0.1-1.3,0.2-1.6c0.2-0.3,0.5-0.3,1,0.1l2.4,1.8v-1.4l0.5,0.4v1.4l0.9,0.7L155.8,408.5z"/>
	<path class="st17" d="M154.7,414.9l-2-0.5c-0.4-0.1-0.9-0.2-1.3-0.4v0.1c0.4,0.5,0.9,1.1,1.3,1.7l2.1,2.9v1.4l-2-0.3
		c-0.5-0.1-0.9-0.2-1.4-0.3v0.1c0.4,0.5,0.9,1,1.3,1.6l2,2.6v1.8l-4.1-6.1V418l2,0.3c0.4,0,0.8,0.2,1.2,0.3v0
		c-0.5-0.6-0.9-1.1-1.3-1.6l-2-2.9v-1.5l4.1,0.4V414.9z"/>
	<path class="st17" d="M150.5,430.4l0.4,0.2v-0.1c-0.3-0.7-0.5-1.7-0.5-2.6c0-1.5,0.5-2.3,1.2-1.7c1,0.8,1.5,3.4,1.5,6l0.1,0.1
		c0.6,0.4,0.9,0.4,0.9-1c0-0.7-0.1-1.4-0.2-2l0.5,0c0.1,0.6,0.3,1.7,0.3,2.8c0,2.3-0.6,2.8-1.5,2.1l-1.8-1.4
		c-0.3-0.3-0.7-0.5-0.9-0.6V430.4z M152.6,431.9c0-0.9-0.1-3.1-1-3.8c-0.5-0.4-0.7,0.2-0.7,0.8c0,0.8,0.2,1.6,0.6,2.2
		c0.1,0.1,0.2,0.2,0.2,0.2L152.6,431.9z"/>
	<path class="st17" d="M153.6,439.2c0.4,0.3,0.8,0.5,1.1,0.8v1.6l-0.7-0.4v0c0.4,0.7,0.7,1.9,0.7,3c0,0.1,0,0.2,0,0.4L154,444
		c0-0.1,0-0.2,0-0.4c0-1.1-0.4-2.3-0.9-2.9c-0.1-0.1-0.2-0.3-0.4-0.4l-2.3-1.8v-1.8L153.6,439.2z"/>
	<path class="st17" d="M152.5,447.4c-1.3-1-1.5,0.1-1.5,1.4c0,0.8,0.1,1.5,0.2,2l-0.5-0.1c-0.1-0.7-0.2-1.7-0.2-2.6
		c0-2.7,0.8-3.4,2.1-2.4c1.3,1.1,2.2,3.3,2.2,5.6c0,2.3-0.9,2.5-1.8,1.7c-0.2-0.1-0.3-0.2-0.4-0.3V447.4z M153,451.3
		c0.8,0.7,1.2,0.2,1.2-0.7c0-1.2-0.6-2.3-1.2-2.8V451.3z"/>
</g>
<g>
	<path class="st17" d="M146.8,325.7c0.1,1.8,0.2,4.3,0.2,6.6c0,3.7-0.2,6.4-0.9,8.1c-0.6,1.5-1.6,1.7-2.5,1
		c-1.2-0.8-2.1-2.4-2.8-4.5c-0.7-2.5-1.1-5.9-1.1-8.4c0-0.4,0-0.8,0-1.2l-4.2-2.7v-6.1L146.8,325.7z M141.6,328.4c0,0.3,0,0.6,0,1
		c0,3.1,0.8,5,1.9,5.7c1,0.7,1.8,0.1,1.8-2.8c0-0.6,0-1.2-0.1-1.6L141.6,328.4z"/>
	<path class="st17" d="M141.3,344.8c0.8,0.6,1.7,1.1,2.5,1.5v5.4l-1.2-0.5v0.1c0.9,1.6,1.4,3.8,1.4,5.5c0,0.6,0,0.9,0,1.3l-2.2-1.5
		c0-0.4,0-0.8,0-1.3c0-1.3-0.3-3.3-1.2-4.6c-0.2-0.3-0.5-0.6-0.8-0.8l-4.2-2.9v-6.1L141.3,344.8z"/>
	<path class="st17" d="M139.7,375.9c-3.4-2.5-4.3-8.3-4.3-11.8c0-5.4,1.5-7.6,4.2-5.7c3,2.1,4.3,7.3,4.3,11.9
		C143.9,375.7,142.3,377.7,139.7,375.9z M139.7,364.4c-1.4-1-2.6-1.2-2.6,1c0,2,1.4,3.5,2.6,4.3c1.1,0.8,2.6,1.3,2.6-0.7
		C142.2,366.7,140.8,365.3,139.7,364.4z"/>
	<path class="st17" d="M147.3,403.6l-9.3-7.1c-0.8-0.6-1.7-1.2-2.4-1.7v-5.2l0.9,0.4v-0.1c-0.6-1.3-1.1-3.4-1.1-5.5
		c0-4.8,1.9-5.6,4.2-4c2.9,2.1,4.3,6.6,4.3,10.5c0,2-0.4,3-0.8,3.2v0.1l4.2,3.1V403.6z M140.6,392.3c0.2,0.1,0.3,0.2,0.5,0.3
		c0.5,0.1,1-0.3,1-1.5c0-2.2-1.1-3.8-2.5-4.8c-1.6-1.2-2.4-0.6-2.4,1.1c0,0.7,0.2,1.7,0.7,2.6c0.1,0.2,0.3,0.4,0.5,0.6L140.6,392.3z
		"/>
	<path class="st17" d="M138,419.4c-0.9-0.7-1.7-1.3-2.5-1.8v-5.2l0.9,0.4v-0.1c-0.6-1.5-1-3.7-1-6c0-4.3,1.2-5.2,3.4-3.5l5,3.9v6.2
		l-4.8-3.7c-1.1-0.8-1.8-0.8-1.8,0.9c0,1,0.3,1.9,0.6,2.4c0.2,0.4,0.4,0.7,0.7,0.9l5.3,4.2v6.2L138,419.4z"/>
	<path class="st17" d="M135.7,436.3c-0.1-0.7-0.2-2.3-0.2-4c0-5.8,1.4-8.4,4.1-6.2c2.6,2.1,4.4,7.7,4.4,14c0,1.5-0.1,2.7-0.2,3.2
		l-1.8-2.2c0.1-0.5,0.2-1.1,0.2-2.2c0-3-1-5.5-2.5-6.7c-1.5-1.2-2.4-0.2-2.4,2.6c0,0.9,0.1,1.7,0.2,2.4L135.7,436.3z"/>
	<path class="st17" d="M146.1,457.4l-2.3-1.9v4.5l-1.6-1.3v-4.5l-3.8-3.2c-1-0.8-1.2,0.1-1.2,1.3c0,0.6,0,1.1,0.1,1.6l-1.7-1.4
		c-0.1-0.9-0.2-2.2-0.2-3.8c0-1.8,0.2-3.2,0.5-3.9c0.4-0.9,1.1-1.1,2.3,0l3.9,3.3v-2.7l1.6,1.3v2.7l1.7,1.4L146.1,457.4z"/>
</g>
<polygon class="st18" points="176.7,312.6 179,312.3 179,552.7 176.7,553.2 "/>
<g>
	<defs>
		<polygon id="SVGID_7_" points="578.2,485.6 181.7,553.7 181.7,312.3 578.2,270.8 		"/>
	</defs>
	<clipPath id="SVGID_8_">
		<use xlink:href="#SVGID_7_"  style="overflow:visible;"/>
	</clipPath>
	<linearGradient id="SVGID_9_" gradientUnits="userSpaceOnUse" x1="181.7077" y1="412.2277" x2="578.171" y2="412.2277">
		<stop  offset="0" style="stop-color:#12B1ED"/>
		<stop  offset="0.6375" style="stop-color:#56A5D1"/>
		<stop  offset="1" style="stop-color:#0E5DB8"/>
	</linearGradient>
	<polygon class="st19" points="578.2,485.6 181.7,553.7 181.7,312.3 578.2,270.8 	"/>
	<polygon class="st20" points="578.2,485.6 181.7,553.6 181.7,312.2 578.2,270.8 	"/>
</g>
<g>
	<path class="st11" d="M216.6,351.1v-21.4l2-0.2l3.4,9.6c0.8,2.2,1.7,4.9,2.4,7.2l0.1,0c-0.2-3.3-0.2-6.1-0.2-9.8v-7.6l1.9-0.2V350
		l-2,0.2l-3.5-9.8c-0.7-2.1-1.6-4.4-2.2-7l-0.1,0c0.2,2.8,0.2,5.5,0.2,10.1v7.4L216.6,351.1z"/>
	<path class="st11" d="M233.4,341.7c0,4.7,1.6,5.5,3.2,5.3c0.9-0.1,1.7-0.4,2.2-0.9l0.3,1.8c-0.7,0.6-1.9,0.9-2.9,1.1
		c-3.2,0.4-4.8-2.4-4.8-7.1c0-5,1.8-8.3,4.5-8.6c2.7-0.3,3.8,2.8,3.8,6.3c0,0.6,0,1,0,1.4L233.4,341.7z M237.6,339.4
		c0.1-3.1-1-4.3-2-4.2c-1.4,0.2-2.1,2.6-2.2,4.7L237.6,339.4z"/>
	<path class="st11" d="M245.7,332.4l1.3,7.3c0.2,1.6,0.5,3.2,0.7,4.8l0.1,0c0.2-1.6,0.5-3.4,0.8-4.9l1.5-7.7l1.6-0.2l1.4,7.1
		c0.3,1.7,0.6,3.2,0.8,4.9l0.1,0c0.2-1.6,0.4-3.2,0.7-5l1.3-7.5l2.1-0.2l-3.3,15.6l-1.7,0.2l-1.5-7.2c-0.3-1.4-0.5-2.8-0.7-4.5
		l-0.1,0c-0.2,1.8-0.5,3.3-0.8,4.7l-1.6,7.5l-1.8,0.2l-3.2-14.8L245.7,332.4z"/>
	<path class="st11" d="M269.5,342.1c0.6,0.4,1.7,0.6,2.6,0.5c1.9-0.2,3-1.8,3-3.9c0-1.9-1-3-2.4-4.1c-1.4-1-3.4-2.7-3.4-5.4
		c0-3.2,1.9-5.7,4.8-6.1c1.1-0.1,2.1,0.2,2.6,0.5l-0.5,2.1c-0.5-0.3-1.2-0.6-2.2-0.5c-1.8,0.2-2.6,1.9-2.6,3.3c0,2.1,0.9,2.8,2.7,4
		c2.2,1.5,3.2,3.3,3.2,5.7c0,3.6-2.2,6.2-5.1,6.5c-1.2,0.1-2.6-0.2-3.1-0.5L269.5,342.1z"/>
	<path class="st11" d="M290.3,334.9c0,5.8-2.3,8-4.3,8.3c-2.3,0.3-4.2-2-4.2-7.3c0-5.5,2.1-8.1,4.3-8.3
		C288.5,327.3,290.3,329.6,290.3,334.9z M283.9,335.6c0,2.5,0.4,5.8,2.3,5.6c1.8-0.2,2.1-3.8,2.1-6.1c0-2.3-0.3-5.8-2.2-5.6
		C284.2,329.7,283.9,333.3,283.9,335.6z"/>
	<path class="st11" d="M295.7,341.7v-13.2l-1.6,0.2v-1.8l1.6-0.2v-0.9c0-1.6,0.2-3.3,1.1-4.7c0.7-1,1.8-1.5,2.6-1.6
		c0.7-0.1,1.2,0,1.6,0.2l-0.3,1.9c-0.2-0.1-0.6-0.2-1.1-0.1c-1.5,0.2-1.8,2-1.8,4v0.9l2.3-0.3v1.8l-2.3,0.3v13.2L295.7,341.7z"/>
	<path class="st11" d="M306.7,321.5v4l2.5-0.3v1.8l-2.5,0.3v8.9c0,1.9,0.6,2.4,1.4,2.3c0.3,0,0.6-0.1,0.8-0.2l0.1,1.8
		c-0.4,0.2-0.8,0.3-1.5,0.4c-0.8,0.1-1.5-0.1-2-0.7c-0.5-0.6-0.8-1.6-0.8-3.7v-8.7l-1.6,0.2v-1.8l1.6-0.2v-3.3L306.7,321.5z"/>
	<path class="st11" d="M314.8,324.5l1.2,7.2c0.2,1.6,0.5,3.1,0.7,4.7l0.1,0c0.2-1.6,0.5-3.3,0.8-4.8l1.5-7.5l1.6-0.2l1.4,7
		c0.3,1.6,0.6,3.2,0.8,4.8l0.1,0c0.2-1.6,0.4-3.2,0.7-4.9l1.2-7.4l2-0.2l-3.2,15.3l-1.7,0.2l-1.5-7.1c-0.3-1.4-0.5-2.7-0.7-4.4
		l-0.1,0c-0.2,1.8-0.4,3.2-0.7,4.6l-1.5,7.3l-1.7,0.2l-3.1-14.6L314.8,324.5z"/>
	<path class="st11" d="M336.1,337l-0.1-1.5l-0.1,0c-0.5,1.2-1.4,2-2.5,2.1c-1.7,0.2-3-1.3-3-3.9c0-3.7,2.5-5.7,5.4-6v-0.5
		c0-2-0.4-3.3-2-3.1c-0.8,0.1-1.5,0.5-2.1,1l-0.4-1.6c0.5-0.5,1.7-1.2,3-1.3c2.5-0.3,3.6,1.5,3.6,4.9v6.4c0,1.1,0,2.4,0.1,3.4
		L336.1,337z M335.8,329.3c-1,0.1-3.5,0.6-3.5,3.8c0,1.9,0.8,2.5,1.5,2.5c0.9-0.1,1.6-1,1.9-2.5c0.1-0.3,0.1-0.6,0.1-0.8V329.3z"/>
	<path class="st11" d="M343.1,325.1c0-1.3-0.1-2.7-0.1-3.8l1.8-0.2l0.1,2.3l0.1,0c0.4-1.5,1.5-2.7,2.6-2.9c0.2,0,0.3,0,0.4,0v2.4
		c-0.1,0-0.3,0-0.4,0c-1.3,0.1-2.2,1.6-2.4,3.4c-0.1,0.4-0.1,0.9-0.1,1.4v8.2l-2,0.2V325.1z"/>
	<path class="st11" d="M353.2,327.8c0,4.5,1.5,5.3,3,5.1c0.9-0.1,1.6-0.4,2.1-0.8l0.3,1.7c-0.7,0.5-1.8,0.9-2.7,1
		c-3,0.4-4.5-2.4-4.5-6.9c0-4.8,1.7-8,4.2-8.3c2.6-0.3,3.6,2.8,3.6,6.1c0,0.5,0,0.9,0,1.3L353.2,327.8z M357.1,325.6
		c0.1-3-0.9-4.2-1.9-4.1c-1.3,0.1-2,2.5-2,4.5L357.1,325.6z"/>
</g>
<g>
	<path class="st11" d="M217,364.9c2.1-0.8,5-1.4,7.8-1.8c4.4-0.5,7.9-0.2,10.4,2.1c2.3,2,3.3,5.5,3.3,9.2c0,4.7-1.2,8.2-3.2,10.9
		c-2.4,3.2-6.2,4.9-9.3,5.3c-0.5,0.1-1,0.1-1.5,0.2v16.3l-7.5,1V364.9z M224.4,383.8c0.3,0.1,0.7,0,1.2,0c3.7-0.5,5.4-3.7,5.4-7.8
		c0-3.8-1.4-6.6-4.8-6.2c-0.7,0.1-1.4,0.3-1.8,0.5V383.8z"/>
	<path class="st11" d="M244.4,382.3c0-3.2-0.1-6.6-0.2-9.5l6.4-0.8l0.4,4.5l0.2,0c1.2-3.5,3.4-5.5,5.4-5.8c0.7-0.1,1.1-0.1,1.6-0.1
		v8.4c-0.4-0.1-0.9,0-1.6,0.1c-1.6,0.2-3.6,1.7-4.5,5.1c-0.2,0.7-0.3,1.8-0.3,3.2v16l-7.4,1V382.3z"/>
	<path class="st11" d="M282.7,383.6c0,13-6.2,17.1-10.3,17.6c-6.5,0.9-10.4-4.5-10.4-14.7c0-11.3,5.1-17,10.5-17.6
		C278.8,368,282.7,373.8,282.7,383.6z M269.2,385.3c0,5.4,0.7,9.8,3.3,9.4c2.3-0.3,2.9-5.6,2.9-10.2c0-4.3-0.6-9.7-3-9.3
		C269.7,375.5,269.2,381,269.2,385.3z"/>
	<path class="st11" d="M308.3,352v34.7c0,3,0.1,6.3,0.2,9.2l-6.1,0.8l-0.4-3.4l-0.1,0c-1,2.3-3.1,4.4-5.6,4.7
		c-5.7,0.8-8.3-6.2-8.3-15c0-10.8,4.1-16.6,8.6-17.2c2.3-0.3,3.8,0.9,4.5,2.6l0.1,0v-15.5L308.3,352z M301.2,377.7
		c0-0.6,0-1.2-0.1-1.8c-0.3-1.9-1.1-3.5-2.6-3.3c-2.5,0.3-3.4,4.7-3.4,9.7c0,5.9,1.4,8.9,3.4,8.6c0.9-0.1,1.9-0.8,2.5-3.1
		c0.2-0.5,0.2-1.2,0.2-1.9V377.7z"/>
	<path class="st11" d="M334.8,383c0,3.3,0.1,6.5,0.2,9.4l-6.1,0.8l-0.4-3.2l-0.1,0c-1.2,2.2-3.4,4.2-6.1,4.6
		c-5,0.7-7.1-3.4-7.1-11.8V364l7.1-0.9v17.8c0,4,0.6,6.6,2.6,6.3c1.2-0.2,1.9-1.3,2.3-2.4c0.3-0.7,0.4-1.6,0.4-2.7v-19.7l7-0.9V383z
		"/>
	<path class="st11" d="M356.3,389c-0.7,0.5-2.4,1.2-4.4,1.5c-6.6,0.9-10.9-4-10.9-14c0-9.5,4.7-16.7,11.9-17.6
		c1.6-0.2,3.1,0,3.8,0.3l-0.9,6.6c-0.6-0.2-1.4-0.4-2.6-0.2c-3.3,0.4-5.3,4.4-5.3,9.8c0,5.6,2,8.7,5.2,8.3c1-0.1,1.9-0.4,2.6-1
		L356.3,389z"/>
	<path class="st11" d="M370.3,348.9v8.2l5-0.6v5.8l-5,0.6v13.9c0,3.6,1.3,4.3,2.6,4.1c0.7-0.1,1.2-0.2,1.8-0.4l0.1,6.3
		c-0.9,0.4-2.4,0.9-4.2,1.1c-2,0.3-3.7-0.1-4.9-1.3c-1.4-1.4-2.2-3.6-2.2-8.5v-14.4l-3.1,0.4v-5.8l3.1-0.4v-6.3L370.3,348.9z"/>
</g>
<g>
	<g>
		<g>
			<g>
				<g>
					<g>
						<path class="st21" d="M491.7,515.9c-2.1,0-4.3-0.1-6.7-0.3l-0.1,0l-34-10.1l7.9-15.2l31.1-0.1l0.1,0c4.2,1,16.2,5.4,18.4,11.3
							c1.1,2.9-1,9.2-3.2,11.3C502.8,514.8,498.3,515.9,491.7,515.9z"/>
						<path class="st22" d="M489.7,491c5,1.1,15.9,5.7,17.7,10.7c0.9,2.4-1,8.4-3,10.3c-2.5,2.4-8,3-12.8,3c-2.6,0-5-0.2-6.7-0.3
							l-32.9-9.8l7.1-13.8L489.7,491 M489.9,489.2l-0.2,0l-30.5,0.1l-1.1,0l-0.5,1l-7.1,13.8l-1,1.9l2.1,0.6l32.9,9.8l0.2,0.1l0.2,0
							c2.4,0.2,4.7,0.3,6.8,0.3c7,0,11.6-1.1,14-3.5c2.4-2.3,4.6-9,3.4-12.3c-1-2.7-3.8-5.3-8.5-7.8c-4-2.1-8.2-3.5-10.5-4
							L489.9,489.2L489.9,489.2z"/>
					</g>
				</g>
				<g>
					<path class="st23" d="M498.6,494.3c4,2,7.8,4.6,8.8,7.4c0.9,2.4-1,8.4-3,10.3c-2.2,2-6.5,2.8-10.7,2.9c-0.8-3.1-0.8-6.9,0.2-11
						C494.9,500.2,496.6,496.9,498.6,494.3z"/>
					<path class="st23" d="M491.3,493.9c2.2,0.4-7.9,7.8-7.9,7.8s2.9,11.1,0.7,10.7l-29.1-9.6l3.6-10.5L491.3,493.9z"/>
				</g>
			</g>
			<path class="st24" d="M455.5,505.9l-11.3-1.4l6.9-14.4l9.4,1.2c-0.7,2.9,2.3,7.4,2.3,7.4S456.4,501.2,455.5,505.9z"/>
		</g>
		<path class="st22" d="M448.7,492.9l19.3,26.7c0,0,45.9-28.4,65-41c5.9-3.9,5.7-13.8,4.8-17.9c-0.9-4-7.6-10-11.4-10.7
			c-15.5-2.6-50.7-6.8-50.7-6.8l-29.9,2.7l-45.7,9l-35.1,14l-10.3,19.2c0,0,0.2,10,6.8,13.2c5.7,2.8,18.6,5.9,25.1,6.5
			c5.3,0.5,22.5,1.5,22.5,1.5L448.7,492.9z"/>
		<line class="st25" x1="447" y1="457.4" x2="447" y2="469.5"/>
		<path class="st26" d="M367.3,494.5c-5.7-3.5-4.5-8.3-4.5-13c0,0-2.2-1.5-3.3-2.2l-4.7,8.7c0,0,0.2,10,6.8,13.2
			c5.7,2.8,18.6,5.9,25.1,6.5c5.3,0.5,22.5,1.5,22.5,1.5l36.9-15.3l0,0l-23.2,7.4C422.9,501.3,378.3,501.3,367.3,494.5z"/>
		<path class="st26" d="M538.3,464.6c-1.1-0.3-2.4,0-3.6,1.9c-2.9,4.9-72.6,44.8-72.6,44.8l0,0l5.9,8.1c0,0,45.9-28.4,65-41
			C537.5,475.6,538.4,469.3,538.3,464.6z"/>
		<path class="st27" d="M401.4,453.5l-3.7,2.3l-31.9,12.7c-0.9,1.4-2,3.1-3.1,4.8l-7.9,14.7c0,0,0,1.6,0.5,3.6
			c2.1-2.1,8.1-9.1,14.1-14.8c8.1-5.4,20.6-12.1,27.4-14.2c8.2-2.6,23.4,6.2,30.3,1.6c4-2.7,5.6-11,5.6-11L401.4,453.5z"/>
		<path class="st27" d="M490.2,441.5l2.5,3.8l34.6,4.8c0.9,1.2,2.3-0.7,3.4,0.7l7.9,12.7c0,0,0,1.6-0.5,3.8
			c-2.1-1.6-8.1-6.9-14.1-11c-8.1-3.3-24-5.3-30.8-5.6c-8.2-0.4-20.9,11.6-27.8,8.8c-4-1.6-5.4-8.9-5.4-8.9L490.2,441.5z"/>
		<path class="st28" d="M431.6,339.5l29.2-3.9l18,108.3c0,0-24.2,6.3-31.8,7.3c-7.9,1-31.3-1.8-31.3-1.8L431.6,339.5z"/>
		<path class="st29" d="M409.2,454v-5.6c0,0,27.5-1.2,37-2.1c8.7-0.9,35.5-5.5,35.5-5.5l3.1,5.2c0,0-29.7,5.8-38.2,6.7
			C437.2,453.5,409.2,454,409.2,454z"/>
		<polygon class="st26" points="456.5,444.9 456.9,451.2 446.6,465.6 434,453 434.8,447.1 		"/>
		<g>
			<g>
				<path class="st30" d="M469.1,305.6c-1.3,4.9-3.5,7.1-5.3,6.5c-1.8-0.6-2.6-3.9-1.3-8.8c1.3-4.9,3.1-10,6-9
					C471.1,295.2,470.4,300.7,469.1,305.6z"/>
			</g>
			<g>
				<path class="st31" d="M467,305.4c-0.7,2.6-1.8,3.7-2.8,3.4c-1-0.3,0.9-9.8,2.4-9.3C468,300,467.6,302.9,467,305.4z"/>
			</g>
			<g>
				<path class="st30" d="M423.8,311.5c1.3,4.6,3.5,6.2,5.3,5.1c1.8-1.1,2.6-4.5,1.3-9.1c-1.3-4.6-3.1-9.1-6-7.4
					C421.8,301.7,422.5,307,423.8,311.5z"/>
			</g>
			<g>
				<path class="st31" d="M425.9,310.8c0.7,2.4,1.8,3.2,2.8,2.7c1-0.6-0.9-9.5-2.4-8.6C424.9,305.7,425.2,308.5,425.9,310.8z"/>
			</g>
			<g>
				<path class="st30" d="M456.5,336c0,0,2.4,5.3-8.2,6.9C437,344.7,435,339,435,339l-0.9-17.1l22.1-3.7L456.5,336z"/>
			</g>
			<g>
				<path class="st31" d="M434.1,328.5c-0.1,4.1,6,7.8,11.3,9.8c5.3,2.1,12.5,0.6,12.5,0.6s-1.2-16.7-1.1-18.4
					c0.1-4.1-4.5-4.6-10.4-4C440.5,317.1,434.2,324.3,434.1,328.5z"/>
			</g>
			<g>
				<path class="st30" d="M465.6,301.3c0.1,2.7-1.8,17.8-5.3,22c-2,2.4-6.8,8.8-9.2,10c-2.3,1.1-7.4,1.8-9.7,1.3
					c-2.4-0.5-7.5-5.8-9.2-7.5c-3.3-3.3-4.7-17.4-4.8-19.8c-0.2-10-1.3-20.6,1.5-26.1c2.7-5.3,9.1-5.6,17.2-6.7
					C464.4,272,465.2,281.8,465.6,301.3z"/>
			</g>
			<g>
				<path class="st32" d="M438.6,318.4c0,0,1.7,4,7.8,3.2c5.9-0.8,8.2-5.3,8.2-5.3L438.6,318.4z"/>
			</g>
			<g>
				<path class="st33" d="M447.3,326.5c1.5-0.4,2.1-1.2,1.9-1.9c-0.1-0.3-1.5,0.5-2.7,0.7c-1.7,0.3-2.9-0.2-2.7,0.5
					C444.2,326.9,445.6,326.9,447.3,326.5z"/>
			</g>
			<g>
				<path class="st31" d="M431,299.7c0.6-1.5,2.7-2.4,4.1-2.6c2.1-0.4,5-2.4,6.5-0.7c1.3,1.5,1.3,4.6,0.8,5.4
					c-1.8,2.8-7.1,2.2-8.8,2.8C432.9,304.8,429.2,303.8,431,299.7z"/>
			</g>
			<g>
				<path class="st31" d="M450.7,312.2L450.7,312.2c0,0-0.7-2.4-1.1-2.1c-0.3,0.3-0.1,1-0.8,2.2c-1,1.3-3.5,1.1-4,0.4
					c0,0-0.9-11.4-1.1-12.6c-0.3-1.4-0.7-3.2-1.2-4c-0.6-1-0.7-0.1-2.1,0c-1.1,0,0.9-0.4,2,5.9c0.2,1-0.2,11.2-0.2,11.6
					c-0.1,2.1,7.4,1.4,8.6-0.9C450.8,312.5,450.8,312.3,450.7,312.2z"/>
			</g>
			<g>
				<path class="st34" d="M436.2,293.9c-2.2,0.5-3.8,1.5-4.7,2.5c-1.4,1.5-0.7,3.5-0.7,3.5c1.8-1.4,2.8-2.6,6.4-3.3
					c2.8-0.5,4.5,1.1,5.3,0.8c0.6-0.2,0.3-2.4-1.7-3.3C439.8,293.6,437.9,293.5,436.2,293.9z"/>
			</g>
			<path class="st34" d="M431.3,282.2c3-2.5,9.5-0.3,14.7-0.9c4.3-0.5,10.6-4.5,15-3c4.2,1.5,0.9,10,4.2,18.2
				c0.2,0.4,0.7-0.2,1.2-1.8c1-3.1,5.3-24.2-3.8-28.9c-4.7-2.5-6.7-0.8-6.7-0.8s-13.1-6.8-24.2,2.9c-12.5,11-6.1,30.1-4.9,32.7
				c0.7,1.6,1.1,1.3,1.9-0.5C430.8,294.8,427.7,285.1,431.3,282.2z"/>
			<g>
				<path class="st31" d="M462.2,295.6c-0.6-1.4-2.7-1.7-4.1-1.5c-2.1,0.2-5-1.1-6.5,1c-1.3,1.8-1.3,4.9-0.8,5.6
					c1.8,2.4,7.1,0.4,8.8,0.5C460.2,301.2,463.9,299.2,462.2,295.6z"/>
			</g>
			<g>
				<path class="st30" d="M452.7,299.7c5-3.2,8.2,0.3,8.2,0.3s-1.2,4.2-6.1,3.1c-2-0.5-1.7-0.9-2.5-0.6
					C451.1,302.9,451.3,300.6,452.7,299.7z"/>
			</g>
			<g>
				<path class="st30" d="M453.1,300.1c-0.9,0.5-1.2,1.1-1.4,1.6c-0.7-0.7-0.3-1.7,0.9-2.7c2.8-2.3,8-1.6,8.8-0.5
					c0.4,0.6,0,1.4-0.4,2C460.3,298.7,456.7,297.9,453.1,300.1z"/>
			</g>
			<g>
				<path class="st35" d="M451.7,300.6c-0.1,0-0.2,0-0.2,0.1c-0.2,0.2-0.2,0.4-0.1,0.6c2.2,3,5.6,2.1,6.9,1.5c1.8-0.7,3.2-2,3.2-2.9
					c0-0.2-0.1-0.4-0.4-0.4c-0.2,0-0.4,0.2-0.4,0.4c0,0.4-1,1.4-2.7,2.1c-1.2,0.5-4.1,1.3-6.1-1.3
					C451.9,300.7,451.8,300.6,451.7,300.6z"/>
			</g>
			<g>
				<path class="st30" d="M440.4,301.3c-5-1.9-8.2,2.4-8.2,2.4s1.2,3.9,6.1,1.5c2-1,1.7-1.3,2.5-1.3
					C442,304.1,441.8,301.9,440.4,301.3z"/>
			</g>
			<g>
				<path class="st30" d="M440.1,301.8c0.9,0.3,1.2,0.8,1.4,1.3c0.7-0.9,0.3-1.8-0.9-2.5c-2.8-1.6-8,0.5-8.8,1.8
					c-0.4,0.7,0,1.4,0.4,1.9C432.8,302.3,436.4,300.6,440.1,301.8z"/>
			</g>
			<g>
				<path class="st35" d="M441.4,302c0.1,0,0.2,0,0.2,0c0.2,0.1,0.2,0.4,0.1,0.6c-2.2,3.6-5.6,3.6-6.9,3.4c-1.8-0.3-3.2-1.1-3.2-2.1
					c0-0.2,0.1-0.4,0.4-0.5c0.2,0,0.4,0.1,0.4,0.3c0,0.4,1,1.2,2.7,1.4c1.2,0.2,4.1,0.2,6.1-2.9C441.2,302.1,441.3,302,441.4,302z"
					/>
			</g>
			<g>
				<path class="st34" d="M456.9,291.2c2.2-0.1,3.8,0.5,4.7,1.3c1.4,1.2,0.7,3.3,0.7,3.3c-1.8-0.9-2.8-1.9-6.4-1.6
					c-2.8,0.2-4.5,2.3-5.3,2.2c-0.6-0.1-0.3-2.3,1.7-3.8C453.3,291.8,455.2,291.3,456.9,291.2z"/>
			</g>
		</g>
		<polyline class="st36" points="435.8,452.4 446.7,461.7 455.7,450.3 448.1,352.8 451.1,345.3 450.1,343 441.8,343.8 440,347.2 
			443.2,353.5 435.8,451.5 		"/>
		<path class="st37" d="M441.8,413.5c0,9.8-9.1,40.1-9.1,40.1l-6,0L441.8,413.5z"/>
		<path class="st37" d="M449.8,412.4c0,9.8,10.1,37.9,10.1,37.9l6-1.6L449.8,412.4z"/>
		<polygon class="st37" points="445.8,343.3 441.5,350 441.8,350.7 437.5,357 440.9,384.7 440.7,387.3 433.1,355.4 		"/>
		<polygon class="st37" points="445.7,343.3 449.9,348.4 449.5,349.2 454.1,354.8 450.7,383.4 450.9,386 458.5,352 		"/>
		<path class="st22" d="M431.6,339.5c0,0-6.8,7.3-17.2,10.4c-3.1,0.9-10,2.4-12.2,5.1c-4.3,5.3-2.2,17.1-5.6,26.2
			c-1,2.7,0.7,8.7-0.6,11.4c-0.7,1.5-2.9,3.3-3.7,4.8c-2,3.8-3,12.5-4.5,16.5c-2.9,7.7-17.5,28.1-17.5,28.1l-11.4,16.5l16.9,7.9
			c0,0,19.2-19.1,25.7-30.8c2.4-4.4,10.8-19.2,10.8-19.2c1.5,1.9-3.3,18.3-5.6,23.6c-3.1,7.2-8.2,17-8.2,17s15.2,7.3,26,4.8
			c5.3-1.2,12.2-26.8,16.1-42.7C445.8,397.9,431.6,339.5,431.6,339.5z"/>
		<path class="st22" d="M460,335.8c0,0,6.8,5.5,17.2,5.8c3.1,0.1,10-0.2,12.2,1.9c4.3,4.1,2.2,16.5,5.6,24.7c1,2.5-0.7,8.9,0.6,11.2
			c0.7,1.3,2.9,2.5,3.7,3.8c2,3.3,3,11.7,4.5,15.3c2.9,7,17.5,23.4,17.5,23.4l11.4,13.4l-17.4,12.9c0,0-18.8-14.6-25.2-24.6
			c-2.4-3.7-10.8-16.4-10.8-16.4c-1.5,2.3,3.3,17.4,5.6,22.2c3.1,6.3,7.2,16.9,7.2,16.9s-18.1,11.1-24.2,8.5
			c-7.8-3.3-13.2-19.8-16.6-34.2C446.7,400.9,460,335.8,460,335.8z"/>
		<polygon class="st11" points="445.8,343.3 434.6,332.9 432.7,335.8 435,355.1 		"/>
		<polygon class="st11" points="445.8,343.3 457.3,329.9 459,332.3 456.7,352.3 		"/>
		<path class="st27" d="M432.7,335.8l-13.6,12.4l6.2,8.4l-3.6,6.9c0,0,7.1,16.5,12.2,33.9c3.8,12.9,4.9,28.4,4.9,28.4
			s7.7-10.8-0.5-51.9C436.3,363.7,432.7,335.8,432.7,335.8z"/>
		<path class="st27" d="M459,332.3l13.6,9.3l-6.2,9.5l3.6,6c0,0-7.1,18.3-12.2,37.2c-3.8,13.9-5.4,29.8-5.4,29.8s-7.2-8.9,1-52.1
			C455.3,361.2,459,332.3,459,332.3z"/>
		<g>
			<g>
				<g>
					<g>
						<path class="st38" d="M406,530.7c-2.3,0-4-0.4-5.2-1.2c-2.7-1.8-4.8-8.4-3.7-11.7c2.1-6.3,14.2-14.6,19.9-17.4l0.1-0.1
							l31.3-7.9l11.8,13.6l-37.1,20.8l-0.1,0C415.8,529.4,410.1,530.7,406,530.7C406,530.7,406,530.7,406,530.7z"/>
						<path class="st22" d="M448,493.7l10.4,12.1l-35.8,20.1c-3.8,1.3-11.3,3.8-16.6,3.8c-1.9,0-3.5-0.3-4.6-1.1
							c-2.2-1.5-4.2-7.5-3.2-10.4c2-6,13.9-14.1,19.3-16.7L448,493.7 M448.8,491.2l-1.4,0.3l-30.5,7.7l-0.2,0.1l-0.2,0.1
							c-4.6,2.3-18,10.8-20.4,18.1c-1.2,3.7,1,10.9,4.1,13c1.4,1,3.3,1.4,5.9,1.4c4.2,0,10-1.3,17.3-3.9l0.2-0.1l0.2-0.1l35.8-20.1
							l2.4-1.4l-1.8-2.1l-10.4-12.1L448.8,491.2L448.8,491.2z"/>
					</g>
				</g>
				<g>
					<path class="st39" d="M407.8,507.6c-4.4,3.3-8.5,7.2-9.6,10.6c-1,2.9,1.1,8.9,3.2,10.4c2.3,1.6,7.1,1.1,11.7,0.1
						c0.9-3.6,0.9-7.8-0.3-11.9C411.8,512.9,410,509.8,407.8,507.6z"/>
					<path class="st39" d="M418.9,503.6c-2.3,1,5.5,7.6,5.5,7.6s-2.6,11.9-0.3,10.9c0,0,14.1-7.1,31.2-17.8
						c2.5-1.6-3.9-10.4-3.9-10.4L418.9,503.6z"/>
				</g>
			</g>
			<path class="st40" d="M445.3,511.6l13.2-5.2l-7.6-14.1l-11.4,3.8c0.8,3.1-2.7,9.4-2.7,9.4S444.2,506.4,445.3,511.6z"/>
		</g>
		<path class="st30" d="M533,441.2c0,0,6.4-2.4,8.6-2.7c2-0.2,6.2,0.2,7.4,1.7c0.9,1.1,0.1,6.8,0.1,6.8s-1.6,0.4-2,0.3
			c-0.9-0.3-2.6-3.3-2.6-3.3s-1.8,2.4-2,3.3c-0.3,1.3,0,3.6,0.8,4.5c0.4,0.5,2.9,0.8,2.9,0.8s-0.4-3.9,0.5-4.8
			c0.5-0.5,2.3-0.6,2.3-0.6s1,4.2,0.7,5.7c-0.2,1.1-1.2,2.9-2,3.6c-0.8,0.7-5,0.2-5,0.2s8.3,8.1,8.9,10c0.4,1.1-1.5,2.7-3.1,1.4
			c-1-0.8-9-9.4-9.4-9.6c-0.3-0.1,7.1,7.8,8.5,10.3c0.4,0.7-1,3-3,1.6c-0.8-0.5-9.2-8.6-10.1-9.4c-0.3-0.3,5.3,5.3,5.9,6.4
			c0.3,0.6-0.8,2.3-2.4,1.6c-3.1-1.3-6.4-4.9-8.6-6.8c-1.3-1.2-4-4.5-4.9-6c-1.2-2-2.8-8.1-2.8-8.1l8-8L533,441.2z"/>
		<path class="st31" d="M521.9,448c0,0,1.3,4.9,2.5,7.4l8.2-14.3l-2.8-1.1L521.9,448z"/>
		<path class="st30" d="M358.7,464.2c0,0-6.4-0.7-8.6-0.4c-2,0.3-6.2,1.8-7.4,3.6c-0.9,1.3-0.1,6.9-0.1,6.9s1.6,0,2-0.3
			c0.9-0.5,2.6-4.1,2.6-4.1s1.8,1.9,2,2.8c0.3,1.2,0,3.7-0.8,4.7c-0.4,0.6-2.9,1.6-2.9,1.6s0.4-4-0.5-4.7c-0.5-0.4-2.3,0-2.3,0
			s-1,4.5-0.7,5.9c0.2,1,1.2,2.6,2,3.1c0.8,0.5,5-1.2,5-1.2s-8.3,10.3-8.9,12.3c-0.4,1.2,1.5,2.3,3.1,0.5c1-1.1,9-11.8,9.4-12
			c0.3-0.2-7.1,9.6-8.5,12.6c-0.4,0.8,1,2.7,3,0.8c0.8-0.7,9.2-11.1,10.1-12c0.3-0.4-5.3,6.7-5.9,7.9c-0.3,0.7,0.8,2.1,2.4,1
			c3.1-2.1,6.4-6.6,8.6-9c1.3-1.5,4-5.5,4.9-7.3c1.2-2.3,2.8-8.8,2.8-8.8l-8-5.9L358.7,464.2z"/>
		<path class="st31" d="M369.9,467.2c0,0-1.2,5.5-2.4,8.2l-8.1-11.7l2.5-2.4L369.9,467.2z"/>
		<polygon class="st11" points="359.8,458.7 357.5,462.7 372,469.7 375.3,466 		"/>
		<polygon class="st11" points="531.9,436 534.2,439.4 519.7,450.2 516.5,447.3 		"/>
	</g>
	<path class="st41" d="M501.8,541.1c0,3.3-24.5,9.2-54.7,13.2c-30.2,4-54.7,4.6-54.7,1.3c0-3.3,24.5-9.2,54.7-13.2
		C491,536.6,501.8,537.8,501.8,541.1z"/>
	<g>
		<path class="st27" d="M476.1,414c-2-7-3.5-33.6-3.5-33.6s2.8,7.7,4.1,9c3.3,3.4,5.7-22.6,5.7-22.6s-1.4,21.5,0.9,30.9
			c1.8,7.3,8.1,21.7,12.5,27.4c3.6,4.5,15.7,13.8,22.7,20.9l-3,2.4c0,0-18.8-14.6-25.2-24.6c-2.4-3.7-10.8-16.4-10.8-16.4
			c-1.5,2.3,3.3,17.4,5.6,22.2c3.1,6.3,6.6,15.9,6.6,15.9S482.9,437.6,476.1,414z"/>
	</g>
	<g>
		<path class="st27" d="M415.7,422c2-7.6,4.5-34.4,4.5-34.4s-2.7,5.7-4,9.8c-2.9,8.9-6.9-19.4-6.9-19.4s2.2,21.2,0,31.1
			c-1.8,7.8-8.7,22.3-13.1,29c-3.6,5.5-15.8,18-22.7,27l3,1.6c0,0,18.8-19.6,25.2-31.3c2.4-4.4,10.8-19.2,10.8-19.2
			c1.5,1.9-3.3,18.3-5.6,23.6c-3.1,7.2-8.3,17-8.3,17S408.8,447.3,415.7,422z"/>
	</g>
	<polygon class="st42" points="450.9,492.3 451.7,503.3 441.1,508.5 444.2,512.3 458.5,506.4 	"/>
	<path class="st27" d="M508.4,461.1c-0.4-1.7,2-4.6,0.4-3.8c-5.1,2.5-6.8,4.1-18.6,9.3c-9.5,4.2-16.5,6.7-28.2,8.5
		c-9.1,1.4-17.8,3.4-26.7,3.1c-8-0.3-12.2-0.4-19.6-1.6c-4.5-0.8-18.6-0.5-20.6-1c-3.4-0.9-3.9-2.7-6.6-4.3
		c-1.4-0.8,0.9,1.9,0.4,3.7c-0.5,2-10.2,4.9-8.4,4.5c9.1-2,13.2-0.8,16.1-0.8c5.6-0.1,14.6,1.8,23.5,4.2c7.9,2.5,15.8,5.1,21.4,4.9
		c1.9-0.1,9.1-0.9,10.5,0.2v3.6l-1.3,0.8c6.6-4,37.2-22.4,49.8-25.5c2.9-0.7,7-3,16.1-3.4C518.6,463.3,508.8,463,508.4,461.1z"/>
	<polygon class="st42" points="455.8,489.5 452.1,491.5 452.1,489 	"/>
</g>
<g>
	<g>
		<path class="st43" d="M231.6,143.2c0.1,2.2,0.2,4.5,0.3,6.7c1.3-0.1,2.7-0.1,4-0.2c0-0.9-0.1-1.7-0.1-2.6c0.8,0,1.5-0.1,2.3-0.1
			c-0.1-1.3-0.1-2.7-0.2-4C235.8,143,233.7,143.1,231.6,143.2z"/>
		<path d="M240.5,142.8c-0.4,0-0.9,0-1.3,0.1c0.1,1.3,0.1,2.7,0.2,4c0.3,0,0.7,0,1,0c0.5,0,0.9,0,1.2,0.2c0.4,0.1,0.7,0.4,1,0.7
			c0.3,0.3,0.6,0.8,0.8,1.4c0.2,0.6,0.4,1.3,0.6,2.2c0.2,0.9,0.3,2,0.3,3.2c0.2,5.1-0.8,7.8-3.2,8c-1.5,0.1-3.1,0.2-4.6,0.4
			c-0.2-3.9-0.4-7.8-0.5-11.7c-1.3,0.1-2.7,0.2-4,0.2c0.2,5.3,0.5,10.6,0.7,15.9c3-0.3,5.9-0.5,8.9-0.8c1.2-0.1,2.3-0.5,3.2-1.1
			c0.9-0.6,1.6-1.5,2.2-2.6c0.5-1.1,0.9-2.3,1.1-3.8c0.2-1.4,0.3-3,0.2-4.7C248,146.5,245.4,142.6,240.5,142.8z"/>
		<g>
			<path d="M260.5,149.2c-1-0.8-2.4-1.1-4.1-1c-2.9,0.2-5.2,0.7-6.9,1.5c0,0.9,0.1,1.8,0.1,2.7c3-0.4,5.1-0.6,6.4-0.7
				c0.3,0,0.6,0,0.9,0c0.2,0,0.4,0.1,0.6,0.2c0.2,0.1,0.3,0.3,0.4,0.6c0.1,0.3,0.2,0.6,0.2,1.1c0,0,0,0.4,0.1,1.1
				c-0.8,0.1-1.5,0.1-2.2,0.2c-0.7,0-1.5,0.1-2.2,0.1c-0.8,0-1.5,0.2-2.1,0.5c-0.6,0.3-1,0.7-1.3,1.1c-0.3,0.5-0.6,1-0.7,1.5
				c-0.1,0.5-0.2,1.1-0.2,1.8c0,0.5,0,1.1,0.1,1.6c0.1,1.2,0.5,2.2,1.3,3c0.8,0.8,1.9,1.2,3.2,1.1c0.7,0,1.4-0.2,2.2-0.6
				c0.7-0.4,1.3-0.7,1.7-1.1c0.4-0.3,0.6-0.6,0.7-0.7c0.3,0.6,0.6,1.2,0.9,1.7c1.1-0.1,2.1-0.2,3.2-0.3c-0.2-3.8-0.4-7.7-0.5-11.5
				C262.1,151.3,261.5,150,260.5,149.2z M258.5,160.5c-0.1,0.1-0.3,0.2-0.4,0.3c-0.1,0.1-0.3,0.2-0.4,0.3c-0.2,0.1-0.4,0.2-0.6,0.3
				c-0.2,0.1-0.4,0.2-0.6,0.3c-0.2,0.1-0.4,0.2-0.7,0.2c-0.2,0.1-0.5,0.1-0.7,0.1c-0.5,0-0.8,0-1.1-0.2c-0.3-0.2-0.4-0.6-0.4-1.2
				c0-0.3,0-0.5,0-0.8c0-0.2,0-0.4,0-0.6c0-0.2,0.1-0.3,0.1-0.5c0.1-0.2,0.2-0.3,0.4-0.5c0.2-0.1,0.4-0.2,0.6-0.2
				c1.2-0.2,2.5-0.4,3.7-0.6C258.4,158.5,258.4,159.5,258.5,160.5z"/>
		</g>
		<g>
			<path d="M281.4,147.1c-1.9,0.1-3.6,0.9-5.4,2.3c-0.7-1.4-2.1-2-4.1-1.9c-0.5,0-1,0.1-1.4,0.2c-0.4,0.1-0.8,0.3-1.2,0.5
				c-0.4,0.2-0.7,0.4-0.9,0.6c-0.2,0.2-0.5,0.4-0.9,0.7c-0.1,0.1-0.2,0.2-0.2,0.2c-0.3-0.6-0.6-1.1-0.9-1.7
				c-1.1,0.1-2.1,0.1-3.2,0.2c0.3,5.5,0.5,11,0.8,16.5c1.3-0.1,2.7-0.2,4-0.3c-0.2-3.9-0.4-7.8-0.6-11.7c0.4-0.4,0.8-0.6,1.1-0.8
				c0.3-0.2,0.7-0.4,1.1-0.5c0.4-0.1,0.9-0.2,1.4-0.2c0.2,0,0.5,0,0.7,0.1c0.2,0.1,0.4,0.2,0.6,0.4c0.2,0.2,0.3,0.4,0.4,0.7
				c0.1,0.3,0.1,0.6,0.2,1c0.2,3.6,0.3,7.2,0.5,10.8c1.3-0.1,2.7-0.2,4-0.3c-0.2-3.7-0.4-7.4-0.5-11.2c0-0.1,0-0.2,0-0.3
				c0-0.1,0-0.1,0-0.2c0.2-0.2,0.4-0.3,0.5-0.5c0.2-0.1,0.4-0.3,0.5-0.4c0.2-0.1,0.4-0.2,0.6-0.3c0.2-0.1,0.4-0.1,0.6-0.2
				c0.2-0.1,0.4-0.1,0.7-0.1c0.2,0,0.5-0.1,0.7-0.1c0.5,0,1,0.1,1.3,0.5c0.3,0.3,0.5,0.9,0.5,1.6c0.2,3.5,0.3,7.1,0.5,10.6
				c1.3-0.1,2.7-0.2,4-0.3c-0.2-3.5-0.3-7-0.5-10.5C286,148.8,284.4,147,281.4,147.1z"/>
		</g>
		<path d="M331.3,156.9c0,0.8,0.1,1.6,0.1,2.4c0.7,0.4,2.7,0.5,6.1,0.4c-0.1-1-0.1-2.1-0.2-3.1C335.4,156.6,333.4,156.7,331.3,156.9
			z"/>
		<path d="M343.1,152.7c-0.2-0.4-0.4-0.8-0.8-1.1c-0.3-0.3-0.8-0.6-1.3-0.7c-0.5-0.2-1.2-0.2-1.9-0.2c-1.2,0.1-2.4,0.1-3.6,0.2
			c-0.4,0-0.7,0-0.9-0.1c-0.2-0.1-0.3-0.3-0.3-0.8c0-0.2,0-0.4,0-0.6c0-0.2,0-0.4,0-0.5c0-0.1,0.1-0.2,0.1-0.3
			c0.1-0.1,0.2-0.2,0.3-0.2c0.2,0,0.4-0.1,0.6-0.1c2.3-0.1,4.6-0.2,6.9-0.3c0-0.8-0.1-1.6-0.1-2.3c-0.9-0.4-3.6-0.6-8.2-0.5
			c-2.6,0.1-3.9,1.4-3.7,4c0,0.4,0,0.8,0.1,1.3c0.1,1.4,0.5,2.3,1.2,2.9c0.8,0.6,1.8,0.8,3.2,0.8c1.2-0.1,2.4-0.1,3.6-0.2
			c0.3,0,0.5,0,0.6,0.1c0.2,0.1,0.3,0.2,0.3,0.3c0,0,0,0.1,0,0.1c1.3-0.1,2.7-0.1,4-0.2c0,0,0-0.1,0-0.1
			C343.4,153.6,343.3,153.1,343.1,152.7z"/>
		<path class="st43" d="M339.5,155.7c0,0.4-0.3,0.7-0.8,0.8c0.1,1,0.1,2.1,0.2,3.1c0.4,0,0.8,0,1.1-0.1c0.3,0,0.6-0.1,0.8-0.1
			c1.9-0.4,2.8-1.7,2.7-3.8c0,0,0-0.1,0-0.1C342.2,155.5,340.8,155.6,339.5,155.7z"/>
		<path d="M313,147.6c-1.1-1.1-2.9-1.6-5.5-1.5c-1.3,0.1-2.4,0.2-3.2,0.5c-0.8,0.3-1.5,0.7-2.1,1.4c-0.5,0.6-0.9,1.5-1.1,2.5
			c-0.2,1-0.2,2.3-0.1,3.9c0.1,1.1,0.2,2.1,0.4,2.9c0.2,0.8,0.5,1.5,0.8,2.1c0.4,0.6,0.8,1,1.4,1.4c0.6,0.3,1.2,0.6,2,0.7
			c0.8,0.1,1.7,0.2,2.7,0.1c2.7-0.2,4.4-0.8,5.4-2c0.9-1.1,1.3-3.1,1.2-5.9C314.7,150.7,314.1,148.7,313,147.6z M310.8,155.9
			c0,0.5-0.1,0.9-0.2,1.2c-0.1,0.3-0.3,0.6-0.5,0.7c-0.2,0.2-0.5,0.3-0.8,0.3c-0.3,0.1-0.7,0.1-1.2,0.1c-0.6,0-1.1,0-1.4,0
			c-0.3-0.1-0.6-0.2-0.9-0.5c-0.3-0.3-0.5-0.7-0.6-1.3c-0.1-0.6-0.2-1.3-0.3-2.3c0-0.7-0.1-1.3-0.1-1.8c0-0.5,0-0.9,0.1-1.3
			c0.1-0.4,0.2-0.7,0.3-0.9c0.1-0.2,0.3-0.4,0.5-0.5c0.2-0.1,0.5-0.2,0.8-0.3c0.3-0.1,0.6-0.1,1-0.1c0.5,0,0.9,0,1.2,0
			c0.3,0.1,0.6,0.2,0.8,0.3c0.3,0.1,0.5,0.4,0.6,0.8c0.1,0.4,0.2,0.8,0.3,1.3c0.1,0.5,0.1,1.2,0.2,2.1
			C310.9,154.7,310.9,155.4,310.8,155.9z"/>
		<path d="M324.6,145.4c-0.6,0-1.1,0.1-1.5,0.2c-0.4,0.1-0.9,0.3-1.3,0.5c-0.4,0.2-0.7,0.4-0.9,0.6c-0.2,0.1-0.5,0.4-1,0.7
			c-0.3-0.5-0.6-1-0.9-1.6c-1.1,0-2.1,0.1-3.2,0.1c0.3,5,0.5,9.9,0.8,14.9c1.3-0.1,2.7-0.2,4-0.3c-0.2-3.5-0.4-7.1-0.6-10.6
			c0.4-0.3,0.8-0.6,1.1-0.8c0.3-0.2,0.7-0.3,1.1-0.5c0.4-0.1,0.9-0.2,1.4-0.2c0.5,0,1,0.1,1.3,0.4c0.3,0.3,0.5,0.8,0.5,1.5
			c0.2,3.3,0.4,6.5,0.5,9.8c1.3-0.1,2.7-0.2,4-0.3c-0.2-3.2-0.3-6.4-0.5-9.6C329.3,146.9,327.6,145.3,324.6,145.4z"/>
		<path d="M299.9,155c-0.2-0.5-0.4-0.9-0.8-1.2c-0.3-0.4-0.8-0.6-1.3-0.8c-0.5-0.2-1.2-0.2-1.9-0.2c-1.2,0.1-2.4,0.1-3.6,0.2
			c-0.4,0-0.7,0-0.9-0.1c-0.2-0.1-0.3-0.4-0.3-0.8c0-0.2,0-0.5,0-0.7c0-0.2,0-0.4,0-0.5c0-0.1,0.1-0.2,0.1-0.3
			c0.1-0.1,0.2-0.2,0.3-0.2c0.2,0,0.4-0.1,0.6-0.1c2.3-0.1,4.6-0.2,6.9-0.3c0-0.9-0.1-1.7-0.1-2.6c-0.9-0.5-3.6-0.6-8.2-0.4
			c-2.6,0.1-3.9,1.6-3.7,4.4c0,0.5,0,0.9,0.1,1.4c0.1,1.5,0.5,2.5,1.2,3.2c0.8,0.6,1.8,0.9,3.2,0.8c1.2-0.1,2.4-0.1,3.6-0.2
			c0.3,0,0.5,0,0.6,0.1c0.2,0.1,0.3,0.2,0.3,0.3c0.1,0.1,0.1,0.3,0.1,0.5c0,0.2,0,0.5,0,0.7c0,0.7-0.3,1-1,1.1
			c-2.4,0.2-4.8,0.3-7.2,0.5c0,0.9,0.1,1.7,0.1,2.6c0.9,0.5,3.7,0.6,8.5,0.2c0.3,0,0.6-0.1,0.8-0.1c1.9-0.5,2.8-1.9,2.7-4.2
			c0-0.5-0.1-1.1-0.1-1.6C300.1,155.9,300,155.4,299.9,155z"/>
		<path d="M356.3,146.1c-1.1-1-2.9-1.5-5.5-1.4c-1.3,0-2.4,0.2-3.2,0.4c-0.8,0.3-1.5,0.7-2.1,1.3c-0.5,0.6-0.9,1.3-1.1,2.3
			c-0.2,0.9-0.2,2.1-0.1,3.6c0.1,1,0.2,1.9,0.4,2.6c0.2,0.7,0.5,1.4,0.8,1.9c0.4,0.5,0.8,1,1.4,1.3c0.6,0.3,1.2,0.5,2,0.6
			c0.8,0.1,1.7,0.1,2.7,0.1c2.7-0.2,4.4-0.8,5.4-1.8c0.9-1,1.3-2.8,1.2-5.3C357.9,148.9,357.3,147.1,356.3,146.1z M354.1,153.6
			c0,0.5-0.1,0.8-0.2,1.1c-0.1,0.3-0.3,0.5-0.5,0.7c-0.2,0.2-0.5,0.3-0.8,0.3c-0.3,0-0.7,0.1-1.2,0.1c-0.6,0-1.1,0-1.4,0
			c-0.3-0.1-0.6-0.2-0.9-0.5c-0.3-0.3-0.5-0.6-0.6-1.2c-0.1-0.5-0.2-1.2-0.3-2.1c0-0.7-0.1-1.2-0.1-1.7c0-0.5,0-0.9,0.1-1.2
			c0.1-0.3,0.2-0.6,0.3-0.8c0.1-0.2,0.3-0.3,0.5-0.5c0.2-0.1,0.5-0.2,0.8-0.3c0.3,0,0.6-0.1,1-0.1c0.5,0,0.9,0,1.2,0
			c0.3,0.1,0.6,0.1,0.8,0.3c0.3,0.1,0.5,0.4,0.6,0.7c0.1,0.3,0.2,0.7,0.3,1.2c0.1,0.5,0.1,1.1,0.2,1.9
			C354.1,152.5,354.1,153.1,354.1,153.6z"/>
		<path d="M364.6,144.4c0-0.5-0.1-1.1-0.1-1.6c-1.3,0-2.7,0.1-4,0.1c0,0.5,0.1,1.1,0.1,1.6c-0.8,0.2-1.6,0.3-2.4,0.5
			c0,0.8,0.1,1.5,0.1,2.3c0.8,0,1.6-0.1,2.4-0.1c0.2,3.6,0.4,7.2,0.6,10.8c1.3-0.1,2.7-0.2,4-0.2c-0.2-3.6-0.4-7.1-0.6-10.7
			c1.2,0,2.3-0.1,3.5-0.1c-0.1-0.9-0.1-1.8-0.2-2.7C366.9,144.4,365.7,144.4,364.6,144.4z"/>
		<path d="M366,138c0.1,0.9,0.1,1.7,0.2,2.6c0.8,0,1.7,0,2.5,0c0-0.7-0.1-1.4-0.1-2.1C367.8,138.3,366.9,138.1,366,138z"/>
		<path class="st43" d="M362.6,138.3c-0.6,0.2-1,0.5-1.3,0.9c-0.3,0.4-0.5,0.8-0.7,1.3c-0.1,0.4-0.2,0.9-0.1,1.4
			c1.4,0,2.7-0.1,4.1-0.1c0-0.1,0-0.2,0-0.3c0-0.2,0.1-0.4,0.2-0.5c0,0,0.1-0.1,0.2-0.1c-0.1-1-0.1-1.9-0.2-2.9c0,0,0,0,0,0
			C363.8,138,363.1,138.1,362.6,138.3z"/>
		<path d="M378.7,146.7c-0.1-0.9-0.1-1.7-0.2-2.6c-1.1,0-2.3,0.1-3.4,0.1c-0.1-1.2-0.1-2.4-0.2-3.6c-1.1,0-2.2,0-3.4,0.1
			c-0.1,1.2-0.3,2.5-0.4,3.7c-0.8,0.3-1.6,0.5-2.4,0.8c0,0.6,0.1,1.3,0.1,1.9c0.8,0,1.6-0.1,2.5-0.1c0.1,1.9,0.2,3.9,0.3,5.8
			c0.1,1.7,0.5,2.9,1.2,3.6c0.7,0.7,1.6,1,2.8,0.9c1.2-0.1,2.3-0.1,3.5-0.2c0-0.7-0.1-1.4-0.1-2.1c-0.1,0-0.8-0.1-1.9-0.4
			c-0.3-0.1-0.5-0.2-0.7-0.3c-0.2-0.1-0.3-0.4-0.5-0.7c-0.1-0.4-0.2-0.8-0.3-1.5c-0.1-1.7-0.2-3.5-0.3-5.2
			C376.5,146.7,377.6,146.7,378.7,146.7z"/>
		<g>
			<path class="st44" d="M251.8,167.7C251.8,167.7,251.8,167.7,251.8,167.7c-0.3,0.1-0.6,0.1-0.9,0.1c0,0.9,0.1,1.9,0.1,2.8
				c0,0,0,0,0,0c0-0.9-0.1-1.9-0.1-2.8c-0.3,0-0.6,0.1-0.9,0.1c0,0,0,0,0,0C250.5,167.8,251.2,167.7,251.8,167.7z"/>
			<path class="st44" d="M256.1,170.2C256.1,170.2,256,170.2,256.1,170.2c-0.1-0.5-0.1-0.9-0.1-1.4c-0.6,0.1-1.2,0.1-1.8,0.2
				c0,0.5,0,1,0.1,1.4c0,0,0,0,0,0c0-1-0.1-1.9-0.1-2.9c0,0,0,0,0,0c0,0.5,0,0.9,0.1,1.4c0.6-0.1,1.2-0.1,1.8-0.2
				c0-0.5,0-0.9-0.1-1.4c0,0,0,0,0,0C256,168.3,256,169.2,256.1,170.2z"/>
			<path class="st44" d="M260,167C260,167,260,167,260,167c-0.5,0.1-0.9,0.1-1.4,0.2c0,0.4,0,0.9,0.1,1.3c0.4,0,0.8-0.1,1.2-0.1
				c0,0,0,0,0,0c-0.4,0-0.8,0.1-1.2,0.1c0,0.5,0,0.9,0.1,1.4c0.5,0,0.9-0.1,1.4-0.1c0,0,0,0,0,0c-0.5,0-1,0.1-1.5,0.1
				c0-0.9-0.1-1.9-0.1-2.8C259.1,167.1,259.6,167,260,167z"/>
			<path class="st44" d="M265.2,168.2c0,0.4,0,0.8,0.1,1.2c0,0,0,0,0,0c0-0.9-0.1-1.9-0.1-2.8c0.2,0,0.4,0,0.6,0
				c0.3,0,0.5,0,0.6,0.1c0.2,0.1,0.2,0.3,0.2,0.6c0,0.1,0,0.2,0,0.3c0,0.1-0.1,0.2-0.2,0.3c-0.1,0.1-0.2,0.1-0.3,0.2
				c-0.1,0-0.2,0.1-0.3,0.1C265.5,168.2,265.4,168.2,265.2,168.2z M265.2,168.1c0.2,0,0.3,0,0.5,0c0.1,0,0.2,0,0.3-0.1
				c0.1,0,0.2-0.1,0.2-0.2c0.1-0.1,0.1-0.2,0.2-0.3c0-0.1,0-0.2,0-0.3c0-0.2-0.1-0.4-0.2-0.6c-0.1-0.1-0.3-0.2-0.6-0.1
				c-0.2,0-0.3,0-0.5,0C265.1,167.1,265.2,167.6,265.2,168.1z"/>
			<path class="st44" d="M271.1,167.5c0,0.2,0,0.4-0.1,0.6c0,0.2-0.1,0.3-0.2,0.5c-0.1,0.1-0.2,0.2-0.4,0.3
				c-0.1,0.1-0.3,0.1-0.5,0.1c-0.2,0-0.3,0-0.5-0.1c-0.1-0.1-0.3-0.1-0.4-0.3c-0.1-0.1-0.2-0.3-0.3-0.4c-0.1-0.2-0.1-0.4-0.1-0.6
				c0-0.2,0-0.4,0.1-0.6c0-0.2,0.1-0.3,0.2-0.5c0.1-0.1,0.2-0.2,0.4-0.3c0.1-0.1,0.3-0.1,0.5-0.1c0.2,0,0.3,0,0.5,0.1
				c0.1,0.1,0.3,0.1,0.4,0.3c0.1,0.1,0.2,0.3,0.3,0.4C271,167.1,271.1,167.3,271.1,167.5z M271,167.5c0-0.2,0-0.4-0.1-0.6
				c-0.1-0.2-0.1-0.3-0.2-0.4c-0.1-0.1-0.2-0.2-0.4-0.2c-0.1-0.1-0.3-0.1-0.5-0.1c-0.2,0-0.3,0.1-0.4,0.1c-0.1,0.1-0.2,0.2-0.3,0.3
				c-0.1,0.1-0.2,0.3-0.2,0.5c0,0.2-0.1,0.4-0.1,0.6c0,0.2,0,0.4,0.1,0.6c0.1,0.2,0.1,0.3,0.3,0.4c0.1,0.1,0.2,0.2,0.4,0.2
				c0.1,0.1,0.3,0.1,0.5,0.1c0.2,0,0.3-0.1,0.4-0.1c0.1-0.1,0.2-0.2,0.3-0.3c0.1-0.1,0.2-0.3,0.2-0.5C271,167.9,271,167.7,271,167.5
				z"/>
			<path class="st44" d="M273.1,165.9C273.1,165.9,273.1,165.9,273.1,165.9C273.1,165.9,273.1,165.9,273.1,165.9
				c0.3,0.9,0.6,1.7,0.9,2.5c0,0,0,0,0,0.1c0,0,0,0,0,0.1c0,0,0,0,0-0.1c0,0,0,0,0-0.1c0.2-0.9,0.5-1.8,0.7-2.6c0,0,0,0,0,0
				c0,0,0,0,0,0c0,0,0,0,0,0c0.3,0.8,0.6,1.7,0.9,2.5c0,0,0,0.1,0,0.1c0,0,0-0.1,0-0.1c0.2-0.9,0.4-1.8,0.6-2.6c0,0,0,0,0,0
				c0,0,0,0,0,0c-0.2,0.9-0.4,1.9-0.7,2.8c0,0,0,0,0,0c-0.3-0.9-0.6-1.7-1-2.6c0,0,0,0,0-0.1c0,0,0,0,0,0.1
				c-0.2,0.9-0.5,1.8-0.7,2.7c0,0,0,0,0,0C273.7,167.7,273.4,166.8,273.1,165.9z"/>
			<path class="st44" d="M280.2,165.4C280.2,165.4,280.2,165.4,280.2,165.4c-0.5,0.1-0.9,0.1-1.4,0.2c0,0.4,0,0.9,0.1,1.3
				c0.4,0,0.8-0.1,1.2-0.1c0,0,0,0,0,0c-0.4,0-0.8,0.1-1.2,0.1c0,0.4,0,0.9,0.1,1.3c0.5,0,0.9-0.1,1.4-0.1c0,0,0,0,0,0
				c-0.5,0-1,0.1-1.5,0.1c0-0.9-0.1-1.8-0.1-2.7C279.2,165.4,279.7,165.4,280.2,165.4z"/>
			<path class="st44" d="M282.8,166.6c0,0.4,0,0.9,0.1,1.3c0,0,0,0,0,0c0-0.9-0.1-1.8-0.1-2.7c0.2,0,0.4,0,0.6,0
				c0.3,0,0.5,0,0.6,0.1c0.1,0.1,0.2,0.3,0.2,0.5c0,0.1,0,0.2,0,0.3c0,0.1-0.1,0.2-0.2,0.2c-0.1,0.1-0.2,0.1-0.2,0.2
				c-0.1,0-0.2,0.1-0.3,0.1c0,0,0,0,0,0c0,0,0,0,0,0c0.3,0.4,0.7,0.8,1,1.2c0,0,0,0,0,0c0,0,0,0,0,0c0,0,0,0,0,0
				c-0.3-0.4-0.7-0.8-1-1.1c0,0,0,0,0,0c0,0,0,0,0,0c0,0,0,0,0,0c0,0,0,0-0.1,0C283.1,166.5,283,166.6,282.8,166.6z M282.8,166.5
				c0.2,0,0.3,0,0.5,0c0.1,0,0.2,0,0.3-0.1c0.1,0,0.2-0.1,0.2-0.2c0.1-0.1,0.1-0.1,0.2-0.2c0-0.1,0-0.2,0-0.3c0-0.2-0.1-0.4-0.2-0.5
				c-0.1-0.1-0.3-0.1-0.6-0.1c-0.2,0-0.4,0-0.5,0C282.8,165.6,282.8,166.1,282.8,166.5z"/>
			<path class="st44" d="M290.7,164.5C290.7,164.6,290.7,164.6,290.7,164.5c-0.3,0.1-0.6,0.1-0.9,0.1c0,0.9,0.1,1.8,0.1,2.6
				c0,0,0,0,0,0c0-0.9-0.1-1.8-0.1-2.6c-0.3,0-0.6,0-0.9,0.1c0,0,0,0,0,0C289.4,164.6,290.1,164.6,290.7,164.5z"/>
			<path class="st44" d="M295,165.5c0,0.2,0,0.4-0.1,0.6c0,0.2-0.1,0.3-0.2,0.4c-0.1,0.1-0.2,0.2-0.4,0.3c-0.1,0.1-0.3,0.1-0.5,0.1
				c-0.2,0-0.3,0-0.5-0.1c-0.1-0.1-0.3-0.1-0.4-0.2c-0.1-0.1-0.2-0.2-0.3-0.4c-0.1-0.2-0.1-0.3-0.1-0.6c0-0.2,0-0.4,0.1-0.6
				c0-0.2,0.1-0.3,0.2-0.4c0.1-0.1,0.2-0.2,0.4-0.3c0.1-0.1,0.3-0.1,0.5-0.1c0.2,0,0.3,0,0.5,0.1c0.1,0.1,0.3,0.1,0.4,0.2
				c0.1,0.1,0.2,0.2,0.3,0.4C294.9,165.2,295,165.3,295,165.5z M294.9,165.6c0-0.2,0-0.4-0.1-0.5c-0.1-0.2-0.1-0.3-0.2-0.4
				c-0.1-0.1-0.2-0.2-0.4-0.2c-0.1,0-0.3-0.1-0.5-0.1c-0.2,0-0.3,0.1-0.4,0.1c-0.1,0.1-0.2,0.2-0.3,0.3c-0.1,0.1-0.2,0.3-0.2,0.4
				c0,0.2-0.1,0.4-0.1,0.6c0,0.2,0,0.4,0.1,0.5c0.1,0.2,0.1,0.3,0.3,0.4c0.1,0.1,0.2,0.2,0.4,0.2c0.1,0,0.3,0.1,0.5,0.1
				c0.2,0,0.3-0.1,0.4-0.1c0.1-0.1,0.2-0.2,0.3-0.3c0.1-0.1,0.2-0.3,0.2-0.4C294.9,165.9,294.9,165.8,294.9,165.6z"/>
			<path class="st44" d="M301.1,165.8C301.1,165.8,301.1,165.8,301.1,165.8C301.2,165.8,301.2,165.8,301.1,165.8
				C301.2,165.8,301.2,165.8,301.1,165.8C301.2,165.8,301.2,165.8,301.1,165.8c0.4-0.7,0.7-1.4,1-2.1c0,0,0,0,0,0c0,0,0,0,0,0
				c0,0.9,0.1,1.7,0.1,2.6c0,0,0,0,0,0c0-0.8-0.1-1.7-0.1-2.5c0,0,0,0,0,0c0,0,0,0,0,0C301.9,164.4,301.5,165.1,301.1,165.8
				C301.2,165.8,301.2,165.9,301.1,165.8C301.2,165.9,301.2,165.9,301.1,165.8C301.1,165.9,301.1,165.8,301.1,165.8
				c-0.4-0.6-0.8-1.2-1.2-1.9c0,0,0,0,0,0c0,0,0,0,0,0c0,0.8,0.1,1.7,0.1,2.5c0,0,0,0,0,0c0-0.9-0.1-1.8-0.1-2.6c0,0,0,0,0,0
				c0,0,0,0,0,0C300.3,164.5,300.7,165.1,301.1,165.8z"/>
			<path class="st44" d="M306.7,165.9C306.7,165.9,306.7,165.9,306.7,165.9C306.7,165.9,306.7,165.9,306.7,165.9
				c-0.2-0.3-0.3-0.6-0.4-0.9c-0.4,0-0.9,0.1-1.3,0.1c-0.1,0.3-0.2,0.6-0.3,0.9c0,0,0,0,0,0c0,0,0,0,0,0c0.3-0.9,0.6-1.8,0.9-2.7
				c0,0,0,0,0,0C305.9,164.3,306.3,165.1,306.7,165.9z M305,165.1c0.4,0,0.9-0.1,1.3-0.1c-0.2-0.5-0.5-1-0.7-1.5c0,0,0,0,0,0
				c0,0,0,0,0,0c0,0,0,0,0,0c0,0,0,0,0,0C305.3,164.1,305.2,164.6,305,165.1z"/>
			<path class="st44" d="M309,164.4c0.1,0,0.1,0,0.2,0c0,0,0,0,0.1,0c0,0,0,0,0,0c0,0,0,0,0,0c0,0,0,0,0,0c0.4-0.4,0.7-0.8,1.1-1.2
				c0,0,0,0,0,0c0,0,0,0,0,0c0,0,0,0,0,0c-0.4,0.4-0.8,0.9-1.2,1.3c0,0,0,0,0,0c0,0,0,0-0.1,0c0,0,0,0,0.1,0c0,0,0,0,0,0
				c0.5,0.4,0.9,0.8,1.4,1.2c0,0,0,0,0,0c0,0,0,0,0,0c0,0,0,0,0,0c-0.4-0.4-0.9-0.7-1.3-1.1c0,0,0,0,0,0c0,0,0,0,0,0c0,0,0,0,0,0
				c0,0,0,0-0.1,0C309.1,164.4,309.1,164.5,309,164.4c0,0.5,0,0.9,0.1,1.3c0,0,0,0,0,0c0-0.9-0.1-1.7-0.1-2.6c0,0,0,0,0,0
				C309,163.6,309,164,309,164.4z"/>
			<path class="st44" d="M314.4,162.8C314.4,162.8,314.4,162.8,314.4,162.8c-0.5,0.1-0.9,0.1-1.4,0.1c0,0.4,0,0.8,0.1,1.2
				c0.4,0,0.8-0.1,1.2-0.1c0,0,0,0,0,0c-0.4,0-0.8,0.1-1.2,0.1c0,0.4,0,0.8,0.1,1.2c0.5,0,0.9-0.1,1.4-0.1c0,0,0,0,0,0
				c-0.5,0-1,0.1-1.5,0.1c0-0.9-0.1-1.7-0.1-2.6C313.4,162.9,313.9,162.8,314.4,162.8z"/>
			<path class="st44" d="M321.2,164.8C321.2,164.8,321.2,164.8,321.2,164.8C321.2,164.8,321.2,164.8,321.2,164.8
				c-0.2-0.3-0.3-0.6-0.4-0.8c-0.4,0-0.9,0.1-1.3,0.1c-0.1,0.3-0.2,0.6-0.3,0.9c0,0,0,0,0,0c0,0,0,0,0,0c0.3-0.9,0.6-1.7,0.9-2.6
				c0,0,0,0,0,0C320.4,163.2,320.8,164,321.2,164.8z M319.5,164.1c0.4,0,0.9-0.1,1.3-0.1c-0.2-0.5-0.5-1-0.7-1.4c0,0,0,0,0,0
				c0,0,0,0,0,0c0,0,0,0,0,0c0,0,0,0,0,0C319.8,163,319.6,163.5,319.5,164.1z"/>
			<path class="st44" d="M327,164.4c0.1,0,0.2,0,0.3,0c0.1,0,0.2,0,0.2-0.1c0.1,0,0.1-0.1,0.2-0.1c0.1,0,0.1-0.1,0.2-0.1
				c0-0.3,0-0.5,0-0.8c-0.2,0-0.4,0-0.6,0c0,0,0,0,0,0c0,0,0,0,0,0c0.2,0,0.4,0,0.6,0c0,0.3,0,0.5,0,0.8c-0.1,0-0.1,0.1-0.2,0.1
				c-0.1,0-0.1,0.1-0.2,0.1c-0.1,0-0.2,0.1-0.2,0.1C327.2,164.4,327.1,164.4,327,164.4c-0.2,0-0.3,0-0.5,0c-0.1,0-0.3-0.1-0.4-0.2
				c-0.1-0.1-0.2-0.2-0.3-0.4c-0.1-0.2-0.1-0.3-0.1-0.5c0-0.2,0-0.4,0.1-0.5c0-0.2,0.1-0.3,0.2-0.4c0.1-0.1,0.2-0.2,0.4-0.3
				c0.1-0.1,0.3-0.1,0.5-0.1c0.1,0,0.2,0,0.3,0c0.1,0,0.2,0,0.2,0c0.1,0,0.1,0,0.2,0.1c0.1,0,0.1,0.1,0.2,0.1c0,0,0,0,0,0
				c0,0,0,0,0,0c0,0,0,0-0.1,0c0,0-0.1-0.1-0.1-0.1c-0.1,0-0.1-0.1-0.2-0.1c-0.1,0-0.2,0-0.4,0c-0.2,0-0.3,0.1-0.5,0.1
				c-0.1,0.1-0.3,0.2-0.4,0.3c-0.1,0.1-0.2,0.2-0.2,0.4c0,0.2-0.1,0.3-0.1,0.5c0,0.2,0,0.4,0.1,0.5c0.1,0.1,0.1,0.3,0.3,0.4
				c0.1,0.1,0.2,0.2,0.4,0.2C326.7,164.4,326.8,164.4,327,164.4z"/>
			<path class="st44" d="M330.5,162.9c0,0.4,0,0.8,0.1,1.2c0,0,0,0,0,0c0-0.8-0.1-1.6-0.1-2.5c0.2,0,0.4,0,0.6,0
				c0.3,0,0.5,0,0.6,0.1c0.1,0.1,0.2,0.2,0.2,0.5c0,0.1,0,0.2,0,0.3c0,0.1-0.1,0.2-0.2,0.2c-0.1,0.1-0.2,0.1-0.2,0.1
				c-0.1,0-0.2,0.1-0.3,0.1c0,0,0,0,0,0c0,0,0,0,0,0c0.3,0.4,0.7,0.7,1,1.1c0,0,0,0,0,0c0,0,0,0,0,0c0,0,0,0,0,0
				c-0.3-0.3-0.7-0.7-1-1c0,0,0,0,0,0c0,0,0,0,0,0c0,0,0,0,0,0c0,0,0,0-0.1,0C330.8,162.9,330.6,162.9,330.5,162.9z M330.5,162.9
				c0.2,0,0.3,0,0.5,0c0.1,0,0.2,0,0.3-0.1c0.1,0,0.2-0.1,0.2-0.1c0.1-0.1,0.1-0.1,0.2-0.2c0-0.1,0-0.2,0-0.3c0-0.2-0.1-0.3-0.2-0.4
				c-0.1-0.1-0.3-0.1-0.6-0.1c-0.2,0-0.4,0-0.5,0C330.5,162.1,330.5,162.5,330.5,162.9z"/>
			<path class="st44" d="M335.8,161.3C335.8,161.3,335.8,161.3,335.8,161.3c-0.5,0.1-0.9,0.1-1.4,0.1c0,0.4,0,0.8,0.1,1.1
				c0.4,0,0.8-0.1,1.2-0.1c0,0,0,0,0,0c-0.4,0-0.8,0.1-1.2,0.1c0,0.4,0,0.8,0.1,1.2c0.5,0,0.9-0.1,1.4-0.1c0,0,0,0,0,0
				c-0.5,0-1,0.1-1.5,0.1c0-0.8-0.1-1.6-0.1-2.4C334.8,161.4,335.3,161.3,335.8,161.3z"/>
			<path class="st44" d="M340.1,163.4C340.1,163.4,340.1,163.4,340.1,163.4C340.1,163.4,340.1,163.4,340.1,163.4
				c-0.2-0.3-0.3-0.5-0.4-0.8c-0.4,0-0.9,0.1-1.3,0.1c-0.1,0.3-0.2,0.6-0.3,0.8c0,0,0,0,0,0c0,0,0,0,0,0c0.3-0.8,0.6-1.7,0.9-2.5
				c0,0,0,0,0,0C339.3,161.9,339.7,162.6,340.1,163.4z M338.4,162.7c0.4,0,0.9-0.1,1.3-0.1c-0.2-0.5-0.5-0.9-0.7-1.4c0,0,0,0,0,0
				c0,0,0,0,0,0c0,0,0,0,0,0c0,0,0,0,0,0C338.7,161.7,338.5,162.2,338.4,162.7z"/>
			<path class="st44" d="M343.6,160.8C343.6,160.8,343.6,160.8,343.6,160.8c-0.3,0.1-0.6,0.1-0.9,0.1c0,0.8,0.1,1.6,0.1,2.4
				c0,0,0,0,0,0c0-0.8-0.1-1.6-0.1-2.4c-0.3,0-0.6,0-0.9,0.1c0,0,0,0,0,0C342.3,160.9,343,160.8,343.6,160.8z"/>
			<path class="st44" d="M349.6,160.6C349.6,160.6,349.6,160.6,349.6,160.6C349.5,160.6,349.5,160.6,349.6,160.6
				c-0.1,0-0.1-0.1-0.2-0.1c0,0-0.1,0-0.2-0.1c-0.1,0-0.2,0-0.3,0c-0.1,0-0.2,0-0.3,0.1c-0.1,0-0.1,0.1-0.2,0.1
				c-0.1,0.1-0.1,0.1-0.1,0.2c0,0.1,0,0.1,0,0.2c0,0.1,0,0.2,0.1,0.2c0,0.1,0.1,0.1,0.2,0.1c0.1,0,0.1,0.1,0.2,0.1
				c0.1,0,0.2,0,0.2,0.1c0.1,0,0.2,0,0.2,0.1c0.1,0,0.2,0.1,0.2,0.1c0.1,0,0.1,0.1,0.2,0.2c0,0.1,0.1,0.1,0.1,0.2c0,0.1,0,0.2,0,0.3
				c0,0.1-0.1,0.2-0.1,0.2c-0.1,0.1-0.1,0.1-0.2,0.2c-0.1,0-0.2,0.1-0.3,0.1c-0.1,0-0.2,0-0.2,0c-0.1,0-0.1,0-0.2,0
				c-0.1,0-0.1-0.1-0.2-0.1c0,0-0.1-0.1-0.1-0.1c0,0,0,0,0,0c0,0,0,0,0,0c0,0,0,0,0,0c0,0,0,0,0,0c0,0,0,0,0.1,0.1
				c0,0,0.1,0,0.1,0.1c0,0,0.1,0,0.1,0.1c0,0,0.1,0,0.2,0c0.1,0,0.1,0,0.2,0c0.1,0,0.2,0,0.3-0.1c0.1,0,0.2-0.1,0.2-0.2
				c0.1-0.1,0.1-0.1,0.1-0.2c0-0.1,0-0.2,0-0.3c0-0.1,0-0.1,0-0.2c0-0.1-0.1-0.1-0.1-0.1c0,0-0.1-0.1-0.2-0.1c-0.1,0-0.1,0-0.2-0.1
				c-0.1,0-0.1,0-0.2,0c-0.1,0-0.1,0-0.2,0c-0.1,0-0.1,0-0.2-0.1c-0.1,0-0.1-0.1-0.2-0.1c0,0-0.1-0.1-0.1-0.1c0-0.1,0-0.1,0-0.2
				c0-0.1,0-0.1,0-0.2c0-0.1,0.1-0.1,0.1-0.2c0.1-0.1,0.1-0.1,0.2-0.1c0.1,0,0.2-0.1,0.3-0.1c0.1,0,0.2,0,0.3,0
				C349.4,160.5,349.5,160.5,349.6,160.6C349.6,160.6,349.6,160.6,349.6,160.6z"/>
			<path class="st44" d="M354.3,161.3c0,0.2,0,0.4-0.1,0.5c0,0.2-0.1,0.3-0.2,0.4c-0.1,0.1-0.2,0.2-0.4,0.3
				c-0.1,0.1-0.3,0.1-0.5,0.1c-0.2,0-0.3,0-0.5-0.1c-0.1,0-0.3-0.1-0.4-0.2c-0.1-0.1-0.2-0.2-0.3-0.4c-0.1-0.1-0.1-0.3-0.1-0.5
				c0-0.2,0-0.4,0.1-0.5c0-0.2,0.1-0.3,0.2-0.4c0.1-0.1,0.2-0.2,0.4-0.3c0.1-0.1,0.3-0.1,0.5-0.1c0.2,0,0.3,0,0.5,0.1
				c0.1,0,0.3,0.1,0.4,0.2c0.1,0.1,0.2,0.2,0.3,0.4C354.2,160.9,354.2,161.1,354.3,161.3z M354.2,161.3c0-0.2,0-0.3-0.1-0.5
				c-0.1-0.1-0.1-0.3-0.2-0.4c-0.1-0.1-0.2-0.2-0.4-0.2c-0.1,0-0.3-0.1-0.5-0.1c-0.2,0-0.3,0-0.4,0.1c-0.1,0.1-0.2,0.1-0.3,0.3
				c-0.1,0.1-0.2,0.2-0.2,0.4c0,0.1-0.1,0.3-0.1,0.5c0,0.2,0,0.3,0.1,0.5c0.1,0.1,0.1,0.3,0.3,0.4c0.1,0.1,0.2,0.2,0.4,0.2
				c0.1,0,0.3,0.1,0.5,0c0.2,0,0.3,0,0.4-0.1c0.1-0.1,0.2-0.1,0.3-0.3c0.1-0.1,0.2-0.2,0.2-0.4C354.2,161.6,354.2,161.4,354.2,161.3
				z"/>
			<path class="st44" d="M358.1,159.8C358.1,159.9,358.1,159.9,358.1,159.8c-0.5,0.1-0.9,0.1-1.4,0.1c0,0.4,0,0.7,0.1,1.1
				c0.4,0,0.8-0.1,1.2-0.1c0,0,0,0,0,0c-0.4,0-0.8,0.1-1.2,0.1c0,0.4,0,0.8,0.1,1.1c0,0,0,0,0,0c0-0.8-0.1-1.6-0.1-2.3
				C357.2,159.9,357.7,159.9,358.1,159.8z"/>
			<path class="st44" d="M362.1,159.6C362.1,159.6,362.1,159.6,362.1,159.6c-0.3,0.1-0.6,0.1-0.9,0.1c0,0.8,0.1,1.5,0.1,2.3
				c0,0,0,0,0,0c0-0.8-0.1-1.5-0.1-2.3c-0.3,0-0.6,0-0.9,0.1c0,0,0,0,0,0C360.8,159.7,361.5,159.6,362.1,159.6z"/>
			<path class="st44" d="M364,159.5C364,159.5,364,159.5,364,159.5C364,159.5,364,159.5,364,159.5c0.3,0.7,0.6,1.4,0.9,2.1
				c0,0,0,0,0,0c0,0,0,0,0,0c0,0,0,0,0,0c0,0,0,0,0,0c0.2-0.7,0.5-1.5,0.7-2.2c0,0,0,0,0,0c0,0,0,0,0,0c0,0,0,0,0,0
				c0.3,0.7,0.6,1.4,0.9,2.1c0,0,0,0.1,0,0.1c0,0,0-0.1,0-0.1c0.2-0.7,0.4-1.4,0.6-2.2c0,0,0,0,0,0c0,0,0,0,0,0
				c-0.2,0.8-0.4,1.5-0.7,2.3c0,0,0,0,0,0c-0.3-0.7-0.6-1.4-1-2.1c0,0,0,0,0,0c0,0,0,0,0,0.1c-0.2,0.7-0.5,1.5-0.7,2.2c0,0,0,0,0,0
				C364.6,161,364.3,160.2,364,159.5z"/>
			<path class="st44" d="M371.4,161.3C371.4,161.3,371.4,161.3,371.4,161.3C371.4,161.3,371.4,161.3,371.4,161.3
				c-0.2-0.3-0.3-0.5-0.4-0.7c-0.4,0-0.9,0.1-1.3,0.1c-0.1,0.3-0.2,0.5-0.3,0.8c0,0,0,0,0,0c0,0,0,0,0,0c0.3-0.8,0.6-1.6,0.9-2.3
				c0,0,0,0,0,0C370.6,159.8,371,160.6,371.4,161.3z M369.6,160.6c0.4,0,0.9-0.1,1.3-0.1c-0.2-0.4-0.5-0.9-0.7-1.3c0,0,0,0,0,0
				c0,0,0,0,0,0c0,0,0,0,0,0c0,0,0,0,0,0C370,159.7,369.8,160.1,369.6,160.6z"/>
			<path class="st44" d="M373.7,160.1c0,0.4,0,0.7,0.1,1.1c0,0,0,0,0,0c0-0.7-0.1-1.5-0.1-2.2c0.2,0,0.4,0,0.6,0
				c0.3,0,0.5,0,0.6,0.1c0.1,0.1,0.2,0.2,0.2,0.4c0,0.1,0,0.2,0,0.2c0,0.1-0.1,0.1-0.2,0.2c-0.1,0.1-0.2,0.1-0.2,0.1
				c-0.1,0-0.2,0.1-0.3,0.1c0,0,0,0,0,0c0,0,0,0,0,0c0.3,0.3,0.7,0.7,1,1c0,0,0,0,0,0c0,0,0,0,0,0c0,0,0,0,0,0
				c-0.3-0.3-0.7-0.6-1-0.9c0,0,0,0,0,0c0,0,0,0,0,0c0,0,0,0,0,0c0,0,0,0-0.1,0C374,160,373.8,160,373.7,160.1z M373.7,160
				c0.2,0,0.3,0,0.5,0c0.1,0,0.2,0,0.3-0.1c0.1,0,0.2-0.1,0.2-0.1c0.1-0.1,0.1-0.1,0.2-0.2c0-0.1,0-0.2,0-0.2c0-0.2-0.1-0.3-0.2-0.4
				c-0.1-0.1-0.3-0.1-0.6-0.1c-0.2,0-0.4,0-0.5,0C373.7,159.3,373.7,159.7,373.7,160z"/>
			<path class="st44" d="M379,158.6C379,158.6,379,158.6,379,158.6c-0.5,0.1-0.9,0.1-1.4,0.1c0,0.3,0,0.7,0.1,1c0.4,0,0.8,0,1.2-0.1
				c0,0,0,0,0,0c-0.4,0-0.8,0-1.2,0.1c0,0.4,0,0.7,0.1,1.1c0.5,0,0.9-0.1,1.4-0.1c0,0,0,0,0,0c-0.5,0-1,0.1-1.5,0.1
				c0-0.7-0.1-1.5-0.1-2.2C378,158.6,378.5,158.6,379,158.6z"/>
		</g>
	</g>
</g>
<g>
	<polygon class="st43" points="137,147.6 137,142.5 142.2,142.5 142.2,145 140.8,145 140.8,147.6 	"/>
	<linearGradient id="SVGID_10_" gradientUnits="userSpaceOnUse" x1="136.9897" y1="151.8044" x2="148.6605" y2="151.8044">
		<stop  offset="0" style="stop-color:#939598"/>
		<stop  offset="1" style="stop-color:#231F20"/>
	</linearGradient>
	<path class="st45" d="M146.7,154.9v3c0,0.2,0,0.4,0.1,0.6c0,0,0,0,0,0c0,0.1,0.1,0.2,0.1,0.3c0,0,0,0,0,0c0.2,0.4,0.4,0.8,0.6,1
		c0,0,0,0,0,0c-0.9,1-3.1,1.3-3.1,1.3H137v-12.7h3.7v10.2h2.9c1.5-0.1,1.4-1.3,1.4-1.3v-11.1c0-1.3-1.9-1.2-1.9-1.2v-2.6
		c3.2-0.2,4.3,1.1,4.4,1.5c-0.6,1-0.7,2.2-0.7,3.3v0c0,0.1,0,0.1,0,0.2c0,0,0,0,0,0c0,0.1,0,0.2,0,0.3c0,0.1,0,0.2,0,0.3
		c0.1,0.7,0.5,1.5,0.9,2.2c0.5,0.8,1,1.5,1,1.5v3.1H146.7z"/>
	<path class="st46" d="M146.8,147.5c0,0.1,0,0.2,0,0.3C146.8,147.7,146.8,147.6,146.8,147.5C146.8,147.5,146.8,147.5,146.8,147.5z"
		/>
	<path class="st46" d="M148.7,151.6v0.1c0,0-0.5-0.6-1-1.5C148.2,151,148.7,151.6,148.7,151.6z"/>
	<path class="st46" d="M146.9,158.8c0-0.1-0.1-0.2-0.1-0.3C146.8,158.6,146.9,158.7,146.9,158.8z"/>
	<rect x="148.6" y="137.5" class="st43" width="2" height="1.4"/>
	<rect x="147.7" y="140.3" class="st47" width="1.5" height="1.1"/>
	<rect x="151.1" y="139.7" class="st48" width="1.2" height="0.9"/>
	<path class="st46" d="M151.7,148c-0.1-0.1-0.1-0.2-0.1-0.3C151.6,147.8,151.6,147.9,151.7,148z"/>
	<linearGradient id="SVGID_11_" gradientUnits="userSpaceOnUse" x1="147.6319" y1="148.8292" x2="158.9008" y2="148.8292">
		<stop  offset="0" style="stop-color:#939598"/>
		<stop  offset="1" style="stop-color:#231F20"/>
	</linearGradient>
	<path class="st49" d="M151.5,147.7c0,0.1,0.1,0.2,0.1,0.3c0.7,1.1,3.7,2.9,4,3.1c0.3,0.2,2.5,1.5,3.1,3.8c0,0.2,0.1,0.4,0.1,0.5
		H155c-0.2-0.4-0.4-0.9-0.8-1.3c-0.7-0.8-3.7-3-5.1-4.1c-0.8-0.7-1.1-1.4-1.3-1.9c0-0.2-0.1-0.4-0.1-0.5c-0.1-0.6-0.1-1.3,0.1-2.1
		c1.1-3.8,4.8-3.6,7.6-3.3c3.1,0.3,3.5,3.5,3.5,3.5v1.8h-3.5l-0.1-1.4c0-1.6-2.5-1.6-3.3-1C151.4,145.5,151.1,146.6,151.5,147.7z"/>
	<linearGradient id="SVGID_12_" gradientUnits="userSpaceOnUse" x1="147.6316" y1="158.3042" x2="152.8044" y2="158.3042">
		<stop  offset="0" style="stop-color:#939598"/>
		<stop  offset="1" style="stop-color:#231F20"/>
	</linearGradient>
	<path class="st50" d="M152.8,158.4v2.6c-0.6,0-1.2-0.1-1.7-0.1c-3.1-0.3-3.5-3.5-3.5-3.5v-1.8h3.5l0.1,1.4
		C151.2,157.9,152,158.3,152.8,158.4z"/>
	<path class="st51" d="M147.8,148.2c-0.1-0.3-0.1-0.5-0.1-0.5s0,0,0,0C147.7,147.8,147.7,148,147.8,148.2z"/>
	<path class="st43" d="M158.9,156.1c0,0.5-0.1,0.9-0.2,1.4c-0.8,2.7-2.9,3.4-5,3.4v-2.6c0.3-0.1,0.6-0.2,0.8-0.3
		c0.5-0.3,0.8-1.1,0.6-1.9H158.9z"/>
	<path class="st46" d="M147.5,159.9c-0.2-0.3-0.4-0.6-0.6-1C147.1,159.4,147.4,159.8,147.5,159.9z"/>
	<path class="st46" d="M146.8,147.3c0,0.1,0,0.1,0,0.2C146.8,147.4,146.8,147.3,146.8,147.3z"/>
	<path class="st46" d="M147.7,150.3c-0.4-0.7-0.8-1.5-0.9-2.2c0-0.1,0-0.2,0-0.3C146.9,148.6,147.3,149.5,147.7,150.3z"/>
</g>
<title>Security on</title>
<path class="st52" d="M165.3,48c-1.7-0.7-2.6-2.7-2-4.4c0-0.1,0.1-0.3,0.1-0.4l0,0c0.1-1-0.7-1.9-1.7-2c-0.6,0-1.2,0.2-1.6,0.7l0,0
	c-0.1,0.1-0.2,0.2-0.2,0.4c-0.7,1.7-2.7,2.6-4.4,2c-0.1,0-0.3-0.1-0.4-0.1l0,0c-1-0.1-1.9,0.7-2,1.7c0,0.6,0.2,1.2,0.7,1.6l0,0
	c0.1,0.1,0.2,0.2,0.4,0.2c1.7,0.7,2.6,2.7,2,4.4c0,0.1-0.1,0.3-0.1,0.4l0,0c-0.1,1,0.7,1.9,1.7,2c0.6,0,1.2-0.2,1.6-0.7l0,0
	c0.1-0.1,0.2-0.2,0.2-0.4c0.7-1.7,2.7-2.6,4.4-2c0.1,0,0.3,0.1,0.4,0.1l0,0c1,0.1,1.9-0.7,2-1.7c0-0.6-0.2-1.2-0.7-1.6l0,0
	C165.5,48.1,165.4,48,165.3,48z"/>
<path class="st52" d="M19.3,373c-1.7-0.7-2.6-2.7-2-4.4c0-0.1,0.1-0.3,0.1-0.4l0,0c0.1-1-0.7-1.9-1.7-2c-0.6,0-1.2,0.2-1.6,0.7l0,0
	c-0.1,0.1-0.2,0.2-0.2,0.4c-0.7,1.7-2.7,2.6-4.4,2c-0.1,0-0.3-0.1-0.4-0.1l0,0c-1-0.1-1.9,0.7-2,1.7c0,0.6,0.2,1.2,0.7,1.6l0,0
	c0.1,0.1,0.2,0.2,0.4,0.2c1.7,0.7,2.6,2.7,2,4.4c0,0.1-0.1,0.3-0.1,0.4l0,0c-0.1,1,0.7,1.9,1.7,2c0.6,0,1.2-0.2,1.6-0.7l0,0
	c0.1-0.1,0.2-0.2,0.2-0.4c0.7-1.7,2.7-2.6,4.4-2c0.1,0,0.3,0.1,0.4,0.1l0,0c1,0.1,1.9-0.7,2-1.7c0-0.6-0.2-1.2-0.7-1.6l0,0
	C19.5,373.1,19.4,373,19.3,373z"/>
<circle class="st53" cx="748.4" cy="254" r="6"/>
<circle class="st53" cx="121.4" cy="683" r="6"/>
<circle class="st53" cx="850.4" cy="485" r="6"/>
<path class="st52" d="M704.3,77c-1.7-0.7-2.6-2.7-2-4.4c0-0.1,0.1-0.3,0.1-0.4l0,0c0.1-1-0.7-1.9-1.7-2c-0.6,0-1.2,0.2-1.6,0.7l0,0
	c-0.1,0.1-0.2,0.2-0.2,0.4c-0.7,1.7-2.7,2.6-4.4,2c-0.1,0-0.3-0.1-0.4-0.1l0,0c-1-0.1-1.9,0.7-2,1.7c0,0.6,0.2,1.2,0.7,1.6l0,0
	c0.1,0.1,0.2,0.2,0.4,0.2c1.7,0.7,2.6,2.7,2,4.4c0,0.1-0.1,0.3-0.1,0.4l0,0c-0.1,1,0.7,1.9,1.7,2c0.6,0,1.2-0.2,1.6-0.7l0,0
	c0.1-0.1,0.2-0.2,0.2-0.4c0.7-1.7,2.7-2.6,4.4-2c0.1,0,0.3,0.1,0.4,0.1l0,0c1,0.1,1.9-0.7,2-1.7c0-0.6-0.2-1.2-0.7-1.6l0,0
	C704.5,77.1,704.4,77,704.3,77z"/>
<path class="st52" d="M804.3,705c-1.7-0.7-2.6-2.7-2-4.4c0-0.1,0.1-0.3,0.1-0.4l0,0c0.1-1-0.7-1.9-1.7-2c-0.6,0-1.2,0.2-1.6,0.7l0,0
	c-0.1,0.1-0.2,0.2-0.2,0.4c-0.7,1.7-2.7,2.6-4.4,2c-0.1,0-0.3-0.1-0.4-0.1l0,0c-1-0.1-1.9,0.7-2,1.7c0,0.6,0.2,1.2,0.7,1.6l0,0
	c0.1,0.1,0.2,0.2,0.4,0.2c1.7,0.7,2.6,2.7,2,4.4c0,0.1-0.1,0.3-0.1,0.4l0,0c-0.1,1,0.7,1.9,1.7,2c0.6,0,1.2-0.2,1.6-0.7l0,0
	c0.1-0.1,0.2-0.2,0.2-0.4c0.7-1.7,2.7-2.6,4.4-2c0.1,0,0.3,0.1,0.4,0.1l0,0c1,0.1,1.9-0.7,2-1.7c0-0.6-0.2-1.2-0.7-1.6l0,0
	C804.5,705.1,804.4,705,804.3,705z"/>
<path class="st52" d="M12.3,183c-1.7-0.7-2.6-2.7-2-4.4c0-0.1,0.1-0.3,0.1-0.4l0,0c0.1-1-0.7-1.9-1.7-2c-0.6,0-1.2,0.2-1.6,0.7l0,0
	c-0.1,0.1-0.2,0.2-0.2,0.4c-0.7,1.7-2.7,2.6-4.4,2c-0.1,0-0.3-0.1-0.4-0.1l0,0c-1-0.1-1.9,0.7-2,1.7c0,0.6,0.2,1.2,0.7,1.6l0,0
	c0.1,0.1,0.2,0.2,0.4,0.2c1.7,0.7,2.6,2.7,2,4.4c0,0.1-0.1,0.3-0.1,0.4l0,0c-0.1,1,0.7,1.9,1.7,2c0.6,0,1.2-0.2,1.6-0.7l0,0
	c0.1-0.1,0.2-0.2,0.2-0.4c0.7-1.7,2.7-2.6,4.4-2c0.1,0,0.3,0.1,0.4,0.1l0,0c1,0.1,1.9-0.7,2-1.7c0-0.6-0.2-1.2-0.7-1.6l0,0
	C12.5,183.1,12.4,183,12.3,183z"/>
<circle class="st54" cx="79.4" cy="284" r="6"/>
<circle class="st54" cx="853.4" cy="332" r="6"/>
<g class="st55">
	<rect x="583.4" class="st56" width="3" height="17"/>
	<rect x="576.4" y="7" class="st56" width="17" height="3"/>
</g>
<g class="st55">
	<rect x="26.4" y="702" class="st56" width="3" height="17"/>
	<rect x="19.4" y="709" class="st56" width="17" height="3"/>
</g>
<g class="st55">
	<rect x="709.4" y="396" class="st56" width="3" height="17"/>
	<rect x="702.4" y="403" class="st56" width="17" height="3"/>
</g>
<polygon class="st54" points="795.6,123 802,128.9 811.2,115.5 814.4,118.2 802,134.3 792.9,124.1 "/>
<path class="st57" d="M684.3,329.5c-6.4,11.7-22.5,27-30.7,44.1c-2.1-7.7-4.8-15.7-4.8-15.7s-10-53.7,19.6-67.5
	c4.9-0.5,9.8,0.9,13.8,3.9C686.5,308.5,688.5,321.8,684.3,329.5z"/>
<g class="st58">
	
		<linearGradient id="SVGID_13_" gradientUnits="userSpaceOnUse" x1="461.4142" y1="426.8837" x2="621.8922" y2="426.8837" gradientTransform="matrix(1 0 0 -1 0 768)">
		<stop  offset="0" style="stop-color:#808080;stop-opacity:0.25"/>
		<stop  offset="0.5351" style="stop-color:#808080;stop-opacity:0.12"/>
		<stop  offset="1" style="stop-color:#808080;stop-opacity:0.1"/>
	</linearGradient>
	<polygon class="st59" points="482.6,318.8 533.4,365.4 596.5,274.5 621.9,295.7 533.4,407.8 461.4,327.3 	"/>
</g>
<polygon class="st60" points="494.6,321.6 535.8,359.4 594.3,273.5 614.9,290.7 535.8,393.8 477.4,328.5 "/>
<g class="st55">
	<rect x="710.9" y="637.7" class="st56" width="3" height="17"/>
	<rect x="703.9" y="644.7" class="st56" width="17" height="3"/>
</g>
<rect x="706.5" y="211.4" transform="matrix(0.9992 -3.874900e-02 3.874900e-02 0.9992 -8.2071 27.9759)" class="st61" width="22.2" height="28.6"/>
<path class="st62" d="M627.9,311.1c0,0-30.8-14.7-30.3-2s31,21.1,31,21.1L627.9,311.1z"/>
<path class="st61" d="M644.8,418.5c0,0-14.5,35.5-19.9,61.2s-13.5,60.9-3,86s40.4,98.6,40.7,106.5s-2.6,16,3.8,15.8
	s40.9-11.1,42.3-16s-11.8-17-11.8-17l-32.6-102.1l34-66.5l24.5,99.2l4.8,123.8c0,0,23.6-7.3,27-1c0,0,10.6-14.7,11.9-21.1
	s-5-128.6-5-128.6s21.6-139.2,4.2-138.5S679.8,379,644.8,418.5z"/>
<path class="st63" d="M666.1,681.6c0,0-16.1,35.6-17.6,37.3s-12,18-4.1,17.6s26.7-9,40.5-22.2s32-36.2,30.3-37.7s-12.9-5.9-12.9-5.9
	L666.1,681.6z"/>
<path class="st63" d="M730.5,701.4c0,0-1,15.9-3.9,22.4s-2.6,16,5.4,15.7s28.5-4.3,28.5-4.3s1.2-9.6-0.4-11.1s-8.7-18.7-5.7-23.6
	S730.5,701.4,730.5,701.4z"/>
<path class="st62" d="M742.2,184.2c0,0,16.9,26.4,23.5,32.5s-12,19.5-12,19.5l-33.2,4.5c0,0,0.4-30.2-1.3-33.3
	S742.2,184.2,742.2,184.2z"/>
<path class="st61" d="M713.4,218.7c0,0,6.8,12.5,13.2,12.2s39.2-14.2,40.6-19.1s10.9,34.6,10.9,34.6l-80.4,141.4l-19.6-13.5l9.5-83
	l7.8-44.8L713.4,218.7z"/>
<path class="st64" d="M770.1,345.3c-3.2,6.7-5.2,13.7-4.9,20.9c0,0.3,0,0.6,0.1,1c0.8,14.7,6.2,31.7,8.1,44c1.4,8.9,1,15.3-4.2,16.9
	c-12.6,3.7,1.8,6.3-46.8,22.5s-57.2,2.2-57.3-1s6.9-27.3,5.2-28.8s-23.1,20-29.5,17s-0.7-19.1-0.7-19.1s14.6-34,14.3-41.9
	s22.1-45.4,22.1-45.4l15.2-99.2c0,0,5.9-12.9,13.7-14.8s14.4,2.6,14.4,2.6l-13.2,29.1l-13.9,51.4l2.3,19c0,0,16.2-34,26.8-47.1
	s33.3-44.2,33.3-44.2s5.3-17.8,1.3-23.2c-4-5.3,16.6-6.1,25.4,15.8c4.7,11.6,12.2,28.9,17,45.1c4.2,14.3,6.2,27.6,2,35.3
	C794.4,312.8,778.3,328.2,770.1,345.3z"/>
<path class="st64" d="M683,297.8l-25.2,7.3l-34.9,1.4l-3.6,30.3l57.4,4.1C676.8,341,691.1,300.7,683,297.8z"/>
<path class="st62" d="M724.1,399.8c0,0-33.7,5.6-26,15.7s37.5-0.5,37.5-0.5L724.1,399.8z"/>
<path class="st57" d="M765.2,367.1c0.8,14.7,6.2,31.7,8.1,44c-10.7,10.1-20.9,19.1-24.8,19.2c-7.9,0.3-20.7-0.8-25.4,1
	s-7.5-28.3-7.5-28.3s2.8-9.6,15.3-14.9C739.5,384.6,755.7,375,765.2,367.1z"/>
<path class="st64" d="M784.6,252.5c0,0,26.9-4.2,25.4,40.4s2.8,73-8,81.4s-45.9,46.3-53.8,46.6s-20.7-0.8-25.4,1s-7.5-28.3-7.5-28.3
	s2.8-9.6,15.3-14.9s42-23.9,41.8-30.2s-7.5-28.3-7.5-28.3S755,266.4,784.6,252.5z"/>
<circle class="st62" cx="718.5" cy="188.3" r="35"/>
<path class="st65" d="M695,138.2c-0.8,0.7-1.9,1.2-2.9,1.5c-1.1,0.2-2.2-0.5-2.4-1.7c-0.8,1.7-1.7,3.4-3.3,4.3s-4.2,0.1-4.4-1.7
	c-0.2,1.4-0.9,2.7-1.8,3.7c-1,1-2.8,1.2-3.7,0.1c0.7,3.9,0.3,7.9,0.5,11.9s1.3,8.2,4.3,10.8c4.4,3.8,10.9,2.9,16.7,2.1
	c0.9-0.2,1.8-0.1,2.6,0.1c2.2,0.9,2.1,3.9,2.1,6.3c0.4,8.5,6.8,15.5,15.2,16.5c2.3,0.4,4.6-0.2,6.5-1.6c1.6-1.4,2.5-3.6,4.3-4.7
	c3-1.7,6.7,0.8,9,3.5s4.4,6,7.9,6.5c4.6,0.6,8-4,9.7-8.3c4.7-12.1,4.4-25.6-1-37.5C744.7,129.3,712.2,126.1,695,138.2z"/>
<image style="overflow:visible;" width="1366" height="768" xlink:href="7465E3A6.jpg"  transform="matrix(1 0 0 1 -1451.1592 -36.4748)">
</image>
<text transform="matrix(1 0 0 1 613 349)" class="st64 st66 st67">6</text>
</svg>
