<?xml version="1.0" encoding="utf-8"?>
<!-- Generator: Adobe Illustrator 21.0.0, SVG Export Plug-In . SVG Version: 6.00 Build 0)  -->
<svg version="1.1" id="f1410098-b6ef-424e-beee-8c1519bc1d1f"
	 xmlns="http://www.w3.org/2000/svg" xmlns:xlink="http://www.w3.org/1999/xlink" x="0px" y="0px" viewBox="0 0 915.7 574.3"
	 style="enable-background:new 0 0 915.7 574.3;" xml:space="preserve">
<style type="text/css">
	.st0{fill:#2B5DAD;}
	.st1{fill:#1B45A1;}
	.st2{fill:url(#SVGID_1_);}
	.st3{fill:url(#SVGID_2_);}
	.st4{fill:#65ACE4;}
	.st5{fill:url(#SVGID_3_);}
	.st6{fill:url(#SVGID_4_);}
	.st7{fill:#FFFFFF;}
	.st8{fill:url(#SVGID_5_);}
	.st9{fill:url(#SVGID_6_);}
	.st10{fill:#3B77D9;}
	.st11{fill:#1F57B5;}
	.st12{fill:#153F9C;}
	.st13{fill:#9DD2F2;}
	.st14{fill:#2A66C6;}
	.st15{fill:#79C3F0;}
	.st16{opacity:0.3;fill:#99A8C2;}
	.st17{fill:#316CCC;}
	.st18{clip-path:url(#SVGID_8_);}
	.st19{fill:url(#SVGID_9_);}
	.st20{fill:url(#SVGID_10_);}
	.st21{opacity:0.5;fill:#99A8C2;}
	.st22{opacity:0.3;fill:#79C3F0;}
	.st23{fill:#3973CF;}
	.st24{fill:#FB8627;}
	.st25{fill:#3AA1E0;}
	.st26{opacity:0.8;}
	.st27{opacity:0.7;fill:#FFFFFF;}
	.st28{fill:#FFC34E;}
	.st29{fill:#0E3A82;}
	.st30{fill:#0F2D5C;}
	.st31{fill:url(#SVGID_11_);}
	.st32{fill:url(#SVGID_12_);}
	.st33{fill:#F09959;}
	.st34{fill:#E38540;}
	.st35{fill:url(#SVGID_13_);}
	.st36{fill:url(#SVGID_14_);}
	.st37{fill:url(#SVGID_15_);}
	.st38{fill:url(#SVGID_16_);}
</style>
<g>
	<title>Credit card</title>
	<g>
		<g>
			<path class="st0" d="M76.7,404c0,0-105.2-132.7-60.8-126.4c44.3,6.3,80.7,67.3,80.7,67.3S54.5,181.7,68.1,174.2
				c13.6-7.6,10.5-22.2-3.4-60.2c-13.9-37.9,38.9-13.3,45.5,13.3c6.6,26.6,27.2,96.7,51.1,114.5c23.9,17.8,36,30.7,36,30.7
				l149.7-131.8c0,0,46.6-51.7,74-59.9c27.4-8.2-19.9,47.1-16.1,51.2c3.8,4.1,92.7-111.1,117.5-88.4c24.8,22.7-52.7,86.8-52.7,86.8
				l204.4,10.4c0,0,90.5-1.2,103.2-22.7c12.6-21.5,32.9-21.5,45-21.5c12.1,0,48.2,10.2,19.4,26.8c-28.8,16.6-30.2,19.6-24.8,42.3
				c5.4,22.7-22.5,65.7-54.6,80.7c-32,15-75.3,68.5-75.3,68.5l1.6,51.2c0,0,149.8-103.4,168.7-80.6c18.8,22.8-80,88.4-80,88.4
				s0.9,31.5-7.4,54.3c-8.3,22.9-43,23.8-64.1,34.8c-21.1,11,92.1-4.8,105.6-37.1c13.5-32.2,110.5-63.8,97-28.3
				C894.9,433,883,452.2,883,452.2s36,4.2,26.6,26.9c-9.4,22.7-95.8,37.1-126,37.6c-30.1,0.5-555.1-3.5-555.1-3.5L76.7,404z"/>
			<polygon class="st1" points="262.6,432.2 273.3,505.1 679.7,515.6 689.7,430.1 			"/>
			<g>
				<linearGradient id="SVGID_1_" gradientUnits="userSpaceOnUse" x1="179.6823" y1="438.6457" x2="171.5917" y2="193.2338">
					<stop  offset="0" style="stop-color:#2A66C6"/>
					<stop  offset="1" style="stop-color:#79C3F0"/>
				</linearGradient>
				<path class="st2" d="M292.8,510.3c0,0-19.1-194.1-122.7-253.5c-103.5-59.4-108.8-67-108.8-67s-5.9,137.8,63.4,222.5
					C194,497,267.6,514,267.6,514L292.8,510.3z"/>
				<linearGradient id="SVGID_2_" gradientUnits="userSpaceOnUse" x1="252.6087" y1="538.8078" x2="-1.0752" y2="382.0082">
					<stop  offset="0" style="stop-color:#2A66C6"/>
					<stop  offset="1" style="stop-color:#79C3F0"/>
				</linearGradient>
				<path class="st3" d="M252.8,516.5c0,0-28.7-106.1-114.4-124.9c-85.6-18.8-134,5.5-134,5.5s45.3,127.7,111.8,135.1
					C191.1,540.5,252.8,516.5,252.8,516.5z"/>
				<g>
					<path class="st4" d="M258.1,517.2c-0.4,0-0.8-0.1-1-0.4c-0.3-0.3-27.9-26.2-70.4-52.1c-39.1-24-99.3-52.9-163.4-54.8
						c-0.8,0-1.5-0.7-1.5-1.6c0-0.8,0.7-1.5,1.6-1.5c28.6,0.8,58.9,7,89.8,18.4c24.7,9.1,50,21.5,75.1,36.9
						c42.7,26.2,70.6,52.2,70.8,52.5c0.6,0.6,0.6,1.5,0.1,2.2C258.9,517.1,258.5,517.2,258.1,517.2z"/>
				</g>
				<g>
					<path class="st4" d="M268.4,506.6c-0.6,0-1.2-0.4-1.4-1c-0.2-0.6-20.2-56.5-54.8-124.3c-19.6-38.3-48.7-65.2-77-91.3
						c-21.8-20.1-42.3-39.2-55.8-61.4c-0.4-0.7-0.2-1.7,0.5-2.1c0.7-0.4,1.7-0.2,2.1,0.5c13.2,21.9,33.6,40.8,55.2,60.7
						c28.4,26.3,57.8,53.4,77.6,92.2c34.8,68,54.8,124.1,55,124.7c0.3,0.8-0.1,1.7-0.9,2C268.7,506.6,268.5,506.6,268.4,506.6z"/>
				</g>
				<g>
					<path class="st4" d="M54.9,460.6c-0.5,0-1-0.3-1.3-0.8c-0.4-0.7-0.2-1.7,0.5-2.1c22.7-13.4,44.6-18.6,58.9-20.6
						c15.6-2.2,25.6-1.3,26-1.2c0.8,0.1,1.5,0.8,1.4,1.7c-0.1,0.8-0.8,1.5-1.7,1.4c-0.1,0-10.2-1-25.4,1.2c-14,2-35.4,7.1-57.7,20.2
						C55.5,460.6,55.2,460.6,54.9,460.6z"/>
				</g>
				<g>
					<path class="st4" d="M95.6,501.4c-0.4,0-0.8-0.2-1.1-0.5c-0.6-0.6-0.6-1.6,0-2.2c0.3-0.3,8.5-8.2,23.6-17
						c13.9-8.1,36.6-18.5,65.7-22c0.8-0.1,1.6,0.5,1.7,1.3c0.1,0.8-0.5,1.6-1.3,1.7c-28.5,3.5-50.8,13.7-64.5,21.7
						c-14.8,8.6-22.9,16.4-23,16.5C96.4,501.2,96,501.4,95.6,501.4z"/>
				</g>
				<g>
					<path class="st4" d="M150.3,323.5c-2.2,0-4.5,0-7-0.2c-14.5-0.6-36.6-3.7-60-14.4c-0.8-0.4-1.1-1.3-0.8-2
						c0.4-0.8,1.3-1.1,2-0.8c23,10.6,44.7,13.5,58.9,14.2c15.4,0.7,25.4-1.2,25.5-1.2c0.8-0.2,1.6,0.4,1.8,1.2
						c0.2,0.8-0.4,1.6-1.2,1.8C169.1,322.2,161.9,323.5,150.3,323.5z"/>
				</g>
				<g>
					<path class="st4" d="M174.6,377.8c-14.3,0-34.1-1.7-59.2-7.8c-0.8-0.2-1.3-1-1.1-1.8c0.2-0.8,1-1.3,1.8-1.1
						c32,7.8,55.3,8.3,69.2,7.3c15.1-1,22.7-3.9,22.8-3.9c0.8-0.3,1.7,0.1,2,0.9c0.3,0.8-0.1,1.7-0.9,2c-0.3,0.1-8,3.1-23.5,4.1
						C182.6,377.7,178.8,377.8,174.6,377.8z"/>
				</g>
			</g>
			<path class="st1" d="M810.5,524.5c-8.7-3.5-19.1-7.2-29.9-11.2c-51.8-19.2-207.9-40.6-332.4-32.2c-34.3,2.3-132.2,14.5-179.8,15
				c-52.4,0.6-25.9,23.8-154.4,28.7c-128.5,4.9-69.6,17.9-17,30.6c34.7,8.4,133.7,5.7,234.5,2.9c-3,0.4-2.7,0.4,1.8,0
				c16-0.4,32-0.9,47.8-1.3c58.9,0.7,144.3,6.4,207.5,6.9c84.1,0.7,249.4,5.1,264-14.3C860,539.7,840,530.9,810.5,524.5z"/>
			<linearGradient id="SVGID_3_" gradientUnits="userSpaceOnUse" x1="129.0905" y1="180.26" x2="344.5845" y2="50.7612">
				<stop  offset="0" style="stop-color:#6BBEFF"/>
				<stop  offset="1" style="stop-color:#0C3AA1"/>
			</linearGradient>
			<path class="st5" d="M275.7,156.7c0.4-3.4,0.6-6.8,0.6-10.2c0-1.8-0.1-3.6-0.2-5.4l-16.9-5.5c-1-7.1-3.1-13.9-6-20.2l11.2-13.8
				c-2.6-4.6-5.6-8.9-8.9-12.9l-16.9,5.5c-4.9-5-10.5-9.4-16.7-12.8l1-17.7c-4.7-2.1-9.6-3.9-14.7-5.2l-10.4,14.4
				c-4.1-0.7-8.2-1-12.5-1c-2.9,0-5.8,0.2-8.6,0.5l-9.6-14.9c-5.2,1.1-10.2,2.5-15,4.4l0,17.8c-6.4,3.2-12.2,7.2-17.4,11.9
				l-16.6-6.4c-3.5,3.8-6.7,8-9.5,12.4l10.4,14.3c-3.2,6.2-5.6,12.8-7,19.9L95,136.2c-0.4,3.4-0.6,6.8-0.6,10.2
				c0,1.8,0.1,3.6,0.2,5.4l16.9,5.5c1,7.1,3.1,13.9,6,20.2l-11.2,13.8c2.6,4.6,5.6,8.9,8.9,12.9l16.9-5.5c4.9,5,10.5,9.4,16.7,12.8
				l-1,17.7c4.7,2.1,9.6,3.9,14.7,5.2l10.4-14.4c4.1,0.7,8.2,1,12.5,1c2.9,0,5.8-0.2,8.6-0.5l9.6,14.9c5.2-1.1,10.2-2.5,15-4.4
				l0-17.8c6.4-3.2,12.2-7.2,17.4-11.9l16.6,6.4c3.5-3.8,6.7-8,9.5-12.4l-10.4-14.3c3.2-6.2,5.6-12.8,7-19.9L275.7,156.7z
				 M185.4,182.1c-19.7,0-35.7-16-35.7-35.7c0-19.7,16-35.7,35.7-35.7c19.7,0,35.7,16,35.7,35.7C221,166.1,205.1,182.1,185.4,182.1z
				"/>
			<g>
				<linearGradient id="SVGID_4_" gradientUnits="userSpaceOnUse" x1="812.7598" y1="350.5262" x2="623.5694" y2="562.9861">
					<stop  offset="0" style="stop-color:#6BBEFF"/>
					<stop  offset="1" style="stop-color:#0C3AA1"/>
				</linearGradient>
				<path class="st6" d="M842.5,483.4c2.3-3.5,4.4-7.1,6.3-10.9c1-2,1.9-4,2.8-6.1L836,451.2c2.8-8.4,4.3-17,4.6-25.5l19.9-9
					c-0.3-6.4-1.2-12.8-2.7-19l-21.6-3.2c-2.6-8.2-6.4-16.1-11.3-23.3l10.8-19c-4-4.9-8.4-9.6-13.3-13.8L803,348.3
					c-4.1-3-8.5-5.7-13.2-8c-3.2-1.6-6.4-3-9.7-4.2l-2.4-21.7c-6.3-1.7-12.6-2.8-18.9-3.4l-9.7,19.5c-8.7,0-17.4,1.2-25.7,3.6
					L708.7,318c-6,2.3-11.8,5.1-17.3,8.4l3.6,21.5c-7,5-13.3,11-18.7,18l-21.4-4.4c-2.3,3.5-4.4,7.1-6.3,10.9c-1,2-1.9,4-2.8,6.1
					l15.5,15.3c-2.8,8.4-4.3,17-4.6,25.5l-19.9,9c0.3,6.4,1.2,12.8,2.7,19l21.6,3.2c2.6,8.2,6.4,16.1,11.3,23.3l-10.8,19
					c4,4.9,8.4,9.6,13.3,13.8l19.4-10.1c4.1,3,8.5,5.7,13.2,8c3.2,1.6,6.4,3,9.7,4.2l2.4,21.7c6.3,1.7,12.6,2.8,18.9,3.4l9.7-19.5
					c8.7,0,17.4-1.2,25.7-3.6l14.7,16.1c6-2.3,11.8-5.1,17.3-8.4l-3.6-21.5c7-5,13.3-11,18.7-18L842.5,483.4z M729.1,461.7
					c-21.7-10.8-30.4-37.2-19.6-58.9c10.8-21.7,37.2-30.4,58.9-19.6c21.7,10.8,30.4,37.2,19.6,58.9
					C777.1,463.7,750.7,472.5,729.1,461.7z"/>
				<g>
					<path class="st7" d="M780.6,494.3c-0.7,0-1.4-0.4-1.7-1.1c-0.4-0.9,0-2,0.9-2.4c15.8-6.9,28.7-19.2,36.4-34.6
						c3.7-7.4,6.1-15.2,7.2-23.3c0.1-1,1-1.7,2-1.6c1,0.1,1.7,1,1.5,2c-1.1,8.5-3.7,16.7-7.5,24.5c-8.1,16.2-21.6,29.1-38.2,36.3
						C781,494.3,780.8,494.3,780.6,494.3z"/>
				</g>
				<g>
					<path class="st7" d="M821.2,398.9c-0.7,0-1.4-0.5-1.7-1.2c-3.5-9.5-8.8-18.1-15.7-25.4c-0.7-0.7-0.7-1.9,0.1-2.6
						c0.7-0.7,1.9-0.7,2.6,0.1c7.3,7.7,12.8,16.7,16.5,26.7c0.3,0.9-0.1,2-1.1,2.3C821.6,398.8,821.4,398.9,821.2,398.9z"/>
				</g>
				<g>
					<path class="st7" d="M784,357.2c-0.3,0-0.5-0.1-0.8-0.2c-5.5-2.8-11.3-4.8-17.2-6.1c-1-0.2-1.6-1.2-1.4-2.1
						c0.2-1,1.2-1.6,2.1-1.4c6.2,1.4,12.3,3.5,18.1,6.4c0.9,0.4,1.3,1.5,0.8,2.4C785.3,356.9,784.7,357.2,784,357.2z"/>
				</g>
			</g>
			
				<linearGradient id="SVGID_5_" gradientUnits="userSpaceOnUse" x1="823.7015" y1="9.2034" x2="813.5839" y2="201.4381" gradientTransform="matrix(0.989 -0.1476 0.1476 0.989 -82.0576 316.4376)">
				<stop  offset="0" style="stop-color:#6BBEFF"/>
				<stop  offset="1" style="stop-color:#0C3AA1"/>
			</linearGradient>
			<path class="st8" d="M718.9,340.3c2.5,0.8,5,1.5,7.7,2c1.4,0.3,2.8,0.5,4.1,0.7l6.7-12c5.6,0.3,11-0.2,16.3-1.4l8.7,10.6
				c3.9-1.3,7.6-2.8,11.1-4.7l-1.6-13.6c4.6-3,8.7-6.5,12.3-10.7l13.3,3.5c2.4-3.2,4.4-6.7,6.2-10.4l-9.3-10.1
				c1.1-3,2.1-6.1,2.7-9.3c0.4-2.2,0.8-4.4,0.9-6.6l12.8-5c0-4.1-0.4-8.1-1-12.1l-13.5-2.7c-1.4-5.3-3.6-10.4-6.4-15l7.4-11.6
				c-2.4-3.3-5-6.3-7.9-9.1l-12.5,5.7c-4.2-3.4-8.9-6.3-14-8.4l-0.8-13.7c-2.5-0.8-5-1.5-7.7-2c-1.4-0.3-2.8-0.5-4.1-0.7l-6.7,12
				c-5.6-0.3-11,0.2-16.3,1.4l-8.7-10.6c-3.9,1.3-7.6,2.8-11.1,4.7l1.6,13.6c-4.6,3-8.7,6.5-12.3,10.7l-13.3-3.5
				c-2.4,3.2-4.4,6.7-6.2,10.4l9.3,10.1c-1.1,3-2.1,6.1-2.7,9.3c-0.4,2.2-0.8,4.4-0.9,6.6l-12.8,5c0,4.1,0.4,8.1,1,12.1l13.5,2.7
				c1.4,5.3,3.6,10.4,6.4,15l-7.4,11.6c2.4,3.3,5,6.3,7.9,9.1l12.5-5.7c4.2,3.4,8.9,6.3,14,8.4L718.9,340.3z M713.5,267.8
				c3-14.9,17.6-24.6,32.6-21.6c14.9,3,24.6,17.6,21.6,32.6c-3,14.9-17.6,24.6-32.6,21.6C720.1,297.3,710.5,282.7,713.5,267.8z"/>
			
				<linearGradient id="SVGID_6_" gradientUnits="userSpaceOnUse" x1="823.5577" y1="9.1955" x2="813.4399" y2="201.4308" gradientTransform="matrix(0.989 -0.1476 0.1476 0.989 -82.0576 316.4376)">
				<stop  offset="0" style="stop-color:#6BBEFF"/>
				<stop  offset="1" style="stop-color:#0C3AA1"/>
			</linearGradient>
			<circle class="st9" cx="740.2" cy="270.6" r="16.6"/>
			<g>
				<path class="st10" d="M545.2,505.7v-75.5h-175v75.5h-56.9c-10.6,0-19.1,8.6-19.1,19.1v4.6c0,3.4,2.8,6.2,6.2,6.2H615
					c3.4,0,6.2-2.8,6.2-6.2v-4.6c0-10.6-8.6-19.1-19.1-19.1H545.2z"/>
				<g>
					<polygon class="st11" points="370.2,481.9 545.2,468.4 545.2,436.6 370.2,438.5 					"/>
					<polygon class="st11" points="545.2,493.3 370.2,505.7 545.2,505.7 					"/>
				</g>
				<g>
					<path class="st12" d="M705.2,447.4H210.2c-14.3,0-26-11.6-26-26V140c0-14.3,11.6-26,26-26h494.9c14.3,0,26,11.6,26,26v281.5
						C731.1,435.8,719.5,447.4,705.2,447.4z"/>
					<path class="st13" d="M692.4,413.7H223c-12.9,0-23.4-10.5-23.4-23.4V151c0-12.9,10.5-23.4,23.4-23.4h469.4
						c12.9,0,23.4,10.5,23.4,23.4v239.3C715.8,403.2,705.3,413.7,692.4,413.7z"/>
				</g>
				<path class="st14" d="M476.2,436.6h-37.1c-2.4,0-4.4-2-4.4-4.4v0c0-2.4,2-4.4,4.4-4.4h37.1c2.4,0,4.4,2,4.4,4.4l0,0
					C480.6,434.6,478.7,436.6,476.2,436.6z"/>
				<path class="st15" d="M604.2,520.1h-119c-2.5,0-4.5-2-4.5-4.5v0c0-2.5,2-4.5,4.5-4.5h119c2.5,0,4.5,2,4.5,4.5l0,0
					C608.7,518.1,606.7,520.1,604.2,520.1z"/>
			</g>
			<path class="st16" d="M462.5,154.6c27.4,0,63.3-10.3,74.4-13.7c1.7-0.5,3.4,0.6,3.4,2.3v76.1c0,58.8-76.6,106.5-76.6,106.5
				S387,278.1,387,219.2v-72.6c0-1.6,1.6-2.7,3.3-2.3C400.8,146.9,435.1,154.6,462.5,154.6z"/>
			<g>
				<path class="st1" d="M456.6,148c26,0,60.2-9.8,70.7-13c1.6-0.5,3.2,0.6,3.2,2.1v72.3c0,55.9-72.8,101.2-72.8,101.2
					s-72.8-45.3-72.8-101.2v-69c0-1.5,1.5-2.6,3.1-2.2C398,140.7,430.6,148,456.6,148z"/>
				<path class="st17" d="M457.7,159.9c19.5,0,43.8-6.4,55.9-11.4c3.6-1.5,7.7,0.9,7.7,4.6v58c0,48.9-63.7,88.5-63.7,88.5
					S394,260,394,211.1v-55.5c0-3.5,3.8-5.9,7.4-4.7C413.5,155,438,159.9,457.7,159.9z"/>
				<path class="st15" d="M458.4,175.7v108.5c0,0-50.7-32.3-50.7-70.6v-44c0-2.6,2.8-4.3,5.4-3.4
					C422.6,169.4,442.6,175.7,458.4,175.7z"/>
				<path class="st15" d="M458.4,175.7v108.5c0,0,52.5-32.3,52.5-70.6v-44.1c0-2.5-2.7-4.3-5.3-3.4
					C495.7,169.3,474.3,175.7,458.4,175.7z"/>
				<path class="st14" d="M438.5,201.8c0.8,0.6,1.5,1.2,2.3,1.8c0.7,0.6,1.5,1.2,2.2,1.9c0.7,0.7,1.4,1.3,2.1,2c0.3,0.3,0.7,0.7,1,1
					l1,1c0.7,0.7,1.3,1.4,1.9,2.1c0.6,0.7,1.2,1.5,1.8,2.2c0.6,0.7,1.2,1.5,1.8,2.3c0.3,0.4,0.6,0.8,0.9,1.1
					c0.3,0.4,0.6,0.8,0.8,1.2c0.5,0.8,1.1,1.6,1.6,2.4c0.5,0.8,1,1.6,1.5,2.4c0.5,0.8,1,1.6,1.5,2.5l0.7,1.3
					c0.2,0.4,0.4,0.8,0.7,1.3c0.2,0.4,0.4,0.9,0.7,1.3l0.6,1.3c0.4,0.9,0.8,1.8,1.1,2.7c0.4,0.9,0.7,1.8,1,2.7
					c0.2,0.5,0.3,0.9,0.5,1.4c0.1,0.2,0.2,0.5,0.2,0.7l0.2,0.8l-10-0.6c0.2-0.4,0.4-0.7,0.6-1l0.6-1c0.4-0.6,0.8-1.3,1.2-1.9
					l2.4-3.8l4.7-7.5c1.6-2.5,3.2-4.9,4.9-7.3c1.7-2.4,3.5-4.8,5.3-7.1c1.8-2.3,3.7-4.6,5.7-6.8c2-2.2,4-4.4,6.1-6.4
					c2.1-2.1,4.3-4,6.6-5.9c1.1-0.9,2.3-1.8,3.6-2.6c1.2-0.8,2.5-1.6,3.7-2.4c0.3-0.1,0.6-0.1,0.7,0.2c0.1,0.2,0.1,0.5-0.1,0.7
					c-1.1,0.9-2.2,1.9-3.2,2.9c-1,1-2,2-3,3.1c-1,1.1-1.9,2.1-2.8,3.2c-0.9,1.1-1.8,2.2-2.6,3.4c-1.7,2.3-3.4,4.6-4.9,7
					c-0.8,1.2-1.6,2.4-2.3,3.6c-0.8,1.2-1.5,2.4-2.2,3.7c-1.5,2.4-2.9,4.9-4.2,7.4c-1.4,2.5-2.7,5-4,7.6c-0.6,1.3-1.3,2.5-1.9,3.8
					c-0.6,1.3-1.2,2.6-1.8,3.9c-0.6,1.3-1.1,2.6-1.6,3.9l-0.8,2l-0.8,1.9l-4.6,11.8l-5.4-12.4l-2-4.7c-0.2-0.4-0.4-0.8-0.5-1.2
					c-0.2-0.4-0.4-0.8-0.5-1.2l-1-2.4L446,223c-0.3-0.8-0.7-1.7-1.1-2.5l-0.5-1.3l-0.5-1.2c-0.4-0.8-0.7-1.7-1.1-2.5
					c-0.4-0.8-0.7-1.7-1.1-2.5c-0.4-0.8-0.7-1.7-1.1-2.6c-0.4-0.8-0.7-1.7-1-2.6c-0.3-0.9-0.7-1.8-1.1-2.6c-0.3-0.9-0.7-1.8-1-2.7
					c-0.1-0.3,0.1-0.6,0.4-0.7C438.1,201.7,438.3,201.7,438.5,201.8z"/>
				<g>
					<defs>
						<path id="SVGID_7_" d="M456.6,148c26,0,60.2-9.8,70.7-13c1.6-0.5,3.2,0.6,3.2,2.1v72.3c0,55.9-72.8,101.2-72.8,101.2
							s-72.8-45.3-72.8-101.2v-69c0-1.5,1.5-2.6,3.1-2.2C398,140.7,430.6,148,456.6,148z"/>
					</defs>
					<clipPath id="SVGID_8_">
						<use xlink:href="#SVGID_7_"  style="overflow:visible;"/>
					</clipPath>
					<g class="st18">
						
							<linearGradient id="SVGID_9_" gradientUnits="userSpaceOnUse" x1="943.5029" y1="100.5484" x2="776.6831" y2="366.9309" gradientTransform="matrix(-1 0 0 1 1260.1738 0)">
							<stop  offset="0" style="stop-color:#FFFFFF"/>
							<stop  offset="1" style="stop-color:#000000"/>
						</linearGradient>
						<path class="st19" d="M404.9,208.8c6.7,21.9,10.5,56.5,12.3,77c-18.8-17.5-37.4-38.2-38.4-49c-1.2-13.5-3.5-52.4-3.1-79.5
							C383.5,166.5,397.8,185.7,404.9,208.8z"/>
						
							<linearGradient id="SVGID_10_" gradientUnits="userSpaceOnUse" x1="913.4231" y1="81.7114" x2="746.6033" y2="348.094" gradientTransform="matrix(-1 0 0 1 1260.1738 0)">
							<stop  offset="0" style="stop-color:#FFFFFF"/>
							<stop  offset="1" style="stop-color:#000000"/>
						</linearGradient>
						<path class="st20" d="M440.1,252.6c-5.5-25.6-21.3-89.4-63.8-109.1c0.6-8.4,1.8-13.9,3.7-14c7.8-0.5,16.9,4,16.9,4
							c41.4-0.2,61.7,62.6,63.6,73.4c1.9,10.8-0.2,106.4-4.2,109c-0.9,0.6-5-1.9-10.8-6.2C445.3,298.2,444.5,273,440.1,252.6z"/>
					</g>
				</g>
			</g>
			<g>
				<path class="st21" d="M731.1,174.5H597.9c-2.1,0-3.8,1.7-3.8,3.8v19.4c0,2.1,1.7,3.8,3.8,3.8h133.2V174.5z"/>
				<path class="st17" d="M763.6,192.6H595.8c-5.8,0-10.6-4.8-10.6-10.6v-5.9c0-5.8,4.8-10.6,10.6-10.6h167.8
					c5.8,0,10.6,4.8,10.6,10.6v5.9C774.2,187.9,769.4,192.6,763.6,192.6z"/>
				<path class="st7" d="M761,187.8H598.4c-4.5,0-8.3-3.7-8.3-8.3v-0.8c0-4.5,3.7-8.3,8.3-8.3H761c4.5,0,8.3,3.7,8.3,8.3v0.8
					C769.2,184.1,765.5,187.8,761,187.8z"/>
				<g>
					<g>
						<path class="st17" d="M610.5,184.5c-0.8,0-1.4-0.6-1.4-1.4v-8.6c0-0.8,0.6-1.4,1.4-1.4c0.8,0,1.4,0.6,1.4,1.4v8.6
							C611.9,183.8,611.2,184.5,610.5,184.5z"/>
						<path class="st17" d="M615.3,181.9c-0.4,0.7-1.3,0.8-2,0.4l-7.2-4.7c-0.7-0.4-0.8-1.3-0.4-2c0.4-0.7,1.3-0.8,2-0.4l7.2,4.7
							C615.5,180.3,615.7,181.2,615.3,181.9z"/>
						<path class="st17" d="M605.7,182c-0.4-0.6-0.3-1.5,0.4-2l7.1-4.9c0.6-0.4,1.5-0.3,2,0.4c0.4,0.6,0.3,1.5-0.4,2l-7.1,4.9
							C607.1,182.8,606.2,182.6,605.7,182z"/>
					</g>
					<g>
						<path class="st17" d="M630.6,184.5c-0.8,0-1.4-0.6-1.4-1.4v-8.6c0-0.8,0.6-1.4,1.4-1.4c0.8,0,1.4,0.6,1.4,1.4v8.6
							C632.1,183.8,631.4,184.5,630.6,184.5z"/>
						<path class="st17" d="M635.4,181.9c-0.4,0.7-1.3,0.8-2,0.4l-7.2-4.7c-0.7-0.4-0.8-1.3-0.4-2c0.4-0.7,1.3-0.8,2-0.4l7.2,4.7
							C635.7,180.3,635.9,181.2,635.4,181.9z"/>
						<path class="st17" d="M625.9,182c-0.4-0.6-0.3-1.5,0.4-2l7.1-4.9c0.6-0.4,1.5-0.3,2,0.4c0.4,0.6,0.3,1.5-0.4,2l-7.1,4.9
							C627.3,182.8,626.4,182.6,625.9,182z"/>
					</g>
					<g>
						<path class="st17" d="M650.8,184.5c-0.8,0-1.4-0.6-1.4-1.4v-8.6c0-0.8,0.6-1.4,1.4-1.4s1.4,0.6,1.4,1.4v8.6
							C652.2,183.8,651.6,184.5,650.8,184.5z"/>
						<path class="st17" d="M655.6,181.9c-0.4,0.7-1.3,0.8-2,0.4l-7.2-4.7c-0.7-0.4-0.8-1.3-0.4-2c0.4-0.7,1.3-0.8,2-0.4l7.2,4.7
							C655.8,180.3,656,181.2,655.6,181.9z"/>
						<path class="st17" d="M646.1,182c-0.4-0.6-0.3-1.5,0.4-2l7.1-4.9c0.6-0.4,1.5-0.3,2,0.4c0.4,0.6,0.3,1.5-0.4,2l-7.1,4.9
							C647.4,182.8,646.5,182.6,646.1,182z"/>
					</g>
					<g>
						<path class="st17" d="M671,184.5c-0.8,0-1.4-0.6-1.4-1.4v-8.6c0-0.8,0.6-1.4,1.4-1.4s1.4,0.6,1.4,1.4v8.6
							C672.4,183.8,671.8,184.5,671,184.5z"/>
						<path class="st17" d="M675.8,181.9c-0.4,0.7-1.3,0.8-2,0.4l-7.2-4.7c-0.7-0.4-0.8-1.3-0.4-2c0.4-0.7,1.3-0.8,2-0.4l7.2,4.7
							C676,180.3,676.2,181.2,675.8,181.9z"/>
						<path class="st17" d="M666.3,182c-0.4-0.6-0.3-1.5,0.4-2l7.1-4.9c0.6-0.4,1.5-0.3,2,0.4c0.4,0.6,0.3,1.5-0.4,2l-7.1,4.9
							C667.6,182.8,666.7,182.6,666.3,182z"/>
					</g>
					<g>
						<path class="st17" d="M691.1,184.5c-0.8,0-1.4-0.6-1.4-1.4v-8.6c0-0.8,0.6-1.4,1.4-1.4c0.8,0,1.4,0.6,1.4,1.4v8.6
							C692.6,183.8,691.9,184.5,691.1,184.5z"/>
						<path class="st17" d="M695.9,181.9c-0.4,0.7-1.3,0.8-2,0.4l-7.2-4.7c-0.7-0.4-0.8-1.3-0.4-2c0.4-0.7,1.3-0.8,2-0.4l7.2,4.7
							C696.2,180.3,696.4,181.2,695.9,181.9z"/>
						<path class="st17" d="M686.4,182c-0.4-0.6-0.3-1.5,0.4-2l7.1-4.9c0.6-0.4,1.5-0.3,2,0.4c0.4,0.6,0.3,1.5-0.4,2l-7.1,4.9
							C687.8,182.8,686.9,182.6,686.4,182z"/>
					</g>
				</g>
				<path class="st17" d="M719.1,183.5h-12.1c-0.5,0-1-0.4-1-1l0,0c0-0.5,0.4-1,1-1h12.1c0.5,0,1,0.4,1,1l0,0
					C720.1,183.1,719.7,183.5,719.1,183.5z"/>
				<path class="st17" d="M739.7,183.5h-12.1c-0.5,0-1-0.4-1-1l0,0c0-0.5,0.4-1,1-1h12.1c0.5,0,1,0.4,1,1l0,0
					C740.7,183.1,740.2,183.5,739.7,183.5z"/>
				<path class="st17" d="M759.3,183.5h-12.1c-0.5,0-1-0.4-1-1l0,0c0-0.5,0.4-1,1-1h12.1c0.5,0,1,0.4,1,1l0,0
					C760.3,183.1,759.9,183.5,759.3,183.5z"/>
			</g>
			<g>
				<path class="st7" d="M321.5,267.8l-43.8,43.8c-1.5,1.5-3.9,1.5-5.4,0l-43.8-43.8c-1.5-1.5-1.5-3.9,0-5.4l43.8-43.8
					c1.5-1.5,3.9-1.5,5.4,0l43.8,43.8C323,263.9,323,266.3,321.5,267.8z"/>
				<path class="st15" d="M318.3,267.6l-40.8,40.8c-1.4,1.4-3.7,1.4-5,0l-40.8-40.8c-1.4-1.4-1.4-3.7,0-5l40.8-40.8
					c1.4-1.4,3.7-1.4,5,0l40.8,40.8C319.7,264,319.7,266.2,318.3,267.6z"/>
				<path class="st7" d="M312.6,320.4h-75.1c-5.4,0-9.9-4.4-9.9-9.9V271c0-5.4,4.4-9.9,9.9-9.9h75.1c5.4,0,9.9,4.4,9.9,9.9v39.6
					C322.5,316,318,320.4,312.6,320.4z"/>
				<path class="st22" d="M322.5,264.4c0-1.8,0.2-1.8-1.7-3c-0.6-0.2-1.2-0.4-1.9-0.4c-94.1,0-88.4-0.2-89.7,0.4
					c-1.8,1.1-1.7,1.1-1.7,3c0.4,0.8-2.6-1.3,44.7,28.9c1.5,1,3.9,1,5.4,0C325.1,263.1,322,265.2,322.5,264.4z"/>
				<g>
					<ellipse class="st23" cx="294.6" cy="217.9" rx="19.7" ry="13.4"/>
					<path class="st23" d="M298.5,238.1h-7.9c-4.2,0-7.7-3.5-7.7-7.7v0c0-4.2,3.5-7.7,7.7-7.7h7.9c4.2,0,7.7,3.5,7.7,7.7v0
						C306.3,234.6,302.8,238.1,298.5,238.1z"/>
					<path class="st1" d="M292.6,215.8c0,3.3-2.2,9.2-4.8,9.2c-2.7,0-4.8-2.7-5.7-5.8c-1.3-4.4,1.5-6.3,4.1-7
						C289.2,211.3,292.6,212.5,292.6,215.8z"/>
					<path class="st1" d="M296,215.8c0,3.3,2.2,9.2,4.8,9.2c2.7,0,4.8-2.7,5.7-5.8c1.3-4.4-1.5-6.3-4.1-7
						C299.4,211.3,296,212.5,296,215.8z"/>
					<path class="st1" d="M294.6,223.4c2.2,0,2.9,7.2,1.9,7.5c-1,0.3-3.1,0.6-3.9,0C291.8,230.4,293,223.4,294.6,223.4z"/>
				</g>
				<g>
					<ellipse class="st23" cx="255.5" cy="178.1" rx="20.7" ry="14.1"/>
					<path class="st23" d="M259.6,199.4h-8.3c-4.5,0-8.1-3.6-8.1-8.1v0c0-4.5,3.6-8.1,8.1-8.1h8.3c4.5,0,8.1,3.6,8.1,8.1v0
						C267.8,195.7,264.1,199.4,259.6,199.4z"/>
					<path class="st1" d="M253.4,176c0,3.4-2.3,9.7-5.1,9.7c-2.8,0-5.1-2.8-6-6.1c-1.4-4.7,1.6-6.6,4.3-7.4
						C249.8,171.2,253.4,172.5,253.4,176z"/>
					<path class="st1" d="M256.9,176c0,3.4,2.3,9.7,5.1,9.7c2.8,0,5.1-2.8,6-6.1c1.4-4.7-1.6-6.6-4.3-7.4
						C260.6,171.2,256.9,172.5,256.9,176z"/>
					<path class="st1" d="M255.5,184c2.3,0,3,7.6,2,7.9c-1,0.3-3.2,0.6-4.1,0C252.6,191.2,253.8,184,255.5,184z"/>
				</g>
				<g>
					<ellipse class="st23" cx="329.4" cy="171.5" rx="11" ry="7.5"/>
					<path class="st23" d="M331.6,182.8h-4.4c-2.4,0-4.3-1.9-4.3-4.3v0c0-2.4,1.9-4.3,4.3-4.3h4.4c2.4,0,4.3,1.9,4.3,4.3v0
						C335.9,180.9,334,182.8,331.6,182.8z"/>
					<path class="st1" d="M328.3,170.3c0,1.8-1.2,5.2-2.7,5.2s-2.7-1.5-3.2-3.3c-0.7-2.5,0.8-3.5,2.3-3.9
						C326.4,167.8,328.3,168.5,328.3,170.3z"/>
					<path class="st1" d="M330.2,170.3c0,1.8,1.2,5.2,2.7,5.2c1.5,0,2.7-1.5,3.2-3.3c0.7-2.5-0.8-3.5-2.3-3.9
						C332.1,167.8,330.2,168.5,330.2,170.3z"/>
					<path class="st1" d="M329.4,174.6c1.2,0,1.6,4,1.1,4.2c-0.6,0.2-1.7,0.3-2.2,0C327.9,178.5,328.5,174.6,329.4,174.6z"/>
				</g>
				<g>
					<ellipse class="st23" cx="256.7" cy="247.5" rx="11" ry="7.5"/>
					<path class="st23" d="M259,258.8h-4.4c-2.4,0-4.3-1.9-4.3-4.3v0c0-2.4,1.9-4.3,4.3-4.3h4.4c2.4,0,4.3,1.9,4.3,4.3v0
						C263.3,256.9,261.3,258.8,259,258.8z"/>
					<path class="st1" d="M255.6,246.4c0,1.8-1.2,5.2-2.7,5.2s-2.7-1.5-3.2-3.3c-0.7-2.5,0.8-3.5,2.3-3.9
						C253.7,243.8,255.6,244.5,255.6,246.4z"/>
					<path class="st1" d="M257.5,246.4c0,1.8,1.2,5.2,2.7,5.2c1.5,0,2.7-1.5,3.2-3.3c0.7-2.5-0.8-3.5-2.3-3.9
						C259.4,243.8,257.5,244.5,257.5,246.4z"/>
					<path class="st1" d="M256.7,250.6c1.2,0,1.6,4,1.1,4.2c-0.6,0.2-1.7,0.3-2.2,0C255.2,254.5,255.9,250.6,256.7,250.6z"/>
				</g>
				<g>
					<ellipse class="st23" cx="290.1" cy="121.1" rx="25.8" ry="17.5"/>
					<path class="st23" d="M295.3,147.5H285c-5.6,0-10.1-4.5-10.1-10.1v0c0-5.6,4.5-10.1,10.1-10.1h10.4c5.6,0,10.1,4.5,10.1,10.1v0
						C305.4,142.9,300.9,147.5,295.3,147.5z"/>
					<path class="st1" d="M287.5,118.3c0,4.3-2.8,12.1-6.3,12.1c-3.5,0-6.3-3.5-7.5-7.6c-1.7-5.8,1.9-8.2,5.3-9.2
						C283,112.4,287.5,114.1,287.5,118.3z"/>
					<path class="st1" d="M291.9,118.3c0,4.3,2.8,12.1,6.3,12.1c3.5,0,6.3-3.5,7.5-7.6c1.7-5.8-1.9-8.2-5.3-9.2
						C296.4,112.4,291.9,114.1,291.9,118.3z"/>
					<path class="st1" d="M290.1,128.3c2.8,0,3.8,9.4,2.5,9.8c-1.3,0.4-4,0.8-5,0C286.5,137.4,288.1,128.3,290.1,128.3z"/>
				</g>
				<path class="st23" d="M314.7,307.2h-32c-0.5,0-1-0.4-1-1s0.4-1,1-1h32c0.5,0,1,0.4,1,1S315.2,307.2,314.7,307.2z"/>
				<path class="st23" d="M314.7,311.4h-32c-0.5,0-1-0.4-1-1c0-0.5,0.4-1,1-1h32c0.5,0,1,0.4,1,1
					C315.6,310.9,315.2,311.4,314.7,311.4z"/>
				<g>
					<g>
						<path class="st24" d="M290.3,142.8c-16.3,0-29.6-13.3-29.6-29.6c0-16.3,13.3-29.6,29.6-29.6c16.3,0,29.6,13.3,29.6,29.6
							C319.9,129.5,306.6,142.8,290.3,142.8z M290.3,87.9c-13.9,0-25.3,11.3-25.3,25.3c0,13.9,11.3,25.3,25.3,25.3
							c13.9,0,25.3-11.3,25.3-25.3C315.6,99.3,304.2,87.9,290.3,87.9z"/>
					</g>
					<g>
						<path class="st24" d="M290.3,125.4c-6.7,0-12.2-5.5-12.2-12.2c0-6.7,5.5-12.2,12.2-12.2s12.2,5.5,12.2,12.2
							C302.5,119.9,297,125.4,290.3,125.4z M290.3,105.3c-4.4,0-7.9,3.5-7.9,7.9c0,4.4,3.5,7.9,7.9,7.9c4.4,0,7.9-3.5,7.9-7.9
							C298.2,108.8,294.6,105.3,290.3,105.3z"/>
					</g>
					<g>
						<path class="st24" d="M325.4,115.4h-70.6c-1.2,0-2.2-1-2.2-2.2c0-1.2,1-2.2,2.2-2.2h70.6c1.2,0,2.2,1,2.2,2.2
							C327.6,114.4,326.6,115.4,325.4,115.4z"/>
					</g>
					<g>
						<path class="st24" d="M290.3,148.6c-1.2,0-2.2-1-2.2-2.2V79.3c0-1.2,1-2.2,2.2-2.2s2.2,1,2.2,2.2v67.1
							C292.4,147.6,291.5,148.6,290.3,148.6z"/>
					</g>
				</g>
				<g>
					<g>
						<path class="st24" d="M242.1,220.7c-14.4,0-26.1-11.7-26.1-26.1c0-14.4,11.7-26.1,26.1-26.1c14.4,0,26.1,11.7,26.1,26.1
							C268.2,209,256.5,220.7,242.1,220.7z M242.1,172.8c-12,0-21.8,9.8-21.8,21.8c0,12,9.8,21.8,21.8,21.8c12,0,21.8-9.8,21.8-21.8
							C263.9,182.6,254.1,172.8,242.1,172.8z"/>
					</g>
					<g>
						<path class="st24" d="M242.1,205.6c-6,0-11-4.9-11-11c0-6,4.9-11,11-11c6,0,11,4.9,11,11C253,200.6,248.1,205.6,242.1,205.6z
							 M242.1,188c-3.7,0-6.6,3-6.6,6.6s3,6.6,6.6,6.6c3.7,0,6.6-3,6.6-6.6S245.7,188,242.1,188z"/>
					</g>
					<g>
						<path class="st24" d="M272.8,196.8h-61.7c-1.2,0-2.2-1-2.2-2.2c0-1.2,1-2.2,2.2-2.2h61.7c1.2,0,2.2,1,2.2,2.2
							C275,195.8,274,196.8,272.8,196.8z"/>
					</g>
					<g>
						<path class="st24" d="M242.1,225.8c-1.2,0-2.2-1-2.2-2.2V165c0-1.2,1-2.2,2.2-2.2c1.2,0,2.2,1,2.2,2.2v58.7
							C244.2,224.8,243.3,225.8,242.1,225.8z"/>
					</g>
				</g>
			</g>
			<g>
				<path class="st25" d="M646.6,383.2H523.7c-4,0-7.2-3.2-7.2-7.2v-47.6c0-4,3.2-7.2,7.2-7.2h122.9c4,0,7.2,3.2,7.2,7.2V376
					C653.8,380,650.6,383.2,646.6,383.2z"/>
				<path class="st7" d="M644.3,380.3H526.1c-3.2,0-5.8-2.6-5.8-5.8v-31.2c0-3.2,2.6-5.8,5.8-5.8h118.2c3.2,0,5.8,2.6,5.8,5.8v31.2
					C650.1,377.7,647.5,380.3,644.3,380.3z"/>
				<g>
					<path class="st7" d="M525.1,330.6h-0.5c-1.3,0-2.4-1.1-2.4-2.4l0,0c0-1.3,1.1-2.4,2.4-2.4h0.5c1.3,0,2.4,1.1,2.4,2.4v0
						C527.6,329.5,526.5,330.6,525.1,330.6z"/>
					<path class="st7" d="M534.9,330.6h-0.5c-1.3,0-2.4-1.1-2.4-2.4l0,0c0-1.3,1.1-2.4,2.4-2.4h0.5c1.3,0,2.4,1.1,2.4,2.4l0,0
						C537.3,329.5,536.3,330.6,534.9,330.6z"/>
					<path class="st7" d="M544.7,330.6h-0.5c-1.3,0-2.4-1.1-2.4-2.4l0,0c0-1.3,1.1-2.4,2.4-2.4h0.5c1.3,0,2.4,1.1,2.4,2.4l0,0
						C547.1,329.5,546,330.6,544.7,330.6z"/>
				</g>
				<path class="st25" d="M644.8,346.9h-68.7c-1.1,0-2.1-0.9-2.1-2.1c0-1.1,0.9-2.1,2.1-2.1h68.7c1.1,0,2.1,0.9,2.1,2.1
					C646.9,346,645.9,346.9,644.8,346.9z"/>
				<path class="st25" d="M593.2,378.6h-68.7c-1.1,0-2.1-0.9-2.1-2.1c0-1.1,0.9-2.1,2.1-2.1h68.7c1.1,0,2.1,0.9,2.1,2.1
					C595.2,377.7,594.3,378.6,593.2,378.6z"/>
				<path class="st25" d="M604.6,378.6h-4.6c-1.1,0-1.9-0.9-1.9-1.9v-0.2c0-1.1,0.9-1.9,1.9-1.9h4.6c1.1,0,1.9,0.9,1.9,1.9v0.2
					C606.5,377.7,605.6,378.6,604.6,378.6z"/>
				<path class="st25" d="M615.3,378.6h-4.6c-1.1,0-1.9-0.9-1.9-1.9v-0.2c0-1.1,0.9-1.9,1.9-1.9h4.6c1.1,0,1.9,0.9,1.9,1.9v0.2
					C617.2,377.7,616.3,378.6,615.3,378.6z"/>
				<path class="st25" d="M645.5,355.8H531.8c-0.8,0-1.4-0.6-1.4-1.4c0-0.8,0.6-1.4,1.4-1.4h113.7c0.8,0,1.4,0.6,1.4,1.4
					C646.9,355.2,646.2,355.8,645.5,355.8z"/>
				<path class="st25" d="M645.5,361.8H531.8c-0.8,0-1.4-0.6-1.4-1.4c0-0.8,0.6-1.4,1.4-1.4h113.7c0.8,0,1.4,0.6,1.4,1.4
					C646.9,361.2,646.2,361.8,645.5,361.8z"/>
			</g>
			<g>
				<g>
					<g>
						<path class="st17" d="M578.3,252h-9.9c-4.3,0-7.7-3.5-7.7-7.7v-9.9c0-4.3,3.5-7.7,7.7-7.7h9.9c4.3,0,7.7,3.5,7.7,7.7v9.9
							C586,248.6,582.6,252,578.3,252z M568.4,231.1c-1.9,0-3.4,1.5-3.4,3.4v9.9c0,1.9,1.5,3.4,3.4,3.4h9.9c1.9,0,3.4-1.5,3.4-3.4
							v-9.9c0-1.9-1.5-3.4-3.4-3.4H568.4z"/>
					</g>
					<g class="st26">
						<path class="st17" d="M578.3,294.4h-9.9c-4.5,0-8.1-3.6-8.1-8.1v-9.9c0-4.5,3.6-8.1,8.1-8.1h9.9c4.5,0,8.1,3.6,8.1,8.1v9.9
							C586.4,290.8,582.8,294.4,578.3,294.4z M568.4,273.4c-1.7,0-3,1.4-3,3v9.9c0,1.7,1.4,3,3,3h9.9c1.7,0,3-1.4,3-3v-9.9
							c0-1.7-1.4-3-3-3H568.4z"/>
					</g>
					<g>
						<path class="st24" d="M574,246.5c0,0-0.1,0-0.1,0c-0.6,0-1.2-0.3-1.6-0.8l-7.1-9.3c-0.7-0.9-0.5-2.3,0.4-3
							c0.9-0.7,2.3-0.5,3,0.4l5.5,7.2l15.5-16.7c0.8-0.9,2.2-0.9,3.1-0.1c0.9,0.8,0.9,2.2,0.1,3.1l-17.3,18.5
							C575.1,246.2,574.6,246.5,574,246.5z"/>
					</g>
					<g>
						<path class="st24" d="M574,288.5c0,0-0.1,0-0.1,0c-0.6,0-1.2-0.3-1.6-0.8l-7.1-9.3c-0.7-0.9-0.5-2.3,0.4-3
							c0.9-0.7,2.3-0.5,3,0.4l5.5,7.2l15.5-16.7c0.8-0.9,2.2-0.9,3.1-0.1c0.9,0.8,0.9,2.2,0.1,3.1l-17.3,18.5
							C575.1,288.2,574.6,288.5,574,288.5z"/>
					</g>
				</g>
				<path class="st17" d="M602.6,237.1h74.6c1.3,0,2.4-1.1,2.4-2.4c0-1.3-1.1-2.4-2.4-2.4h-74.6c-1.3,0-2.4,1.1-2.4,2.4
					C600.2,236,601.3,237.1,602.6,237.1z"/>
				<path class="st17" d="M602.6,246.3h55.5c1.3,0,2.4-1.1,2.4-2.4c0-1.3-1.1-2.4-2.4-2.4h-55.5c-1.3,0-2.4,1.1-2.4,2.4
					C600.2,245.3,601.3,246.3,602.6,246.3z"/>
				<path class="st17" d="M602.6,279.1h74.6c1.3,0,2.4-1.1,2.4-2.4c0-1.3-1.1-2.4-2.4-2.4h-74.6c-1.3,0-2.4,1.1-2.4,2.4
					C600.2,278.1,601.3,279.1,602.6,279.1z"/>
				<path class="st17" d="M602.6,288.4h65.4c1.3,0,2.4-1.1,2.4-2.4c0-1.3-1.1-2.4-2.4-2.4h-65.4c-1.3,0-2.4,1.1-2.4,2.4
					C600.2,287.3,601.3,288.4,602.6,288.4z"/>
			</g>
			<g>
				<g>
					<path class="st25" d="M446.8,376.3h-81.3c-0.8,0-1.4-0.6-1.4-1.4v-45.3c0-0.8,0.6-1.4,1.4-1.4h81.3c0.8,0,1.4,0.6,1.4,1.4v45.3
						C448.2,375.6,447.5,376.3,446.8,376.3z"/>
					<path class="st7" d="M445,374.1h-77.8c-0.7,0-1.3-0.6-1.3-1.3v-41.3c0-0.7,0.6-1.3,1.3-1.3H445c0.7,0,1.3,0.6,1.3,1.3v41.3
						C446.3,373.6,445.7,374.1,445,374.1z"/>
					<path class="st25" d="M442.6,371.5h-73.1c-0.8,0-1.4-0.6-1.4-1.4v-35.6c0-0.8,0.6-1.4,1.4-1.4h73.1c0.8,0,1.4,0.6,1.4,1.4V370
						C444.1,370.8,443.4,371.5,442.6,371.5z"/>
					<circle class="st7" cx="406.1" cy="352.2" r="13.3"/>
					<circle class="st25" cx="406.1" cy="352.2" r="11.5"/>
					<polygon class="st7" points="411.8,351.6 407.6,354 403.4,356.5 403.4,351.6 403.4,346.8 407.6,349.2 					"/>
				</g>
				<path class="st21" d="M426.9,344.2h-62.8v30.7c0,0.8,0.6,1.4,1.4,1.4h62.8v-30.7C428.3,344.8,427.7,344.2,426.9,344.2z"/>
				<g>
					<path class="st25" d="M419.6,394.9h-81.3c-0.8,0-1.4-0.6-1.4-1.4v-45.3c0-0.8,0.6-1.4,1.4-1.4h81.3c0.8,0,1.4,0.6,1.4,1.4v45.3
						C420.9,394.2,420.3,394.9,419.6,394.9z"/>
					<path class="st7" d="M417.8,392.7H340c-0.7,0-1.3-0.6-1.3-1.3v-41.3c0-0.7,0.6-1.3,1.3-1.3h77.8c0.7,0,1.3,0.6,1.3,1.3v41.3
						C419.1,392.2,418.5,392.7,417.8,392.7z"/>
					<path class="st25" d="M415.4,390.1h-73.1c-0.8,0-1.4-0.6-1.4-1.4V353c0-0.8,0.6-1.4,1.4-1.4h73.1c0.8,0,1.4,0.6,1.4,1.4v35.6
						C416.9,389.4,416.2,390.1,415.4,390.1z"/>
					<circle class="st7" cx="378.9" cy="370.8" r="13.3"/>
					<circle class="st25" cx="378.9" cy="370.8" r="11.5"/>
					<polygon class="st7" points="384.6,370.2 380.4,372.6 376.2,375.1 376.2,370.2 376.2,365.4 380.4,367.8 					"/>
				</g>
			</g>
			<g>
				<g>
					<path class="st12" d="M619.3,86.5c-0.4,0-0.8-0.1-1.1-0.2c-2.5-1.1-4.1-3.5-4.1-6.1V61.3c0-1.6,1.3-2.9,2.9-2.9
						c1.6,0,2.9,1.3,2.9,2.9v18.8c0,0.4,0.3,0.7,0.6,0.8c1.5,0.6,2.2,2.3,1.5,3.8C621.5,85.8,620.4,86.5,619.3,86.5z"/>
				</g>
				<path class="st27" d="M741.7,44.1c-1.4,0-2.8,0-4.2,0.1c0.1-0.8,0.1-1.5,0.2-2.3c0.4-18.2-17.7-33.2-40.4-33.7
					c-18.6-0.4-34.5,9.2-39.8,22.7c-3.9-1.5-8.2-2.4-12.8-2.5c-17.3-0.3-31.5,10.7-31.8,24.7c-0.3,14,13.5,25.6,30.8,25.9
					c11.7,0.2,87.3-0.3,97.3-0.1c14.7,0.3,26.7-7.3,26.9-16.9C768.2,52.4,756.4,44.4,741.7,44.1z"/>
				<path class="st7" d="M696.3,15.4c0.3,0,0.6,0,0.9,0c9.3,0.2,18,3.2,24.4,8.5c5.9,4.9,9.1,11.3,9,17.8c0,0.5,0,1.1-0.1,1.7
					l-0.9,8.7l8.7-0.7c0.9-0.1,1.8-0.1,2.8-0.1c0.2,0,0.4,0,0.7,0c5.6,0.1,11,1.6,14.8,4.2c1.3,0.9,4.5,3.4,4.4,6.4
					c-0.1,2.9-3.1,5.2-4.5,6.1c-3.7,2.4-9,3.8-14.4,3.8c-0.2,0-0.5,0-0.7,0c-1.7,0-5.2-0.1-10.6-0.1c-8.9,0-21.7,0-35.2,0.1
					c-13.9,0-28.2,0.1-38.4,0.1c-6.7,0-11,0-13.1-0.1c-6.7-0.1-12.9-2.3-17.5-6.2c-4.1-3.5-6.3-7.9-6.2-12.4
					c0.2-9.7,10.9-17.6,23.8-17.6c0.2,0,0.4,0,0.6,0c3.6,0.1,7.1,0.7,10.3,2l6.7,2.6l2.6-6.7c2-5,6.1-9.5,11.5-12.7
					C681.6,17.3,688.7,15.4,696.3,15.4L696.3,15.4z M696.3,8.2c-18.1,0-33.5,9.5-38.8,22.7c-3.9-1.5-8.2-2.4-12.8-2.5
					c-0.3,0-0.5,0-0.8,0c-16.9,0-30.7,10.9-31,24.7c-0.3,14,13.5,25.6,30.8,25.9c2.3,0,7,0.1,13.2,0.1c20,0,55.4-0.2,73.6-0.2
					c5,0,8.7,0,10.5,0c0.3,0,0.6,0,0.8,0c14.3,0,25.9-7.4,26.1-16.9c0.2-9.6-11.6-17.6-26.2-17.9c-0.3,0-0.5,0-0.8,0
					c-1.1,0-2.3,0-3.4,0.1c0.1-0.8,0.1-1.5,0.2-2.3c0.4-18.2-17.7-33.2-40.4-33.7C697,8.2,696.6,8.2,696.3,8.2L696.3,8.2z"/>
				<path class="st12" d="M634.9,105.4h-12.2c-6.2,0-11.2-5-11.2-11.2v-3.9c0-6.2,5-11.2,11.2-11.2h12.2c6.2,0,11.2,5,11.2,11.2v3.9
					C646.1,100.3,641,105.4,634.9,105.4z"/>
				<ellipse class="st7" cx="629.4" cy="56.3" rx="5.7" ry="6.3"/>
				<g>
					<path class="st12" d="M637.3,86.8H629c-1.6,0-2.9-1.3-2.9-2.9s1.3-2.9,2.9-2.9h8.3c0.5,0,0.9-0.4,0.9-0.9V60.2
						c0-0.5-0.4-0.9-0.9-0.9h-7.5c-1.6,0-2.9-1.3-2.9-2.9c0-1.6,1.3-2.9,2.9-2.9h7.5c3.7,0,6.7,3,6.7,6.7v19.9
						C644,83.8,641,86.8,637.3,86.8z"/>
				</g>
				<path class="st28" d="M632.3,89.3c0-1.9-1.6-3.5-3.5-3.5c-1.9,0-3.5,1.6-3.5,3.5c0,1.3,0.7,2.4,1.7,3v4.5c0,1,0.8,1.8,1.8,1.8
					c1,0,1.8-0.8,1.8-1.8v-4.5C631.6,91.7,632.3,90.6,632.3,89.3z"/>
			</g>
			<g>
				<g>
					<path class="st21" d="M312.3,405.2v-16.5c0-2.3-1.9-4.2-4.2-4.2H184.3v24.8h123.9C310.5,409.4,312.3,407.5,312.3,405.2z"/>
					<path class="st21" d="M308.2,347.7H184.3v24.8h123.9c2.3,0,4.2-1.9,4.2-4.2v-16.5C312.3,349.5,310.5,347.7,308.2,347.7z"/>
				</g>
				<path class="st1" d="M293.9,365.6h-111c-6.3,0-11.5-5.2-11.5-11.5v-1.8c0-6.3,5.2-11.5,11.5-11.5h111c6.3,0,11.5,5.2,11.5,11.5
					v1.8C305.4,360.4,300.2,365.6,293.9,365.6z"/>
				<path class="st7" d="M290.1,362.1H186.6c-4.9,0-8.9-4-8.9-8.9v0c0-4.9,4-8.9,8.9-8.9h103.5c4.9,0,8.9,4,8.9,8.9v0
					C299,358.1,295,362.1,290.1,362.1z"/>
				<path class="st1" d="M293.9,402.5h-111c-6.3,0-11.5-5.2-11.5-11.5v-1.8c0-6.3,5.2-11.5,11.5-11.5h111c6.3,0,11.5,5.2,11.5,11.5
					v1.8C305.4,397.3,300.2,402.5,293.9,402.5z"/>
				<path class="st7" d="M290.1,399H186.6c-4.9,0-8.9-4-8.9-8.9l0,0c0-4.9,4-8.9,8.9-8.9h103.5c4.9,0,8.9,4,8.9,8.9v0
					C299,395,295,399,290.1,399z"/>
				<path class="st1" d="M192.4,353.1c0,1.6-1.3,2.9-2.9,2.9c-1.6,0-2.9-1.3-2.9-2.9c0-1.6,1.3-2.9,2.9-2.9
					C191.2,350.3,192.4,351.6,192.4,353.1z M202.9,350.3c-1.6,0-2.9,1.3-2.9,2.9c0,1.6,1.3,2.9,2.9,2.9c1.6,0,2.9-1.3,2.9-2.9
					C205.8,351.6,204.5,350.3,202.9,350.3z M216.3,350.3c-1.6,0-2.9,1.3-2.9,2.9c0,1.6,1.3,2.9,2.9,2.9c1.6,0,2.9-1.3,2.9-2.9
					C219.1,351.6,217.9,350.3,216.3,350.3z M229.6,350.3c-1.6,0-2.9,1.3-2.9,2.9c0,1.6,1.3,2.9,2.9,2.9c1.6,0,2.9-1.3,2.9-2.9
					C232.5,351.6,231.2,350.3,229.6,350.3z M243,350.3c-1.6,0-2.9,1.3-2.9,2.9c0,1.6,1.3,2.9,2.9,2.9c1.6,0,2.9-1.3,2.9-2.9
					C245.8,351.6,244.6,350.3,243,350.3z M256.3,350.3c-1.6,0-2.9,1.3-2.9,2.9c0,1.6,1.3,2.9,2.9,2.9s2.9-1.3,2.9-2.9
					C259.2,351.6,257.9,350.3,256.3,350.3z"/>
				<path class="st1" d="M192.4,389.8c0,1.6-1.3,2.9-2.9,2.9c-1.6,0-2.9-1.3-2.9-2.9c0-1.6,1.3-2.9,2.9-2.9
					C191.2,386.9,192.4,388.2,192.4,389.8z M202.9,386.9c-1.6,0-2.9,1.3-2.9,2.9c0,1.6,1.3,2.9,2.9,2.9c1.6,0,2.9-1.3,2.9-2.9
					C205.8,388.2,204.5,386.9,202.9,386.9z M216.3,386.9c-1.6,0-2.9,1.3-2.9,2.9c0,1.6,1.3,2.9,2.9,2.9c1.6,0,2.9-1.3,2.9-2.9
					C219.1,388.2,217.9,386.9,216.3,386.9z M229.6,386.9c-1.6,0-2.9,1.3-2.9,2.9c0,1.6,1.3,2.9,2.9,2.9c1.6,0,2.9-1.3,2.9-2.9
					C232.5,388.2,231.2,386.9,229.6,386.9z M243,386.9c-1.6,0-2.9,1.3-2.9,2.9c0,1.6,1.3,2.9,2.9,2.9c1.6,0,2.9-1.3,2.9-2.9
					C245.8,388.2,244.6,386.9,243,386.9z M256.3,386.9c-1.6,0-2.9,1.3-2.9,2.9c0,1.6,1.3,2.9,2.9,2.9s2.9-1.3,2.9-2.9
					C259.2,388.2,257.9,386.9,256.3,386.9z"/>
				<g>
					<g>
						<path class="st1" d="M283.6,357.7c-5.3,0-9.5-3.9-9.7-4c-0.2-0.2-0.3-0.5-0.3-0.8c0-0.3,0.1-0.6,0.3-0.8c0.2-0.2,4.4-4,9.7-4
							s9.5,3.9,9.7,4c0.2,0.2,0.3,0.5,0.3,0.8c0,0.3-0.1,0.6-0.3,0.8C293.1,353.8,288.9,357.7,283.6,357.7z M276.4,352.9
							c1.4,1,4.1,2.7,7.2,2.7c3.1,0,5.8-1.6,7.2-2.7c-1.4-1-4.1-2.7-7.2-2.7C280.5,350.2,277.8,351.8,276.4,352.9z"/>
					</g>
					<g>
						<path class="st1" d="M283.6,357.2c-2.4,0-4.4-2-4.4-4.4c0-2.4,2-4.4,4.4-4.4c2.4,0,4.4,2,4.4,4.4
							C288,355.3,286,357.2,283.6,357.2z M283.6,350.6c-1.2,0-2.2,1-2.2,2.2c0,1.2,1,2.2,2.2,2.2c1.2,0,2.2-1,2.2-2.2
							C285.8,351.6,284.8,350.6,283.6,350.6z"/>
					</g>
				</g>
				<g>
					<path class="st1" d="M279.2,394.1h-3.1c-2.2,0-3.9-1.8-3.9-3.9l0,0c0-2.2,1.8-3.9,3.9-3.9h3.1c2.2,0,3.9,1.8,3.9,3.9l0,0
						C283.2,392.3,281.4,394.1,279.2,394.1z"/>
					<g>
						<path class="st1" d="M292.4,392.6h-18.9c-0.6,0-1.1-0.5-1.1-1.1s0.5-1.1,1.1-1.1h17.8v-2.8c0-0.6,0.5-1.1,1.1-1.1
							c0.6,0,1.1,0.5,1.1,1.1v3.9C293.5,392.1,293,392.6,292.4,392.6z"/>
					</g>
					<g>
						<path class="st1" d="M289.9,392.4c-0.6,0-1.1-0.5-1.1-1.1v-3.2c0-0.6,0.5-1.1,1.1-1.1c0.6,0,1.1,0.5,1.1,1.1v3.2
							C290.9,391.9,290.4,392.4,289.9,392.4z"/>
					</g>
					<g>
						<path class="st1" d="M285.9,392.4c-0.6,0-1.1-0.5-1.1-1.1V387c0-0.6,0.5-1.1,1.1-1.1c0.6,0,1.1,0.5,1.1,1.1v4.4
							C287,391.9,286.5,392.4,285.9,392.4z"/>
					</g>
					<path class="st7" d="M274.3,391.5c-0.4,0-0.8-0.4-0.8-0.8v-1.2c0-0.4,0.4-0.8,0.8-0.8c0.4,0,0.8,0.4,0.8,0.8v1.2
						C275.1,391.1,274.8,391.5,274.3,391.5z"/>
				</g>
			</g>
		</g>
		<g>
			<path class="st29" d="M174.3,530c0,0-70.9-49.2-100.8-20.8c-23.9,22.7,18.6,49.3,72.9,42.1c38.3-5,42.6,2.3,49.3,2.1
				c49.9-3.8,117.1-18.7,84.4-42.2c-44.5-31.9-74.7,1.9-90.2,10.3C174.3,530,174.3,530,174.3,530z"/>
			<path class="st30" d="M266,510c-18.6-3.8-89.6,22.5-89.6,22.5s-61.8-18.6-76.6-20.4c-14.8-1.8-21.6,3.8-21.6,3.8s7-7.9,15.1-8.6
				c8.1-0.7,19.8-2.7,19.8-2.7s118.3-5.6,133.9-2.1C262.7,506.2,266,510,266,510z"/>
			<linearGradient id="SVGID_11_" gradientUnits="userSpaceOnUse" x1="204.2569" y1="406.0424" x2="136.5674" y2="528.1198">
				<stop  offset="0" style="stop-color:#FFC34E"/>
				<stop  offset="1" style="stop-color:#FB8627"/>
			</linearGradient>
			<path class="st31" d="M165.5,414.2c-2.8,0.4-46.5,19.5-47,27.5c-0.5,8,12,72.7,36.2,81.2c24.2,8.4,51.2,0,51.2,0
				s28.4-70.1,20-83.4c-8.4-13.3-46.6-25.3-46.6-25.3H165.5z"/>
			<linearGradient id="SVGID_12_" gradientUnits="userSpaceOnUse" x1="215.3364" y1="410.8926" x2="141.0382" y2="544.8888">
				<stop  offset="0" style="stop-color:#FFC34E"/>
				<stop  offset="1" style="stop-color:#FB8627"/>
			</linearGradient>
			<path class="st32" d="M133.4,429.3c-41.7,22.4-52,62.7-40.9,71.6c7.7,6.2,36.9,20,62.2,19.1c25.3-0.9,49,1.5,49,1.5
				s43.4-8.8,52-21.8c8.6-13-15.3-55.2-36.9-67.4C197.3,420.1,133.4,429.3,133.4,429.3z"/>
			<path class="st33" d="M173.2,439.5c-5.8,0-10.5-4.7-10.5-10.5v-35.3c0-5.8,4.7-10.5,10.5-10.5c5.8,0,10.5,4.7,10.5,10.5V429
				C183.7,434.8,178.9,439.5,173.2,439.5z"/>
			<path class="st34" d="M173.2,383.2c-5.8,0-10.5,4.7-10.5,10.5v28.9c6.2,5.2,12.2,2.5,21-4.4v-24.5
				C183.7,387.9,178.9,383.2,173.2,383.2z"/>
			<path class="st33" d="M196.2,395.1c-1.7,3.5-4.5,5.5-6.3,4.4c-1.7-1.1-1.7-4.9,0-8.4c1.7-3.5,4.5-5.5,6.3-4.4
				C197.9,387.8,197.9,391.6,196.2,395.1z"/>
			<path class="st33" d="M155.6,391.3c2,3.2,2.4,7.1,0.9,8.6c-1.5,1.6-4.4,0.2-6.4-3c-2-3.2-2.4-7.1-0.9-8.6
				C150.7,386.8,153.6,388.1,155.6,391.3z"/>
			<ellipse class="st33" cx="173.6" cy="394.9" rx="18.1" ry="23.2"/>
			<path class="st24" d="M213,452.4c11.8,6.3,22.1,30.2,22.1,30.2s-26.6,4.1-32.1,8.3c-5.5,4.1,0.8-1.6,3.9-13
				C210.1,466.4,213,452.4,213,452.4z"/>
			<path class="st24" d="M130.7,450.7c2.8,12.6,16,47.8,16,47.8s-12.2-13.9-25.2-14.7c-13-0.8-17.8-1-17.7,2.2
				c0,0.6,2.2-14,12.2-23.1C125.9,453.8,130.7,450.7,130.7,450.7z"/>
			<path class="st14" d="M209.9,530.1h-71.4c-2.9,0-5.3-2.1-5.8-4.9l-8.6-51.4c-0.6-3.6,2.2-6.9,5.8-6.9h88.6c3.6,0,6.4,3.3,5.8,6.9
				l-8.6,51.4C215.3,528,212.8,530.1,209.9,530.1z"/>
			<linearGradient id="SVGID_13_" gradientUnits="userSpaceOnUse" x1="212.2199" y1="447.4982" x2="144.1382" y2="531.4516">
				<stop  offset="0" style="stop-color:#8FD4FF"/>
				<stop  offset="1" style="stop-color:#1355BF"/>
			</linearGradient>
			<path class="st35" d="M209.9,530.1h-71.4c-2.9,0-5.3-2-5.8-4.7l-8.6-49.5c-0.6-3.5,2.2-6.6,5.8-6.6h88.6c3.6,0,6.4,3.2,5.8,6.6
				l-8.6,49.5C215.3,528.1,212.8,530.1,209.9,530.1z"/>
			<path class="st30" d="M183.7,550.3c-0.4-0.1-46.1-11.5-56.3-3.1c-10.2,8.4,34.1,8.6,42.1,6.7
				C177.5,552.1,183.7,550.3,183.7,550.3z"/>
			<path class="st30" d="M193.9,552.4c0,0,9.8-7.4,22.6-6c12.9,1.3,23.9,4.1,12.9,7.6c-11.1,3.5-22.6,3.9-27.9,3.5
				C196.1,557,193.9,552.4,193.9,552.4z"/>
			<path class="st30" d="M167.9,362.1c-11.7,3.6-7.6,36.6,5.8,35.5c13.4-1.1,13.9-15.4,13-24.6C185.7,363.7,180,358.4,167.9,362.1z"
				/>
			<path class="st30" d="M163.7,386.6c-3.3-3.1-7.7,6.7-6,11c1.8,4.3-0.7,6.8,1.7,11.5c2.4,4.7-4.4-3-5.4-8.5
				c-1-5.6-1.5-15.2-2.9-19.6c-1.4-4.4,0.1-11.9,6.1-13.5c6.1-1.6,7.5-4.3,9.8-4.5c2.3-0.1,13.3,1,18.8,3.9c5.4,3,8.4,7.5,8,14.3
				c-0.4,6.8-2.2,24.2-3.8,27.1c-1.6,2.9-2.5,2.2-2,0.5c0.5-1.6,2.3-11.4,0.9-15c-1.4-3.5-0.7-12.2-4.2-12.9
				c-3.5-0.7-2.7,5.3-6.9,5.8C173.6,387.3,163.7,386.6,163.7,386.6z"/>
		</g>
		<g>
			<path class="st30" d="M691.7,532.5c0,0-2.8,11-12.5,13.8c-9.7,2.8-19.1,8.2-5.5,8.3c14.9,0.2,23.5-0.5,29.6-1.6
				c6.2-1,2.1-12,1.2-17.2C703.5,530.7,691.7,532.5,691.7,532.5z"/>
			<path class="st30" d="M770.9,525.4c0,0,1.9,20.2-2.9,21.9c-4.9,1.7-10.4,5.9-3.5,5.9c6.9,0,15.5,1.6,17.8-5.9
				c2.7-9.2,8.9-10.7,6.7-15.4c-2.2-4.7-8.9-13.4-8.9-13.4L770.9,525.4z"/>
			<path class="st29" d="M669.7,312.9l19.1,224.3c0,0,9.9,4.6,17.1,5.3c7.2,0.7,22-98.1,20.7-116.8c-1.3-18.7,13-78,9.7-97.2
				C733.1,309.2,669.7,312.9,669.7,312.9z"/>
			<path class="st30" d="M708.1,314.1c-1.3-0.2-2.7-0.3-4.1-0.5l-33.1,12.8l6.1,71.5c15.9,34.8,33.2,66.5,42.8,87.7
				c4.3-25.3,7.6-51.3,7-60c-0.6-9,2.4-27.4,5.3-46.2L708.1,314.1z"/>
			<path class="st29" d="M679.2,349.5c18.6,82.5,91.5,183,91.5,183c-0.1,0,13.6-2.4,14.3-8.6c0.7-6.2-7.8-68.4-26.4-86.4
				c-18.6-18.1-19.8-103.8-19.8-103.8L679.2,349.5z"/>
			<path class="st24" d="M723,234.1c20.9,21,34.3,57.1,34.4,66c0.2,8.9-24.1,24.9-24.1,24.9L723,234.1z"/>
			<polygon class="st33" points="699.5,187.8 707.7,228.9 685.1,253.3 682.1,203.4 			"/>
			<linearGradient id="SVGID_14_" gradientUnits="userSpaceOnUse" x1="633.2375" y1="230.3639" x2="771.0365" y2="390.8769">
				<stop  offset="0" style="stop-color:#FFC34E"/>
				<stop  offset="1" style="stop-color:#FB8627"/>
			</linearGradient>
			<path class="st36" d="M707.7,216.1c0,0,10.7,3.7,22.5,33.9c11.9,30.1,20.1,104.4,20.1,104.4s-22.8,19.4-55.5,19.4
				c-20.8,0-31.3-4.7-31.3-4.7s-2.1-70,0-95.2C665.7,248.5,697.4,215.5,707.7,216.1z"/>
			<path class="st34" d="M690.8,222.4c6.7-7.8,9.2-19.8,10.1-27.4l-1.3-6.5l-1.7,0.7l-15.8,14.2l1.5,25.7
				C685.9,227.5,688.3,225.4,690.8,222.4z"/>
			
				<ellipse transform="matrix(0.2074 -0.9783 0.9783 0.2074 347.8052 815.8271)" class="st33" cx="677.3" cy="193.3" rx="22.7" ry="17.3"/>
			<linearGradient id="SVGID_15_" gradientUnits="userSpaceOnUse" x1="681.8809" y1="218.2017" x2="697.9095" y2="236.8724">
				<stop  offset="0" style="stop-color:#FFC34E"/>
				<stop  offset="1" style="stop-color:#FB8627"/>
			</linearGradient>
			<path class="st37" d="M704.5,206.8l7.1,12l-37.5,28.1c0,0,2.8-13,3.6-17.8C678.4,224.3,703.9,205.8,704.5,206.8z"/>
			<path class="st12" d="M660.1,162.8c-15.8,5-2.9,24.8,2.2,25c5.1,0.2,6.9-4.5,11.1-3.4c4.2,1.1,8.1-6.3,10.6-4.7
				c2.5,1.6,0.9,16.6,0,19.2s3.2,2.8,3.2,2.8s1.7-10.6,4.3-9.9c2.6,0.7,4.6,8.1,8.3,9.9c3.8,1.8,3.8,1.8,3.8,1.8s2.3-16,5.8-19.1
				c3.5-3.1,1.3-13.7-3.6-15.8c-4.9-2.1-6.1-11.6-12.9-12.3c-6.8-0.7-12.4,3.9-21.4,2.8C662.5,157.9,664.5,161.4,660.1,162.8z"/>
			
				<ellipse transform="matrix(0.3911 -0.9203 0.9203 0.3911 245.4587 756.1196)" class="st33" cx="694.2" cy="192.6" rx="6" ry="4.5"/>
			<path class="st24" d="M715.4,238.5c0,0-38.7,43-52.6,56.3c-0.2,12.4-0.1,26.8,0.1,39.7c7.5-3.7,28.5-14.6,40.5-26.1
				C718.1,294.2,724.6,261.6,715.4,238.5z"/>
			<path class="st33" d="M616.5,291.3c0,0-9.3-11.5-12.9-10.4c-3.7,1.1-5.1,1.3-8.3,1.1c-3.2-0.2-3.5,4.5,1.2,12.9
				c4.6,8.4,17.1,10.1,20.1,9.9C619.5,304.7,616.5,291.3,616.5,291.3z"/>
			<linearGradient id="SVGID_16_" gradientUnits="userSpaceOnUse" x1="603.0236" y1="318.4698" x2="749.6857" y2="239.4179">
				<stop  offset="0" style="stop-color:#FFC34E"/>
				<stop  offset="1" style="stop-color:#FB8627"/>
			</linearGradient>
			<path class="st38" d="M711.1,229.1c15,4,10.1,41.9,1.7,57.6c-6.1,11.3-26.3,22.7-38.7,26c-12.4,3.2-61.5-6.4-61.5-6.4
				s-2-17.7,1.8-17.7c3.7,0,43.5,1.9,55.4-8.8C681.6,268.9,693,224.3,711.1,229.1z"/>
			<g>
				<path class="st24" d="M604.5,288.8c-0.7,0-1.3-0.3-1.7-0.9l-8-10.5c-0.7-1-0.5-2.3,0.4-3c1-0.7,2.3-0.5,3,0.4l8,10.5
					c0.7,1,0.5,2.3-0.4,3C605.4,288.7,605,288.8,604.5,288.8z"/>
			</g>
		</g>
	</g>
</g>
</svg>
